ISO-10303-21;
HEADER;
FILE_DESCRIPTION(('FreeCAD Model'),'2;1');
FILE_NAME('Open CASCADE Shape Model','2026-07-16T19:16:14',('FreeCAD'),(
    'FreeCAD'),'Open CASCADE STEP processor 7.8','FreeCAD','Unknown');
FILE_SCHEMA(('AUTOMOTIVE_DESIGN { 1 0 10303 214 1 1 1 1 }'));
ENDSEC;
DATA;
#1 = APPLICATION_PROTOCOL_DEFINITION('international standard',
  'automotive_design',2000,#2);
#2 = APPLICATION_CONTEXT(
  'core data for automotive mechanical design processes');
#3 = SHAPE_DEFINITION_REPRESENTATION(#4,#10);
#4 = PRODUCT_DEFINITION_SHAPE('','',#5);
#5 = PRODUCT_DEFINITION('design','',#6,#9);
#6 = PRODUCT_DEFINITION_FORMATION('','',#7);
#7 = PRODUCT('Open CASCADE STEP translator 7.8 8',
  'Open CASCADE STEP translator 7.8 8','',(#8));
#8 = PRODUCT_CONTEXT('',#2,'mechanical');
#9 = PRODUCT_DEFINITION_CONTEXT('part definition',#2,'design');
#10 = ADVANCED_BREP_SHAPE_REPRESENTATION('',(#11,#15),#1370);
#11 = AXIS2_PLACEMENT_3D('',#12,#13,#14);
#12 = CARTESIAN_POINT('',(0.,0.,0.));
#13 = DIRECTION('',(0.,0.,1.));
#14 = DIRECTION('',(1.,0.,-0.));
#15 = MANIFOLD_SOLID_BREP('',#16);
#16 = CLOSED_SHELL('',(#17,#86,#126,#188,#219,#244,#259,#274,#383,#395,
    #419,#444,#461,#492,#516,#533,#569,#593,#642,#666,#716,#733,#750,
    #772,#902,#915,#940,#965,#1005,#1031,#1055,#1080,#1105,#1137,#1161,
    #1185,#1203,#1235,#1259,#1283,#1301,#1313,#1334,#1346,#1358));
#17 = ADVANCED_FACE('',(#18),#81,.F.);
#18 = FACE_BOUND('',#19,.F.);
#19 = EDGE_LOOP('',(#20,#30,#39,#48,#57,#66,#74));
#20 = ORIENTED_EDGE('',*,*,#21,.T.);
#21 = EDGE_CURVE('',#22,#24,#26,.T.);
#22 = VERTEX_POINT('',#23);
#23 = CARTESIAN_POINT('',(0.5,4.019017292822,-8.5));
#24 = VERTEX_POINT('',#25);
#25 = CARTESIAN_POINT('',(0.5,4.019017292822,-5.25));
#26 = LINE('',#27,#28);
#27 = CARTESIAN_POINT('',(0.5,4.019017292822,-9.));
#28 = VECTOR('',#29,1.);
#29 = DIRECTION('',(1.110223024625E-16,1.554312234475E-15,1.));
#30 = ORIENTED_EDGE('',*,*,#31,.T.);
#31 = EDGE_CURVE('',#24,#32,#34,.T.);
#32 = VERTEX_POINT('',#33);
#33 = CARTESIAN_POINT('',(3.507402885327,2.025,-5.25));
#34 = CIRCLE('',#35,4.05);
#35 = AXIS2_PLACEMENT_3D('',#36,#37,#38);
#36 = CARTESIAN_POINT('',(-1.06581410364E-14,-4.662936703426E-15,-5.25)
  );
#37 = DIRECTION('',(2.331468351713E-15,8.881784197001E-16,-1.));
#38 = DIRECTION('',(-2.22044604925E-15,1.,8.881784197001E-16));
#39 = ORIENTED_EDGE('',*,*,#40,.T.);
#40 = EDGE_CURVE('',#32,#41,#43,.T.);
#41 = VERTEX_POINT('',#42);
#42 = CARTESIAN_POINT('',(6.378231276472E-15,-4.05,-5.25));
#43 = CIRCLE('',#44,4.05);
#44 = AXIS2_PLACEMENT_3D('',#45,#46,#47);
#45 = CARTESIAN_POINT('',(-1.06581410364E-14,-4.662936703426E-15,-5.25)
  );
#46 = DIRECTION('',(2.331468351713E-15,8.881784197001E-16,-1.));
#47 = DIRECTION('',(-2.22044604925E-15,1.,8.881784197001E-16));
#48 = ORIENTED_EDGE('',*,*,#49,.T.);
#49 = EDGE_CURVE('',#41,#50,#52,.T.);
#50 = VERTEX_POINT('',#51);
#51 = CARTESIAN_POINT('',(-3.507402885327,2.025,-5.25));
#52 = CIRCLE('',#53,4.05);
#53 = AXIS2_PLACEMENT_3D('',#54,#55,#56);
#54 = CARTESIAN_POINT('',(-1.06581410364E-14,-4.662936703426E-15,-5.25)
  );
#55 = DIRECTION('',(2.331468351713E-15,8.881784197001E-16,-1.));
#56 = DIRECTION('',(-2.22044604925E-15,1.,8.881784197001E-16));
#57 = ORIENTED_EDGE('',*,*,#58,.T.);
#58 = EDGE_CURVE('',#50,#59,#61,.T.);
#59 = VERTEX_POINT('',#60);
#60 = CARTESIAN_POINT('',(-0.5,4.019017292822,-5.25));
#61 = CIRCLE('',#62,4.05);
#62 = AXIS2_PLACEMENT_3D('',#63,#64,#65);
#63 = CARTESIAN_POINT('',(-1.06581410364E-14,-4.662936703426E-15,-5.25)
  );
#64 = DIRECTION('',(2.331468351713E-15,8.881784197001E-16,-1.));
#65 = DIRECTION('',(-2.22044604925E-15,1.,8.881784197001E-16));
#66 = ORIENTED_EDGE('',*,*,#67,.F.);
#67 = EDGE_CURVE('',#68,#59,#70,.T.);
#68 = VERTEX_POINT('',#69);
#69 = CARTESIAN_POINT('',(-0.5,4.019017292822,-8.5));
#70 = LINE('',#71,#72);
#71 = CARTESIAN_POINT('',(-0.5,4.019017292822,-9.));
#72 = VECTOR('',#73,1.);
#73 = DIRECTION('',(1.110223024625E-16,1.554312234475E-15,1.));
#74 = ORIENTED_EDGE('',*,*,#75,.F.);
#75 = EDGE_CURVE('',#22,#68,#76,.T.);
#76 = CIRCLE('',#77,4.05);
#77 = AXIS2_PLACEMENT_3D('',#78,#79,#80);
#78 = CARTESIAN_POINT('',(2.049493797449E-15,-1.088018564133E-14,-8.5));
#79 = DIRECTION('',(2.562350552854E-15,2.22044604925E-16,-1.));
#80 = DIRECTION('',(0.123456790123,0.992349948845,5.36685526765E-16));
#81 = CYLINDRICAL_SURFACE('',#82,4.05);
#82 = AXIS2_PLACEMENT_3D('',#83,#84,#85);
#83 = CARTESIAN_POINT('',(-9.992007221626E-16,-1.398881011028E-14,-9.));
#84 = DIRECTION('',(1.110223024625E-16,-1.33226762955E-15,-1.));
#85 = DIRECTION('',(-1.998401444325E-15,1.,6.661338147751E-16));
#86 = ADVANCED_FACE('',(#87),#121,.F.);
#87 = FACE_BOUND('',#88,.F.);
#88 = EDGE_LOOP('',(#89,#90,#99,#107,#115));
#89 = ORIENTED_EDGE('',*,*,#21,.F.);
#90 = ORIENTED_EDGE('',*,*,#91,.T.);
#91 = EDGE_CURVE('',#22,#92,#94,.T.);
#92 = VERTEX_POINT('',#93);
#93 = CARTESIAN_POINT('',(0.5,4.522444029504,-9.));
#94 = HYPERBOLA('',#95,0.5,0.5);
#95 = AXIS2_PLACEMENT_3D('',#96,#97,#98);
#96 = CARTESIAN_POINT('',(0.5,-8.859579736509E-15,-4.45));
#97 = DIRECTION('',(1.,1.110223024625E-15,7.771561172376E-16));
#98 = DIRECTION('',(7.771561172376E-16,-4.440892098501E-16,-1.));
#99 = ORIENTED_EDGE('',*,*,#100,.F.);
#100 = EDGE_CURVE('',#101,#92,#103,.T.);
#101 = VERTEX_POINT('',#102);
#102 = CARTESIAN_POINT('',(0.5,5.019017292822,-9.));
#103 = LINE('',#104,#105);
#104 = CARTESIAN_POINT('',(0.5,5.019017292822,-9.));
#105 = VECTOR('',#106,1.);
#106 = DIRECTION('',(2.22044604925E-15,-1.,-8.881784197001E-16));
#107 = ORIENTED_EDGE('',*,*,#108,.T.);
#108 = EDGE_CURVE('',#101,#109,#111,.T.);
#109 = VERTEX_POINT('',#110);
#110 = CARTESIAN_POINT('',(0.5,5.019017292822,-5.25));
#111 = LINE('',#112,#113);
#112 = CARTESIAN_POINT('',(0.5,5.019017292822,-9.));
#113 = VECTOR('',#114,1.);
#114 = DIRECTION('',(1.110223024625E-16,1.554312234475E-15,1.));
#115 = ORIENTED_EDGE('',*,*,#116,.T.);
#116 = EDGE_CURVE('',#109,#24,#117,.T.);
#117 = LINE('',#118,#119);
#118 = CARTESIAN_POINT('',(0.5,5.019017292822,-5.25));
#119 = VECTOR('',#120,1.);
#120 = DIRECTION('',(2.22044604925E-15,-1.,-8.881784197001E-16));
#121 = PLANE('',#122);
#122 = AXIS2_PLACEMENT_3D('',#123,#124,#125);
#123 = CARTESIAN_POINT('',(0.5,5.019017292822,-9.));
#124 = DIRECTION('',(1.,1.627025617018E-30,1.887379141863E-15));
#125 = DIRECTION('',(1.998401444325E-15,-1.,-6.661338147751E-16));
#126 = ADVANCED_FACE('',(#127),#183,.F.);
#127 = FACE_BOUND('',#128,.F.);
#128 = EDGE_LOOP('',(#129,#130,#131,#140,#149,#158,#167,#176));
#129 = ORIENTED_EDGE('',*,*,#91,.F.);
#130 = ORIENTED_EDGE('',*,*,#75,.T.);
#131 = ORIENTED_EDGE('',*,*,#132,.T.);
#132 = EDGE_CURVE('',#68,#133,#135,.T.);
#133 = VERTEX_POINT('',#134);
#134 = CARTESIAN_POINT('',(-0.5,4.522444029504,-9.));
#135 = HYPERBOLA('',#136,0.5,0.5);
#136 = AXIS2_PLACEMENT_3D('',#137,#138,#139);
#137 = CARTESIAN_POINT('',(-0.5,-9.303668946359E-15,-4.45));
#138 = DIRECTION('',(1.,1.110223024625E-15,7.771561172376E-16));
#139 = DIRECTION('',(7.771561172376E-16,-4.440892098501E-16,-1.));
#140 = ORIENTED_EDGE('',*,*,#141,.F.);
#141 = EDGE_CURVE('',#142,#133,#144,.T.);
#142 = VERTEX_POINT('',#143);
#143 = CARTESIAN_POINT('',(-5.000000000007E-02,-4.549725266431,-9.));
#144 = CIRCLE('',#145,4.55);
#145 = AXIS2_PLACEMENT_3D('',#146,#147,#148);
#146 = CARTESIAN_POINT('',(2.997602166488E-15,-1.110223024625E-14,-9.));
#147 = DIRECTION('',(2.562350552854E-15,2.22044604925E-16,-1.));
#148 = DIRECTION('',(0.123456790123,0.992349948845,5.36685526765E-16));
#149 = ORIENTED_EDGE('',*,*,#150,.F.);
#150 = EDGE_CURVE('',#151,#142,#153,.T.);
#151 = VERTEX_POINT('',#152);
#152 = CARTESIAN_POINT('',(-5.E-02,-4.299709292499,-8.75));
#153 = HYPERBOLA('',#154,4.999999999999E-02,4.999999999999E-02);
#154 = AXIS2_PLACEMENT_3D('',#155,#156,#157);
#155 = CARTESIAN_POINT('',(-5.E-02,-8.110179194887E-15,-4.45));
#156 = DIRECTION('',(-1.,-3.330669073875E-16,-2.22044604925E-16));
#157 = DIRECTION('',(2.22044604925E-16,-2.22044604925E-16,-1.));
#158 = ORIENTED_EDGE('',*,*,#159,.F.);
#159 = EDGE_CURVE('',#160,#151,#162,.T.);
#160 = VERTEX_POINT('',#161);
#161 = CARTESIAN_POINT('',(5.E-02,-4.299709292499,-8.75));
#162 = CIRCLE('',#163,4.3);
#163 = AXIS2_PLACEMENT_3D('',#164,#165,#166);
#164 = CARTESIAN_POINT('',(4.466438275062E-15,-9.048317650695E-15,-8.75)
  );
#165 = DIRECTION('',(2.118261343004E-15,-2.22044604925E-16,-1.));
#166 = DIRECTION('',(0.123456790123,0.992349948845,4.11677937112E-17));
#167 = ORIENTED_EDGE('',*,*,#168,.F.);
#168 = EDGE_CURVE('',#169,#160,#171,.T.);
#169 = VERTEX_POINT('',#170);
#170 = CARTESIAN_POINT('',(5.000000000008E-02,-4.549725266431,-9.));
#171 = HYPERBOLA('',#172,5.000000000001E-02,5.000000000001E-02);
#172 = AXIS2_PLACEMENT_3D('',#173,#174,#175);
#173 = CARTESIAN_POINT('',(5.E-02,-8.076872504148E-15,-4.45));
#174 = DIRECTION('',(1.,3.330669073875E-16,2.22044604925E-16));
#175 = DIRECTION('',(2.22044604925E-16,-2.22044604925E-16,-1.));
#176 = ORIENTED_EDGE('',*,*,#177,.F.);
#177 = EDGE_CURVE('',#92,#169,#178,.T.);
#178 = CIRCLE('',#179,4.55);
#179 = AXIS2_PLACEMENT_3D('',#180,#181,#182);
#180 = CARTESIAN_POINT('',(2.997602166488E-15,-1.110223024625E-14,-9.));
#181 = DIRECTION('',(2.562350552854E-15,2.22044604925E-16,-1.));
#182 = DIRECTION('',(0.123456790123,0.992349948845,5.36685526765E-16));
#183 = CONICAL_SURFACE('',#184,4.05,0.785398163397);
#184 = AXIS2_PLACEMENT_3D('',#185,#186,#187);
#185 = CARTESIAN_POINT('',(2.049493797449E-15,-1.088018564133E-14,-8.5)
  );
#186 = DIRECTION('',(1.896216738079E-15,-4.440892098501E-16,-1.));
#187 = DIRECTION('',(0.123456790123,0.992349948845,5.36685526765E-16));
#188 = ADVANCED_FACE('',(#189),#214,.T.);
#189 = FACE_BOUND('',#190,.T.);
#190 = EDGE_LOOP('',(#191,#192,#193,#199,#200,#208));
#191 = ORIENTED_EDGE('',*,*,#116,.T.);
#192 = ORIENTED_EDGE('',*,*,#31,.T.);
#193 = ORIENTED_EDGE('',*,*,#194,.F.);
#194 = EDGE_CURVE('',#50,#32,#195,.T.);
#195 = LINE('',#196,#197);
#196 = CARTESIAN_POINT('',(-3.507402885327,2.025,-5.25));
#197 = VECTOR('',#198,1.);
#198 = DIRECTION('',(1.,-3.330669073875E-16,1.7763568394E-15));
#199 = ORIENTED_EDGE('',*,*,#58,.T.);
#200 = ORIENTED_EDGE('',*,*,#201,.T.);
#201 = EDGE_CURVE('',#59,#202,#204,.T.);
#202 = VERTEX_POINT('',#203);
#203 = CARTESIAN_POINT('',(-0.5,5.019017292822,-5.25));
#204 = LINE('',#205,#206);
#205 = CARTESIAN_POINT('',(-0.5,4.019017292822,-5.25));
#206 = VECTOR('',#207,1.);
#207 = DIRECTION('',(-2.22044604925E-15,1.,8.881784197001E-16));
#208 = ORIENTED_EDGE('',*,*,#209,.T.);
#209 = EDGE_CURVE('',#202,#109,#210,.T.);
#210 = LINE('',#211,#212);
#211 = CARTESIAN_POINT('',(-0.5,5.019017292822,-5.25));
#212 = VECTOR('',#213,1.);
#213 = DIRECTION('',(1.,-4.440892098501E-16,2.331468351713E-15));
#214 = PLANE('',#215);
#215 = AXIS2_PLACEMENT_3D('',#216,#217,#218);
#216 = CARTESIAN_POINT('',(4.440892098501E-15,0.505373907839,-5.25));
#217 = DIRECTION('',(-3.330669073875E-16,-1.7763568394E-15,-1.));
#218 = DIRECTION('',(1.,-4.440892098501E-16,2.331468351713E-15));
#219 = ADVANCED_FACE('',(#220),#239,.F.);
#220 = FACE_BOUND('',#221,.F.);
#221 = EDGE_LOOP('',(#222,#223,#224,#232,#238));
#222 = ORIENTED_EDGE('',*,*,#67,.T.);
#223 = ORIENTED_EDGE('',*,*,#201,.T.);
#224 = ORIENTED_EDGE('',*,*,#225,.F.);
#225 = EDGE_CURVE('',#226,#202,#228,.T.);
#226 = VERTEX_POINT('',#227);
#227 = CARTESIAN_POINT('',(-0.5,5.019017292822,-9.));
#228 = LINE('',#229,#230);
#229 = CARTESIAN_POINT('',(-0.5,5.019017292822,-9.));
#230 = VECTOR('',#231,1.);
#231 = DIRECTION('',(1.110223024625E-16,1.554312234475E-15,1.));
#232 = ORIENTED_EDGE('',*,*,#233,.F.);
#233 = EDGE_CURVE('',#133,#226,#234,.T.);
#234 = LINE('',#235,#236);
#235 = CARTESIAN_POINT('',(-0.5,4.019017292822,-9.));
#236 = VECTOR('',#237,1.);
#237 = DIRECTION('',(-2.22044604925E-15,1.,8.881784197001E-16));
#238 = ORIENTED_EDGE('',*,*,#132,.F.);
#239 = PLANE('',#240);
#240 = AXIS2_PLACEMENT_3D('',#241,#242,#243);
#241 = CARTESIAN_POINT('',(-0.5,4.019017292822,-9.));
#242 = DIRECTION('',(-1.,-1.627025617018E-30,-1.887379141863E-15));
#243 = DIRECTION('',(-1.998401444325E-15,1.,6.661338147751E-16));
#244 = ADVANCED_FACE('',(#245),#254,.T.);
#245 = FACE_BOUND('',#246,.T.);
#246 = EDGE_LOOP('',(#247,#253));
#247 = ORIENTED_EDGE('',*,*,#248,.F.);
#248 = EDGE_CURVE('',#32,#41,#249,.T.);
#249 = LINE('',#250,#251);
#250 = CARTESIAN_POINT('',(3.507402885327,2.025,-5.25));
#251 = VECTOR('',#252,1.);
#252 = DIRECTION('',(-0.5,-0.866025403784,-1.465067225615E-15));
#253 = ORIENTED_EDGE('',*,*,#40,.T.);
#254 = PLANE('',#255);
#255 = AXIS2_PLACEMENT_3D('',#256,#257,#258);
#256 = CARTESIAN_POINT('',(4.440892098501E-15,0.505373907839,-5.25));
#257 = DIRECTION('',(-3.330669073875E-16,-1.7763568394E-15,-1.));
#258 = DIRECTION('',(1.,-4.440892098501E-16,2.331468351713E-15));
#259 = ADVANCED_FACE('',(#260),#269,.T.);
#260 = FACE_BOUND('',#261,.T.);
#261 = EDGE_LOOP('',(#262,#268));
#262 = ORIENTED_EDGE('',*,*,#263,.F.);
#263 = EDGE_CURVE('',#41,#50,#264,.T.);
#264 = LINE('',#265,#266);
#265 = CARTESIAN_POINT('',(-8.881784197001E-16,-4.05,-5.25));
#266 = VECTOR('',#267,1.);
#267 = DIRECTION('',(-0.5,0.866025403784,-3.112896137851E-16));
#268 = ORIENTED_EDGE('',*,*,#49,.T.);
#269 = PLANE('',#270);
#270 = AXIS2_PLACEMENT_3D('',#271,#272,#273);
#271 = CARTESIAN_POINT('',(4.440892098501E-15,0.505373907839,-5.25));
#272 = DIRECTION('',(-3.330669073875E-16,-1.7763568394E-15,-1.));
#273 = DIRECTION('',(1.,-4.440892098501E-16,2.331468351713E-15));
#274 = ADVANCED_FACE('',(#275),#378,.T.);
#275 = FACE_BOUND('',#276,.T.);
#276 = EDGE_LOOP('',(#277,#278,#279,#285,#286,#287,#295,#304,#312,#321,
    #329,#338,#346,#355,#363,#372));
#277 = ORIENTED_EDGE('',*,*,#177,.F.);
#278 = ORIENTED_EDGE('',*,*,#100,.F.);
#279 = ORIENTED_EDGE('',*,*,#280,.F.);
#280 = EDGE_CURVE('',#226,#101,#281,.T.);
#281 = LINE('',#282,#283);
#282 = CARTESIAN_POINT('',(-0.5,5.019017292822,-9.));
#283 = VECTOR('',#284,1.);
#284 = DIRECTION('',(1.,-4.440892098501E-16,2.331468351713E-15));
#285 = ORIENTED_EDGE('',*,*,#233,.F.);
#286 = ORIENTED_EDGE('',*,*,#141,.F.);
#287 = ORIENTED_EDGE('',*,*,#288,.F.);
#288 = EDGE_CURVE('',#289,#142,#291,.T.);
#289 = VERTEX_POINT('',#290);
#290 = CARTESIAN_POINT('',(-5.000000000003E-02,-6.999821426294,-9.));
#291 = LINE('',#292,#293);
#292 = CARTESIAN_POINT('',(-5.E-02,-10.,-9.));
#293 = VECTOR('',#294,1.);
#294 = DIRECTION('',(-5.551115123126E-16,1.,2.22044604925E-16));
#295 = ORIENTED_EDGE('',*,*,#296,.T.);
#296 = EDGE_CURVE('',#289,#297,#299,.T.);
#297 = VERTEX_POINT('',#298);
#298 = CARTESIAN_POINT('',(-7.,-2.072184250104E-14,-9.));
#299 = CIRCLE('',#300,7.);
#300 = AXIS2_PLACEMENT_3D('',#301,#302,#303);
#301 = CARTESIAN_POINT('',(-3.37507799486E-14,-1.398881011028E-14,-9.));
#302 = DIRECTION('',(3.996802888651E-15,1.554312234475E-15,-1.));
#303 = DIRECTION('',(-3.885780586188E-15,1.,1.554312234475E-15));
#304 = ORIENTED_EDGE('',*,*,#305,.T.);
#305 = EDGE_CURVE('',#297,#306,#308,.T.);
#306 = VERTEX_POINT('',#307);
#307 = CARTESIAN_POINT('',(-7.,90.,-9.));
#308 = LINE('',#309,#310);
#309 = CARTESIAN_POINT('',(-7.,-9.848717289614E-15,-9.));
#310 = VECTOR('',#311,1.);
#311 = DIRECTION('',(-3.885780586188E-15,1.,1.554312234475E-15));
#312 = ORIENTED_EDGE('',*,*,#313,.T.);
#313 = EDGE_CURVE('',#306,#314,#316,.T.);
#314 = VERTEX_POINT('',#315);
#315 = CARTESIAN_POINT('',(-5.000000000006E-02,96.999821426294,-9.));
#316 = CIRCLE('',#317,7.);
#317 = AXIS2_PLACEMENT_3D('',#318,#319,#320);
#318 = CARTESIAN_POINT('',(-3.836930773105E-13,90.,-9.));
#319 = DIRECTION('',(3.996802888651E-15,1.554312234475E-15,-1.));
#320 = DIRECTION('',(-3.885780586188E-15,1.,1.554312234475E-15));
#321 = ORIENTED_EDGE('',*,*,#322,.F.);
#322 = EDGE_CURVE('',#323,#314,#325,.T.);
#323 = VERTEX_POINT('',#324);
#324 = CARTESIAN_POINT('',(-5.000000000002E-02,91.499166435057,-9.));
#325 = LINE('',#326,#327);
#326 = CARTESIAN_POINT('',(-5.000000000005E-02,90.,-9.));
#327 = VECTOR('',#328,1.);
#328 = DIRECTION('',(-5.551115123126E-16,1.,2.22044604925E-16));
#329 = ORIENTED_EDGE('',*,*,#330,.F.);
#330 = EDGE_CURVE('',#331,#323,#333,.T.);
#331 = VERTEX_POINT('',#332);
#332 = CARTESIAN_POINT('',(4.999999999996E-02,91.499166435057,-9.));
#333 = CIRCLE('',#334,1.5);
#334 = AXIS2_PLACEMENT_3D('',#335,#336,#337);
#335 = CARTESIAN_POINT('',(-3.836930773105E-13,90.,-9.));
#336 = DIRECTION('',(3.996802888651E-15,1.554312234475E-15,-1.));
#337 = DIRECTION('',(-3.885780586188E-15,1.,1.554312234475E-15));
#338 = ORIENTED_EDGE('',*,*,#339,.F.);
#339 = EDGE_CURVE('',#340,#331,#342,.T.);
#340 = VERTEX_POINT('',#341);
#341 = CARTESIAN_POINT('',(5.E-02,96.999821426294,-9.));
#342 = LINE('',#343,#344);
#343 = CARTESIAN_POINT('',(4.999999999994E-02,100.,-9.));
#344 = VECTOR('',#345,1.);
#345 = DIRECTION('',(5.551115123126E-16,-1.,-2.22044604925E-16));
#346 = ORIENTED_EDGE('',*,*,#347,.T.);
#347 = EDGE_CURVE('',#340,#348,#350,.T.);
#348 = VERTEX_POINT('',#349);
#349 = CARTESIAN_POINT('',(7.,90.,-9.));
#350 = CIRCLE('',#351,7.);
#351 = AXIS2_PLACEMENT_3D('',#352,#353,#354);
#352 = CARTESIAN_POINT('',(-3.836930773105E-13,90.,-9.));
#353 = DIRECTION('',(3.996802888651E-15,1.554312234475E-15,-1.));
#354 = DIRECTION('',(-3.885780586188E-15,1.,1.554312234475E-15));
#355 = ORIENTED_EDGE('',*,*,#356,.F.);
#356 = EDGE_CURVE('',#357,#348,#359,.T.);
#357 = VERTEX_POINT('',#358);
#358 = CARTESIAN_POINT('',(7.,-9.661560214918E-15,-9.));
#359 = LINE('',#360,#361);
#360 = CARTESIAN_POINT('',(7.,-2.052890293094E-14,-9.));
#361 = VECTOR('',#362,1.);
#362 = DIRECTION('',(-3.885780586188E-15,1.,1.554312234475E-15));
#363 = ORIENTED_EDGE('',*,*,#364,.T.);
#364 = EDGE_CURVE('',#357,#365,#367,.T.);
#365 = VERTEX_POINT('',#366);
#366 = CARTESIAN_POINT('',(5.000000000004E-02,-6.999821426294,-9.));
#367 = CIRCLE('',#368,7.);
#368 = AXIS2_PLACEMENT_3D('',#369,#370,#371);
#369 = CARTESIAN_POINT('',(-3.37507799486E-14,-1.398881011028E-14,-9.));
#370 = DIRECTION('',(3.996802888651E-15,1.554312234475E-15,-1.));
#371 = DIRECTION('',(-3.885780586188E-15,1.,1.554312234475E-15));
#372 = ORIENTED_EDGE('',*,*,#373,.F.);
#373 = EDGE_CURVE('',#169,#365,#374,.T.);
#374 = LINE('',#375,#376);
#375 = CARTESIAN_POINT('',(5.E-02,-2.003952559448E-15,-9.));
#376 = VECTOR('',#377,1.);
#377 = DIRECTION('',(5.551115123126E-16,-1.,-2.22044604925E-16));
#378 = PLANE('',#379);
#379 = AXIS2_PLACEMENT_3D('',#380,#381,#382);
#380 = CARTESIAN_POINT('',(-1.083527661988E-13,45.,-9.));
#381 = DIRECTION('',(1.896216738079E-15,-4.440892098501E-16,-1.));
#382 = DIRECTION('',(1.,9.860761315263E-31,2.562350552854E-15));
#383 = ADVANCED_FACE('',(#384),#390,.F.);
#384 = FACE_BOUND('',#385,.F.);
#385 = EDGE_LOOP('',(#386,#387,#388,#389));
#386 = ORIENTED_EDGE('',*,*,#225,.T.);
#387 = ORIENTED_EDGE('',*,*,#209,.T.);
#388 = ORIENTED_EDGE('',*,*,#108,.F.);
#389 = ORIENTED_EDGE('',*,*,#280,.F.);
#390 = PLANE('',#391);
#391 = AXIS2_PLACEMENT_3D('',#392,#393,#394);
#392 = CARTESIAN_POINT('',(-0.5,5.019017292822,-9.));
#393 = DIRECTION('',(-1.7763568394E-15,1.,4.440892098501E-16));
#394 = DIRECTION('',(1.,-2.22044604925E-16,2.109423746788E-15));
#395 = ADVANCED_FACE('',(#396),#414,.F.);
#396 = FACE_BOUND('',#397,.F.);
#397 = EDGE_LOOP('',(#398,#399,#400,#408));
#398 = ORIENTED_EDGE('',*,*,#373,.F.);
#399 = ORIENTED_EDGE('',*,*,#168,.T.);
#400 = ORIENTED_EDGE('',*,*,#401,.T.);
#401 = EDGE_CURVE('',#160,#402,#404,.T.);
#402 = VERTEX_POINT('',#403);
#403 = CARTESIAN_POINT('',(5.E-02,-6.999821426294,-8.75));
#404 = LINE('',#405,#406);
#405 = CARTESIAN_POINT('',(5.E-02,-1.948441408217E-15,-8.75));
#406 = VECTOR('',#407,1.);
#407 = DIRECTION('',(5.551115123126E-16,-1.,-2.22044604925E-16));
#408 = ORIENTED_EDGE('',*,*,#409,.F.);
#409 = EDGE_CURVE('',#365,#402,#410,.T.);
#410 = LINE('',#411,#412);
#411 = CARTESIAN_POINT('',(5.E-02,-6.999821426294,9.336737729129E-15));
#412 = VECTOR('',#413,1.);
#413 = DIRECTION('',(-1.110223024625E-15,1.33226762955E-15,1.));
#414 = PLANE('',#415);
#415 = AXIS2_PLACEMENT_3D('',#416,#417,#418);
#416 = CARTESIAN_POINT('',(5.E-02,-1.992850329202E-15,-9.));
#417 = DIRECTION('',(1.,3.330669073875E-16,2.22044604925E-16));
#418 = DIRECTION('',(3.330669073875E-16,-1.,6.162975822039E-32));
#419 = ADVANCED_FACE('',(#420),#439,.T.);
#420 = FACE_BOUND('',#421,.T.);
#421 = EDGE_LOOP('',(#422,#423,#432,#438));
#422 = ORIENTED_EDGE('',*,*,#401,.T.);
#423 = ORIENTED_EDGE('',*,*,#424,.F.);
#424 = EDGE_CURVE('',#425,#402,#427,.T.);
#425 = VERTEX_POINT('',#426);
#426 = CARTESIAN_POINT('',(-5.E-02,-6.999821426294,-8.75));
#427 = CIRCLE('',#428,7.);
#428 = AXIS2_PLACEMENT_3D('',#429,#430,#431);
#429 = CARTESIAN_POINT('',(9.71445146547E-15,-1.165734175856E-14,-8.75)
  );
#430 = DIRECTION('',(-1.110223024625E-15,1.33226762955E-15,1.));
#431 = DIRECTION('',(-2.331468351713E-15,1.,-1.33226762955E-15));
#432 = ORIENTED_EDGE('',*,*,#433,.T.);
#433 = EDGE_CURVE('',#425,#151,#434,.T.);
#434 = LINE('',#435,#436);
#435 = CARTESIAN_POINT('',(-5.E-02,-10.,-8.75));
#436 = VECTOR('',#437,1.);
#437 = DIRECTION('',(-5.551115123126E-16,1.,2.22044604925E-16));
#438 = ORIENTED_EDGE('',*,*,#159,.F.);
#439 = PLANE('',#440);
#440 = AXIS2_PLACEMENT_3D('',#441,#442,#443);
#441 = CARTESIAN_POINT('',(-2.489675132722E-14,45.,-8.75));
#442 = DIRECTION('',(1.232595164408E-31,-4.440892098501E-16,-1.));
#443 = DIRECTION('',(1.,-1.110223024625E-16,6.661338147751E-16));
#444 = ADVANCED_FACE('',(#445),#456,.F.);
#445 = FACE_BOUND('',#446,.F.);
#446 = EDGE_LOOP('',(#447,#448,#454,#455));
#447 = ORIENTED_EDGE('',*,*,#288,.F.);
#448 = ORIENTED_EDGE('',*,*,#449,.T.);
#449 = EDGE_CURVE('',#289,#425,#450,.T.);
#450 = LINE('',#451,#452);
#451 = CARTESIAN_POINT('',(-5.E-02,-6.999821426294,9.314533268637E-15));
#452 = VECTOR('',#453,1.);
#453 = DIRECTION('',(-1.110223024625E-15,1.33226762955E-15,1.));
#454 = ORIENTED_EDGE('',*,*,#433,.T.);
#455 = ORIENTED_EDGE('',*,*,#150,.T.);
#456 = PLANE('',#457);
#457 = AXIS2_PLACEMENT_3D('',#458,#459,#460);
#458 = CARTESIAN_POINT('',(-4.999999999999E-02,-10.,-9.));
#459 = DIRECTION('',(-1.,-3.330669073875E-16,-2.22044604925E-16));
#460 = DIRECTION('',(-3.330669073875E-16,1.,-6.162975822039E-32));
#461 = ADVANCED_FACE('',(#462),#487,.F.);
#462 = FACE_BOUND('',#463,.F.);
#463 = EDGE_LOOP('',(#464,#472,#480,#486));
#464 = ORIENTED_EDGE('',*,*,#465,.T.);
#465 = EDGE_CURVE('',#50,#466,#468,.T.);
#466 = VERTEX_POINT('',#467);
#467 = CARTESIAN_POINT('',(-3.507402885327,2.025,-5.));
#468 = LINE('',#469,#470);
#469 = CARTESIAN_POINT('',(-3.507402885327,2.025,-5.25));
#470 = VECTOR('',#471,1.);
#471 = DIRECTION('',(-8.381647117973E-31,1.110223024625E-15,1.));
#472 = ORIENTED_EDGE('',*,*,#473,.T.);
#473 = EDGE_CURVE('',#466,#474,#476,.T.);
#474 = VERTEX_POINT('',#475);
#475 = CARTESIAN_POINT('',(3.507402885327,2.025,-5.));
#476 = LINE('',#477,#478);
#477 = CARTESIAN_POINT('',(-3.507402885327,2.025,-5.));
#478 = VECTOR('',#479,1.);
#479 = DIRECTION('',(1.,-3.330669073875E-16,1.7763568394E-15));
#480 = ORIENTED_EDGE('',*,*,#481,.F.);
#481 = EDGE_CURVE('',#32,#474,#482,.T.);
#482 = LINE('',#483,#484);
#483 = CARTESIAN_POINT('',(3.507402885327,2.025,-5.25));
#484 = VECTOR('',#485,1.);
#485 = DIRECTION('',(-8.381647117973E-31,1.110223024625E-15,1.));
#486 = ORIENTED_EDGE('',*,*,#194,.F.);
#487 = PLANE('',#488);
#488 = AXIS2_PLACEMENT_3D('',#489,#490,#491);
#489 = CARTESIAN_POINT('',(-3.507402885327,2.025,-5.25));
#490 = DIRECTION('',(-1.221245327088E-15,1.,2.22044604925E-16));
#491 = DIRECTION('',(1.,-1.110223024625E-16,1.554312234475E-15));
#492 = ADVANCED_FACE('',(#493),#511,.F.);
#493 = FACE_BOUND('',#494,.F.);
#494 = EDGE_LOOP('',(#495,#496,#504,#510));
#495 = ORIENTED_EDGE('',*,*,#481,.T.);
#496 = ORIENTED_EDGE('',*,*,#497,.T.);
#497 = EDGE_CURVE('',#474,#498,#500,.T.);
#498 = VERTEX_POINT('',#499);
#499 = CARTESIAN_POINT('',(6.267208974009E-15,-4.05,-5.));
#500 = LINE('',#501,#502);
#501 = CARTESIAN_POINT('',(3.507402885327,2.025,-5.));
#502 = VECTOR('',#503,1.);
#503 = DIRECTION('',(-0.5,-0.866025403784,-1.465067225615E-15));
#504 = ORIENTED_EDGE('',*,*,#505,.F.);
#505 = EDGE_CURVE('',#41,#498,#506,.T.);
#506 = LINE('',#507,#508);
#507 = CARTESIAN_POINT('',(5.845324224651E-15,-4.05,-5.25));
#508 = VECTOR('',#509,1.);
#509 = DIRECTION('',(-8.381647117973E-31,1.110223024625E-15,1.));
#510 = ORIENTED_EDGE('',*,*,#248,.F.);
#511 = PLANE('',#512);
#512 = AXIS2_PLACEMENT_3D('',#513,#514,#515);
#513 = CARTESIAN_POINT('',(3.507402885327,2.025,-5.25));
#514 = DIRECTION('',(0.866025403784,-0.5,1.042755309368E-15));
#515 = DIRECTION('',(-0.5,-0.866025403784,-1.161748654514E-15));
#516 = ADVANCED_FACE('',(#517),#528,.F.);
#517 = FACE_BOUND('',#518,.F.);
#518 = EDGE_LOOP('',(#519,#520,#526,#527));
#519 = ORIENTED_EDGE('',*,*,#505,.T.);
#520 = ORIENTED_EDGE('',*,*,#521,.T.);
#521 = EDGE_CURVE('',#498,#466,#522,.T.);
#522 = LINE('',#523,#524);
#523 = CARTESIAN_POINT('',(-8.881784197001E-16,-4.05,-5.));
#524 = VECTOR('',#525,1.);
#525 = DIRECTION('',(-0.5,0.866025403784,-3.112896137851E-16));
#526 = ORIENTED_EDGE('',*,*,#465,.F.);
#527 = ORIENTED_EDGE('',*,*,#263,.F.);
#528 = PLANE('',#529);
#529 = AXIS2_PLACEMENT_3D('',#530,#531,#532);
#530 = CARTESIAN_POINT('',(5.845324224651E-15,-4.05,-5.25));
#531 = DIRECTION('',(-0.866025403784,-0.5,-1.264799914293E-15));
#532 = DIRECTION('',(-0.5,0.866025403784,-3.925635799609E-16));
#533 = ADVANCED_FACE('',(#534),#564,.T.);
#534 = FACE_BOUND('',#535,.F.);
#535 = EDGE_LOOP('',(#536,#547,#553,#554,#555,#556,#557,#558));
#536 = ORIENTED_EDGE('',*,*,#537,.F.);
#537 = EDGE_CURVE('',#538,#540,#542,.T.);
#538 = VERTEX_POINT('',#539);
#539 = CARTESIAN_POINT('',(7.,4.327249895359E-15,1.709743457923E-14));
#540 = VERTEX_POINT('',#541);
#541 = CARTESIAN_POINT('',(-7.,-6.733032390766E-15,-1.709743457923E-14)
  );
#542 = CIRCLE('',#543,7.);
#543 = AXIS2_PLACEMENT_3D('',#544,#545,#546);
#544 = CARTESIAN_POINT('',(0.,0.,0.));
#545 = DIRECTION('',(3.996802888651E-15,1.554312234475E-15,-1.));
#546 = DIRECTION('',(-3.885780586188E-15,1.,1.554312234475E-15));
#547 = ORIENTED_EDGE('',*,*,#548,.T.);
#548 = EDGE_CURVE('',#538,#357,#549,.T.);
#549 = LINE('',#550,#551);
#550 = CARTESIAN_POINT('',(7.,-4.998623511493E-15,2.642330798608E-14));
#551 = VECTOR('',#552,1.);
#552 = DIRECTION('',(-4.440892098501E-16,-2.886579864025E-15,-1.));
#553 = ORIENTED_EDGE('',*,*,#364,.T.);
#554 = ORIENTED_EDGE('',*,*,#409,.T.);
#555 = ORIENTED_EDGE('',*,*,#424,.F.);
#556 = ORIENTED_EDGE('',*,*,#449,.F.);
#557 = ORIENTED_EDGE('',*,*,#296,.T.);
#558 = ORIENTED_EDGE('',*,*,#559,.F.);
#559 = EDGE_CURVE('',#540,#297,#560,.T.);
#560 = LINE('',#561,#562);
#561 = CARTESIAN_POINT('',(-7.,2.592841016085E-15,-2.642330798608E-14));
#562 = VECTOR('',#563,1.);
#563 = DIRECTION('',(-4.440892098501E-16,-2.886579864025E-15,-1.));
#564 = CYLINDRICAL_SURFACE('',#565,7.);
#565 = AXIS2_PLACEMENT_3D('',#566,#567,#568);
#566 = CARTESIAN_POINT('',(0.,0.,0.));
#567 = DIRECTION('',(2.22044604925E-16,2.6645352591E-15,1.));
#568 = DIRECTION('',(-3.663735981263E-15,1.,1.33226762955E-15));
#569 = ADVANCED_FACE('',(#570),#588,.T.);
#570 = FACE_BOUND('',#571,.T.);
#571 = EDGE_LOOP('',(#572,#573,#574,#582));
#572 = ORIENTED_EDGE('',*,*,#548,.T.);
#573 = ORIENTED_EDGE('',*,*,#356,.T.);
#574 = ORIENTED_EDGE('',*,*,#575,.F.);
#575 = EDGE_CURVE('',#576,#348,#578,.T.);
#576 = VERTEX_POINT('',#577);
#577 = CARTESIAN_POINT('',(7.,90.,1.709743457923E-14));
#578 = LINE('',#579,#580);
#579 = CARTESIAN_POINT('',(7.,90.,1.463273946456E-13));
#580 = VECTOR('',#581,1.);
#581 = DIRECTION('',(-4.440892098501E-16,-2.886579864025E-15,-1.));
#582 = ORIENTED_EDGE('',*,*,#583,.F.);
#583 = EDGE_CURVE('',#538,#576,#584,.T.);
#584 = LINE('',#585,#586);
#585 = CARTESIAN_POINT('',(7.,-6.540092820663E-15,2.797762022055E-14));
#586 = VECTOR('',#587,1.);
#587 = DIRECTION('',(-3.885780586188E-15,1.,1.554312234475E-15));
#588 = PLANE('',#589);
#589 = AXIS2_PLACEMENT_3D('',#590,#591,#592);
#590 = CARTESIAN_POINT('',(7.,-4.985780586188E-15,2.642330798608E-14));
#591 = DIRECTION('',(1.,-3.330669073875E-16,3.552713678801E-15));
#592 = DIRECTION('',(-3.663735981263E-15,1.,1.33226762955E-15));
#593 = ADVANCED_FACE('',(#594),#637,.T.);
#594 = FACE_BOUND('',#595,.F.);
#595 = EDGE_LOOP('',(#596,#605,#611,#612,#620,#629,#635,#636));
#596 = ORIENTED_EDGE('',*,*,#597,.F.);
#597 = EDGE_CURVE('',#598,#576,#600,.T.);
#598 = VERTEX_POINT('',#599);
#599 = CARTESIAN_POINT('',(-7.,90.,-1.709743457923E-14));
#600 = CIRCLE('',#601,7.);
#601 = AXIS2_PLACEMENT_3D('',#602,#603,#604);
#602 = CARTESIAN_POINT('',(-3.495202527569E-13,90.,1.398881011028E-13));
#603 = DIRECTION('',(3.996802888651E-15,1.554312234475E-15,-1.));
#604 = DIRECTION('',(-3.885780586188E-15,1.,1.554312234475E-15));
#605 = ORIENTED_EDGE('',*,*,#606,.T.);
#606 = EDGE_CURVE('',#598,#306,#607,.T.);
#607 = LINE('',#608,#609);
#608 = CARTESIAN_POINT('',(-7.,90.,9.348077867344E-14));
#609 = VECTOR('',#610,1.);
#610 = DIRECTION('',(-4.440892098501E-16,-2.886579864025E-15,-1.));
#611 = ORIENTED_EDGE('',*,*,#313,.T.);
#612 = ORIENTED_EDGE('',*,*,#613,.T.);
#613 = EDGE_CURVE('',#314,#614,#616,.T.);
#614 = VERTEX_POINT('',#615);
#615 = CARTESIAN_POINT('',(-5.000000000003E-02,96.999821426294,-8.75));
#616 = LINE('',#617,#618);
#617 = CARTESIAN_POINT('',(-5.000000000003E-02,96.999821426294,
    -9.336737729129E-15));
#618 = VECTOR('',#619,1.);
#619 = DIRECTION('',(-1.110223024625E-15,1.33226762955E-15,1.));
#620 = ORIENTED_EDGE('',*,*,#621,.F.);
#621 = EDGE_CURVE('',#622,#614,#624,.T.);
#622 = VERTEX_POINT('',#623);
#623 = CARTESIAN_POINT('',(4.999999999997E-02,96.999821426294,-8.75));
#624 = CIRCLE('',#625,7.);
#625 = AXIS2_PLACEMENT_3D('',#626,#627,#628);
#626 = CARTESIAN_POINT('',(-1.999177001887E-13,90.,-8.75));
#627 = DIRECTION('',(-1.110223024625E-15,1.33226762955E-15,1.));
#628 = DIRECTION('',(-2.331468351713E-15,1.,-1.33226762955E-15));
#629 = ORIENTED_EDGE('',*,*,#630,.F.);
#630 = EDGE_CURVE('',#340,#622,#631,.T.);
#631 = LINE('',#632,#633);
#632 = CARTESIAN_POINT('',(4.999999999997E-02,96.999821426294,
    -9.314533268637E-15));
#633 = VECTOR('',#634,1.);
#634 = DIRECTION('',(-1.110223024625E-15,1.33226762955E-15,1.));
#635 = ORIENTED_EDGE('',*,*,#347,.T.);
#636 = ORIENTED_EDGE('',*,*,#575,.F.);
#637 = CYLINDRICAL_SURFACE('',#638,7.);
#638 = AXIS2_PLACEMENT_3D('',#639,#640,#641);
#639 = CARTESIAN_POINT('',(-3.295362383137E-13,90.,1.199040866595E-13));
#640 = DIRECTION('',(2.22044604925E-16,2.6645352591E-15,1.));
#641 = DIRECTION('',(-3.663735981263E-15,1.,1.33226762955E-15));
#642 = ADVANCED_FACE('',(#643),#661,.F.);
#643 = FACE_BOUND('',#644,.F.);
#644 = EDGE_LOOP('',(#645,#646,#647,#655));
#645 = ORIENTED_EDGE('',*,*,#339,.F.);
#646 = ORIENTED_EDGE('',*,*,#630,.T.);
#647 = ORIENTED_EDGE('',*,*,#648,.T.);
#648 = EDGE_CURVE('',#622,#649,#651,.T.);
#649 = VERTEX_POINT('',#650);
#650 = CARTESIAN_POINT('',(4.999999999997E-02,91.499166435056,-8.75));
#651 = LINE('',#652,#653);
#652 = CARTESIAN_POINT('',(4.999999999994E-02,100.,-8.75));
#653 = VECTOR('',#654,1.);
#654 = DIRECTION('',(5.551115123126E-16,-1.,-2.22044604925E-16));
#655 = ORIENTED_EDGE('',*,*,#656,.F.);
#656 = EDGE_CURVE('',#331,#649,#657,.T.);
#657 = LINE('',#658,#659);
#658 = CARTESIAN_POINT('',(4.999999999997E-02,91.499166435057,
    -1.986188682488E-15));
#659 = VECTOR('',#660,1.);
#660 = DIRECTION('',(-1.110223024625E-15,1.33226762955E-15,1.));
#661 = PLANE('',#662);
#662 = AXIS2_PLACEMENT_3D('',#663,#664,#665);
#663 = CARTESIAN_POINT('',(4.999999999997E-02,100.,-9.));
#664 = DIRECTION('',(1.,3.330669073875E-16,2.22044604925E-16));
#665 = DIRECTION('',(3.330669073875E-16,-1.,6.162975822039E-32));
#666 = ADVANCED_FACE('',(#667),#711,.F.);
#667 = FACE_BOUND('',#668,.T.);
#668 = EDGE_LOOP('',(#669,#678,#686,#693,#694,#695,#703,#710));
#669 = ORIENTED_EDGE('',*,*,#670,.T.);
#670 = EDGE_CURVE('',#671,#671,#673,.T.);
#671 = VERTEX_POINT('',#672);
#672 = CARTESIAN_POINT('',(-1.986409437104E-13,91.5,-5.5));
#673 = CIRCLE('',#674,1.5);
#674 = AXIS2_PLACEMENT_3D('',#675,#676,#677);
#675 = CARTESIAN_POINT('',(-2.204568261443E-13,90.,-5.5));
#676 = DIRECTION('',(-2.331468351713E-15,-2.22044604925E-16,1.));
#677 = DIRECTION('',(-5.14403334743E-15,1.,2.22044604925E-16));
#678 = ORIENTED_EDGE('',*,*,#679,.T.);
#679 = EDGE_CURVE('',#671,#680,#682,.T.);
#680 = VERTEX_POINT('',#681);
#681 = CARTESIAN_POINT('',(-2.053577930093E-13,91.5,-8.75));
#682 = LINE('',#683,#684);
#683 = CARTESIAN_POINT('',(-3.350318422856E-13,91.5,1.219024881038E-13)
  );
#684 = VECTOR('',#685,1.);
#685 = DIRECTION('',(-4.440892098501E-16,-2.886579864025E-15,-1.));
#686 = ORIENTED_EDGE('',*,*,#687,.F.);
#687 = EDGE_CURVE('',#649,#680,#688,.T.);
#688 = CIRCLE('',#689,1.5);
#689 = AXIS2_PLACEMENT_3D('',#690,#691,#692);
#690 = CARTESIAN_POINT('',(-1.999177001887E-13,90.,-8.75));
#691 = DIRECTION('',(-1.110223024625E-15,1.33226762955E-15,1.));
#692 = DIRECTION('',(-2.331468351713E-15,1.,-1.33226762955E-15));
#693 = ORIENTED_EDGE('',*,*,#656,.F.);
#694 = ORIENTED_EDGE('',*,*,#330,.T.);
#695 = ORIENTED_EDGE('',*,*,#696,.T.);
#696 = EDGE_CURVE('',#323,#697,#699,.T.);
#697 = VERTEX_POINT('',#698);
#698 = CARTESIAN_POINT('',(-5.000000000003E-02,91.499166435056,-8.75));
#699 = LINE('',#700,#701);
#700 = CARTESIAN_POINT('',(-5.000000000003E-02,91.499166435057,
    -2.00839314298E-15));
#701 = VECTOR('',#702,1.);
#702 = DIRECTION('',(-1.110223024625E-15,1.33226762955E-15,1.));
#703 = ORIENTED_EDGE('',*,*,#704,.F.);
#704 = EDGE_CURVE('',#680,#697,#705,.T.);
#705 = CIRCLE('',#706,1.5);
#706 = AXIS2_PLACEMENT_3D('',#707,#708,#709);
#707 = CARTESIAN_POINT('',(-1.999177001887E-13,90.,-8.75));
#708 = DIRECTION('',(-1.110223024625E-15,1.33226762955E-15,1.));
#709 = DIRECTION('',(-2.331468351713E-15,1.,-1.33226762955E-15));
#710 = ORIENTED_EDGE('',*,*,#679,.F.);
#711 = CYLINDRICAL_SURFACE('',#712,1.5);
#712 = AXIS2_PLACEMENT_3D('',#713,#714,#715);
#713 = CARTESIAN_POINT('',(-3.295362383137E-13,90.,1.199040866595E-13));
#714 = DIRECTION('',(2.22044604925E-16,2.6645352591E-15,1.));
#715 = DIRECTION('',(-3.663735981263E-15,1.,1.33226762955E-15));
#716 = ADVANCED_FACE('',(#717),#728,.F.);
#717 = FACE_BOUND('',#718,.F.);
#718 = EDGE_LOOP('',(#719,#720,#721,#727));
#719 = ORIENTED_EDGE('',*,*,#322,.F.);
#720 = ORIENTED_EDGE('',*,*,#696,.T.);
#721 = ORIENTED_EDGE('',*,*,#722,.T.);
#722 = EDGE_CURVE('',#697,#614,#723,.T.);
#723 = LINE('',#724,#725);
#724 = CARTESIAN_POINT('',(-5.000000000005E-02,90.,-8.75));
#725 = VECTOR('',#726,1.);
#726 = DIRECTION('',(-5.551115123126E-16,1.,2.22044604925E-16));
#727 = ORIENTED_EDGE('',*,*,#613,.F.);
#728 = PLANE('',#729);
#729 = AXIS2_PLACEMENT_3D('',#730,#731,#732);
#730 = CARTESIAN_POINT('',(-5.000000000003E-02,90.,-9.));
#731 = DIRECTION('',(-1.,-3.330669073875E-16,-2.22044604925E-16));
#732 = DIRECTION('',(-3.330669073875E-16,1.,-6.162975822039E-32));
#733 = ADVANCED_FACE('',(#734),#745,.F.);
#734 = FACE_BOUND('',#735,.F.);
#735 = EDGE_LOOP('',(#736,#737,#738,#739));
#736 = ORIENTED_EDGE('',*,*,#559,.T.);
#737 = ORIENTED_EDGE('',*,*,#305,.T.);
#738 = ORIENTED_EDGE('',*,*,#606,.F.);
#739 = ORIENTED_EDGE('',*,*,#740,.F.);
#740 = EDGE_CURVE('',#540,#598,#741,.T.);
#741 = LINE('',#742,#743);
#742 = CARTESIAN_POINT('',(-7.,4.140092820663E-15,-2.797762022055E-14));
#743 = VECTOR('',#744,1.);
#744 = DIRECTION('',(-3.885780586188E-15,1.,1.554312234475E-15));
#745 = PLANE('',#746);
#746 = AXIS2_PLACEMENT_3D('',#747,#748,#749);
#747 = CARTESIAN_POINT('',(-7.,2.585780586188E-15,-2.642330798608E-14));
#748 = DIRECTION('',(1.,-3.330669073875E-16,3.552713678801E-15));
#749 = DIRECTION('',(-3.663735981263E-15,1.,1.33226762955E-15));
#750 = ADVANCED_FACE('',(#751,#756),#767,.T.);
#751 = FACE_BOUND('',#752,.T.);
#752 = EDGE_LOOP('',(#753,#754,#755));
#753 = ORIENTED_EDGE('',*,*,#521,.T.);
#754 = ORIENTED_EDGE('',*,*,#473,.T.);
#755 = ORIENTED_EDGE('',*,*,#497,.T.);
#756 = FACE_BOUND('',#757,.T.);
#757 = EDGE_LOOP('',(#758));
#758 = ORIENTED_EDGE('',*,*,#759,.T.);
#759 = EDGE_CURVE('',#760,#760,#762,.T.);
#760 = VERTEX_POINT('',#761);
#761 = CARTESIAN_POINT('',(-2.22044604925E-16,2.,-5.));
#762 = CIRCLE('',#763,2.);
#763 = AXIS2_PLACEMENT_3D('',#764,#765,#766);
#764 = CARTESIAN_POINT('',(3.330669073875E-15,-8.881784197001E-15,-5.));
#765 = DIRECTION('',(-1.998401444325E-15,4.440892098501E-16,1.));
#766 = DIRECTION('',(-2.775557561563E-15,1.,-4.440892098501E-16));
#767 = PLANE('',#768);
#768 = AXIS2_PLACEMENT_3D('',#769,#770,#771);
#769 = CARTESIAN_POINT('',(-1.054711873394E-15,-7.081101255619E-15,-5.)
  );
#770 = DIRECTION('',(-2.22044604925E-16,-1.33226762955E-15,-1.));
#771 = DIRECTION('',(1.,-3.330669073875E-16,1.7763568394E-15));
#772 = ADVANCED_FACE('',(#773,#808,#814,#825,#861),#897,.F.);
#773 = FACE_BOUND('',#774,.F.);
#774 = EDGE_LOOP('',(#775,#785,#794,#802));
#775 = ORIENTED_EDGE('',*,*,#776,.F.);
#776 = EDGE_CURVE('',#777,#779,#781,.T.);
#777 = VERTEX_POINT('',#778);
#778 = CARTESIAN_POINT('',(-0.5,4.522444029504,-1.221245327088E-15));
#779 = VERTEX_POINT('',#780);
#780 = CARTESIAN_POINT('',(-0.5,5.019017292822,-8.881784197001E-16));
#781 = LINE('',#782,#783);
#782 = CARTESIAN_POINT('',(-0.5,4.019017292822,3.018715602845E-15));
#783 = VECTOR('',#784,1.);
#784 = DIRECTION('',(-2.775557561563E-15,1.,1.110223024625E-15));
#785 = ORIENTED_EDGE('',*,*,#786,.F.);
#786 = EDGE_CURVE('',#787,#777,#789,.T.);
#787 = VERTEX_POINT('',#788);
#788 = CARTESIAN_POINT('',(0.5,4.522444029504,1.165734175856E-15));
#789 = CIRCLE('',#790,4.55);
#790 = AXIS2_PLACEMENT_3D('',#791,#792,#793);
#791 = CARTESIAN_POINT('',(6.008919732954E-14,6.165713243029E-44,
    1.601097849756E-28));
#792 = DIRECTION('',(2.6645352591E-15,2.22044604925E-16,-1.));
#793 = DIRECTION('',(0.123456790123,0.992349948845,5.493009225979E-16));
#794 = ORIENTED_EDGE('',*,*,#795,.F.);
#795 = EDGE_CURVE('',#796,#787,#798,.T.);
#796 = VERTEX_POINT('',#797);
#797 = CARTESIAN_POINT('',(0.5,5.019017292822,8.881784197001E-16));
#798 = LINE('',#799,#800);
#799 = CARTESIAN_POINT('',(0.5,5.019017292822,7.015518491495E-15));
#800 = VECTOR('',#801,1.);
#801 = DIRECTION('',(2.775557561563E-15,-1.,-1.110223024625E-15));
#802 = ORIENTED_EDGE('',*,*,#803,.F.);
#803 = EDGE_CURVE('',#779,#796,#804,.T.);
#804 = LINE('',#805,#806);
#805 = CARTESIAN_POINT('',(-0.5,5.019017292822,4.12893862747E-15));
#806 = VECTOR('',#807,1.);
#807 = DIRECTION('',(1.,-5.551115123126E-16,2.886579864025E-15));
#808 = FACE_BOUND('',#809,.F.);
#809 = EDGE_LOOP('',(#810,#811,#812,#813));
#810 = ORIENTED_EDGE('',*,*,#537,.T.);
#811 = ORIENTED_EDGE('',*,*,#740,.T.);
#812 = ORIENTED_EDGE('',*,*,#597,.T.);
#813 = ORIENTED_EDGE('',*,*,#583,.F.);
#814 = FACE_BOUND('',#815,.F.);
#815 = EDGE_LOOP('',(#816));
#816 = ORIENTED_EDGE('',*,*,#817,.F.);
#817 = EDGE_CURVE('',#818,#818,#820,.T.);
#818 = VERTEX_POINT('',#819);
#819 = CARTESIAN_POINT('',(-1.858513343223E-13,93.,-1.894498767695E-28)
  );
#820 = CIRCLE('',#821,3.);
#821 = AXIS2_PLACEMENT_3D('',#822,#823,#824);
#822 = CARTESIAN_POINT('',(-2.997602166488E-13,90.,1.199040866595E-13));
#823 = DIRECTION('',(3.441691376338E-15,1.33226762955E-15,-1.));
#824 = DIRECTION('',(-3.330669073875E-15,1.,1.33226762955E-15));
#825 = FACE_BOUND('',#826,.F.);
#826 = EDGE_LOOP('',(#827,#838,#846,#855));
#827 = ORIENTED_EDGE('',*,*,#828,.F.);
#828 = EDGE_CURVE('',#829,#831,#833,.T.);
#829 = VERTEX_POINT('',#830);
#830 = CARTESIAN_POINT('',(5.2,51.7,1.270095140171E-14));
#831 = VERTEX_POINT('',#832);
#832 = CARTESIAN_POINT('',(-5.2,51.7,-1.270095140171E-14));
#833 = CIRCLE('',#834,5.2);
#834 = AXIS2_PLACEMENT_3D('',#835,#836,#837);
#835 = CARTESIAN_POINT('',(-2.007948563059E-13,51.7,8.035794252237E-14)
  );
#836 = DIRECTION('',(3.996802888651E-15,1.554312234475E-15,-1.));
#837 = DIRECTION('',(-3.885780586188E-15,1.,1.554312234475E-15));
#838 = ORIENTED_EDGE('',*,*,#839,.T.);
#839 = EDGE_CURVE('',#829,#840,#842,.T.);
#840 = VERTEX_POINT('',#841);
#841 = CARTESIAN_POINT('',(5.2,77.8,1.270095140171E-14));
#842 = LINE('',#843,#844);
#843 = CARTESIAN_POINT('',(5.2,51.7,1.011413175434E-13));
#844 = VECTOR('',#845,1.);
#845 = DIRECTION('',(-3.885780586188E-15,1.,1.554312234475E-15));
#846 = ORIENTED_EDGE('',*,*,#847,.F.);
#847 = EDGE_CURVE('',#848,#840,#850,.T.);
#848 = VERTEX_POINT('',#849);
#849 = CARTESIAN_POINT('',(-5.2,77.8,-1.270095140171E-14));
#850 = CIRCLE('',#851,5.2);
#851 = AXIS2_PLACEMENT_3D('',#852,#853,#854);
#852 = CARTESIAN_POINT('',(-3.023137296054E-13,77.8,1.209254918422E-13)
  );
#853 = DIRECTION('',(3.996802888651E-15,1.554312234475E-15,-1.));
#854 = DIRECTION('',(-3.885780586188E-15,1.,1.554312234475E-15));
#855 = ORIENTED_EDGE('',*,*,#856,.F.);
#856 = EDGE_CURVE('',#831,#848,#857,.T.);
#857 = LINE('',#858,#859);
#858 = CARTESIAN_POINT('',(-5.2,51.7,5.957456750139E-14));
#859 = VECTOR('',#860,1.);
#860 = DIRECTION('',(-3.885780586188E-15,1.,1.554312234475E-15));
#861 = FACE_BOUND('',#862,.F.);
#862 = EDGE_LOOP('',(#863,#874,#882,#891));
#863 = ORIENTED_EDGE('',*,*,#864,.F.);
#864 = EDGE_CURVE('',#865,#867,#869,.T.);
#865 = VERTEX_POINT('',#866);
#866 = CARTESIAN_POINT('',(5.2,14.2,1.270095140171E-14));
#867 = VERTEX_POINT('',#868);
#868 = CARTESIAN_POINT('',(-5.2,14.2,-1.270095140171E-14));
#869 = CIRCLE('',#870,5.2);
#870 = AXIS2_PLACEMENT_3D('',#871,#872,#873);
#871 = CARTESIAN_POINT('',(-5.517808432387E-14,14.2,2.207123372955E-14)
  );
#872 = DIRECTION('',(3.996802888651E-15,1.554312234475E-15,-1.));
#873 = DIRECTION('',(-3.885780586188E-15,1.,1.554312234475E-15));
#874 = ORIENTED_EDGE('',*,*,#875,.T.);
#875 = EDGE_CURVE('',#865,#876,#878,.T.);
#876 = VERTEX_POINT('',#877);
#877 = CARTESIAN_POINT('',(5.2,38.3,1.270095140171E-14));
#878 = LINE('',#879,#880);
#879 = CARTESIAN_POINT('',(5.2,14.2,4.285460875053E-14));
#880 = VECTOR('',#881,1.);
#881 = DIRECTION('',(-3.885780586188E-15,1.,1.554312234475E-15));
#882 = ORIENTED_EDGE('',*,*,#883,.F.);
#883 = EDGE_CURVE('',#884,#876,#886,.T.);
#884 = VERTEX_POINT('',#885);
#885 = CARTESIAN_POINT('',(-5.2,38.3,-1.270095140171E-14));
#886 = CIRCLE('',#887,5.2);
#887 = AXIS2_PLACEMENT_3D('',#888,#889,#890);
#888 = CARTESIAN_POINT('',(-1.48925396451E-13,38.3,5.95301585804E-14));
#889 = DIRECTION('',(3.996802888651E-15,1.554312234475E-15,-1.));
#890 = DIRECTION('',(-3.885780586188E-15,1.,1.554312234475E-15));
#891 = ORIENTED_EDGE('',*,*,#892,.F.);
#892 = EDGE_CURVE('',#867,#884,#893,.T.);
#893 = LINE('',#894,#895);
#894 = CARTESIAN_POINT('',(-5.2,14.2,1.287858708565E-15));
#895 = VECTOR('',#896,1.);
#896 = DIRECTION('',(-3.885780586188E-15,1.,1.554312234475E-15));
#897 = PLANE('',#898);
#898 = AXIS2_PLACEMENT_3D('',#899,#900,#901);
#899 = CARTESIAN_POINT('',(-1.753305880084E-13,45.102947783716,
    7.010406355113E-14));
#900 = DIRECTION('',(-6.661338147751E-16,-3.10862446895E-15,-1.));
#901 = DIRECTION('',(1.,-7.771561172376E-16,3.996802888651E-15));
#902 = ADVANCED_FACE('',(#903),#910,.T.);
#903 = FACE_BOUND('',#904,.T.);
#904 = EDGE_LOOP('',(#905,#906,#907,#908,#909));
#905 = ORIENTED_EDGE('',*,*,#648,.T.);
#906 = ORIENTED_EDGE('',*,*,#687,.T.);
#907 = ORIENTED_EDGE('',*,*,#704,.T.);
#908 = ORIENTED_EDGE('',*,*,#722,.T.);
#909 = ORIENTED_EDGE('',*,*,#621,.F.);
#910 = PLANE('',#911);
#911 = AXIS2_PLACEMENT_3D('',#912,#913,#914);
#912 = CARTESIAN_POINT('',(-2.489675132722E-14,45.,-8.75));
#913 = DIRECTION('',(1.232595164408E-31,-4.440892098501E-16,-1.));
#914 = DIRECTION('',(1.,-1.110223024625E-16,6.661338147751E-16));
#915 = ADVANCED_FACE('',(#916),#935,.F.);
#916 = FACE_BOUND('',#917,.T.);
#917 = EDGE_LOOP('',(#918,#926,#933,#934));
#918 = ORIENTED_EDGE('',*,*,#919,.F.);
#919 = EDGE_CURVE('',#920,#671,#922,.T.);
#920 = VERTEX_POINT('',#921);
#921 = CARTESIAN_POINT('',(-1.993810923934E-13,92.,-5.));
#922 = LINE('',#923,#924);
#923 = CARTESIAN_POINT('',(-2.201792703881E-13,91.5,-5.5));
#924 = VECTOR('',#925,1.);
#925 = DIRECTION('',(1.046728305789E-15,-0.707106781187,-0.707106781187)
  );
#926 = ORIENTED_EDGE('',*,*,#927,.T.);
#927 = EDGE_CURVE('',#920,#920,#928,.T.);
#928 = CIRCLE('',#929,2.);
#929 = AXIS2_PLACEMENT_3D('',#930,#931,#932);
#930 = CARTESIAN_POINT('',(-2.212894934127E-13,90.,-5.));
#931 = DIRECTION('',(-2.331468351713E-15,-2.22044604925E-16,1.));
#932 = DIRECTION('',(-5.14403334743E-15,1.,2.22044604925E-16));
#933 = ORIENTED_EDGE('',*,*,#919,.T.);
#934 = ORIENTED_EDGE('',*,*,#670,.F.);
#935 = CONICAL_SURFACE('',#936,1.5,0.785398163397);
#936 = AXIS2_PLACEMENT_3D('',#937,#938,#939);
#937 = CARTESIAN_POINT('',(-2.204568261443E-13,90.,-5.5));
#938 = DIRECTION('',(-1.665334536938E-15,4.440892098501E-16,1.));
#939 = DIRECTION('',(-5.14403334743E-15,1.,2.22044604925E-16));
#940 = ADVANCED_FACE('',(#941),#960,.F.);
#941 = FACE_BOUND('',#942,.T.);
#942 = EDGE_LOOP('',(#943,#952,#958,#959));
#943 = ORIENTED_EDGE('',*,*,#944,.T.);
#944 = EDGE_CURVE('',#945,#945,#947,.T.);
#945 = VERTEX_POINT('',#946);
#946 = CARTESIAN_POINT('',(-1.33226762955E-15,2.,-3.75));
#947 = CIRCLE('',#948,2.);
#948 = AXIS2_PLACEMENT_3D('',#949,#950,#951);
#949 = CARTESIAN_POINT('',(8.326672684689E-16,-8.326672684689E-15,-3.75)
  );
#950 = DIRECTION('',(-2.886579864025E-15,-4.440892098501E-16,1.));
#951 = DIRECTION('',(-3.219646771413E-15,1.,4.440892098501E-16));
#952 = ORIENTED_EDGE('',*,*,#953,.T.);
#953 = EDGE_CURVE('',#945,#760,#954,.T.);
#954 = LINE('',#955,#956);
#955 = CARTESIAN_POINT('',(-7.327471962526E-15,2.,2.6645352591E-15));
#956 = VECTOR('',#957,1.);
#957 = DIRECTION('',(-4.440892098501E-16,-2.886579864025E-15,-1.));
#958 = ORIENTED_EDGE('',*,*,#759,.F.);
#959 = ORIENTED_EDGE('',*,*,#953,.F.);
#960 = CYLINDRICAL_SURFACE('',#961,2.);
#961 = AXIS2_PLACEMENT_3D('',#962,#963,#964);
#962 = CARTESIAN_POINT('',(0.,0.,0.));
#963 = DIRECTION('',(2.22044604925E-16,2.6645352591E-15,1.));
#964 = DIRECTION('',(-3.663735981263E-15,1.,1.33226762955E-15));
#965 = ADVANCED_FACE('',(#966),#1000,.T.);
#966 = FACE_BOUND('',#967,.T.);
#967 = EDGE_LOOP('',(#968,#978,#986,#992,#993));
#968 = ORIENTED_EDGE('',*,*,#969,.T.);
#969 = EDGE_CURVE('',#970,#972,#974,.T.);
#970 = VERTEX_POINT('',#971);
#971 = CARTESIAN_POINT('',(-0.5,4.019017292822,-0.5));
#972 = VERTEX_POINT('',#973);
#973 = CARTESIAN_POINT('',(-0.5,4.019017292822,-3.75));
#974 = LINE('',#975,#976);
#975 = CARTESIAN_POINT('',(-0.5,4.019017292822,2.237336798336E-15));
#976 = VECTOR('',#977,1.);
#977 = DIRECTION('',(-2.22044604925E-16,-1.998401444325E-15,-1.));
#978 = ORIENTED_EDGE('',*,*,#979,.T.);
#979 = EDGE_CURVE('',#972,#980,#982,.T.);
#980 = VERTEX_POINT('',#981);
#981 = CARTESIAN_POINT('',(-0.5,5.019017292822,-3.75));
#982 = LINE('',#983,#984);
#983 = CARTESIAN_POINT('',(-0.5,4.019017292822,-3.75));
#984 = VECTOR('',#985,1.);
#985 = DIRECTION('',(-2.775557561563E-15,1.,1.110223024625E-15));
#986 = ORIENTED_EDGE('',*,*,#987,.F.);
#987 = EDGE_CURVE('',#779,#980,#988,.T.);
#988 = LINE('',#989,#990);
#989 = CARTESIAN_POINT('',(-0.5,5.019017292822,3.125515218036E-15));
#990 = VECTOR('',#991,1.);
#991 = DIRECTION('',(-2.22044604925E-16,-1.998401444325E-15,-1.));
#992 = ORIENTED_EDGE('',*,*,#776,.F.);
#993 = ORIENTED_EDGE('',*,*,#994,.T.);
#994 = EDGE_CURVE('',#777,#970,#995,.T.);
#995 = HYPERBOLA('',#996,0.5,0.5);
#996 = AXIS2_PLACEMENT_3D('',#997,#998,#999);
#997 = CARTESIAN_POINT('',(-0.5,-2.298161660974E-15,-4.55));
#998 = DIRECTION('',(1.,1.221245327088E-15,1.110223024625E-15));
#999 = DIRECTION('',(-1.110223024625E-15,4.440892098501E-16,1.));
#1000 = PLANE('',#1001);
#1001 = AXIS2_PLACEMENT_3D('',#1002,#1003,#1004);
#1002 = CARTESIAN_POINT('',(-0.5,4.019017292822,2.237336798336E-15));
#1003 = DIRECTION('',(1.,-1.110223024625E-16,2.442490654175E-15));
#1004 = DIRECTION('',(-2.553512956638E-15,1.,8.881784197001E-16));
#1005 = ADVANCED_FACE('',(#1006),#1026,.F.);
#1006 = FACE_BOUND('',#1007,.F.);
#1007 = EDGE_LOOP('',(#1008,#1017,#1018,#1019));
#1008 = ORIENTED_EDGE('',*,*,#1009,.F.);
#1009 = EDGE_CURVE('',#787,#1010,#1012,.T.);
#1010 = VERTEX_POINT('',#1011);
#1011 = CARTESIAN_POINT('',(0.5,4.019017292822,-0.5));
#1012 = HYPERBOLA('',#1013,0.5,0.5);
#1013 = AXIS2_PLACEMENT_3D('',#1014,#1015,#1016);
#1014 = CARTESIAN_POINT('',(0.5,-1.743050148662E-15,-4.55));
#1015 = DIRECTION('',(1.,1.221245327088E-15,1.110223024625E-15));
#1016 = DIRECTION('',(-1.110223024625E-15,4.440892098501E-16,1.));
#1017 = ORIENTED_EDGE('',*,*,#786,.T.);
#1018 = ORIENTED_EDGE('',*,*,#994,.T.);
#1019 = ORIENTED_EDGE('',*,*,#1020,.F.);
#1020 = EDGE_CURVE('',#1010,#970,#1021,.T.);
#1021 = CIRCLE('',#1022,4.05);
#1022 = AXIS2_PLACEMENT_3D('',#1023,#1024,#1025);
#1023 = CARTESIAN_POINT('',(6.10883980517E-14,-2.22044604925E-16,-0.5));
#1024 = DIRECTION('',(2.6645352591E-15,2.22044604925E-16,-1.));
#1025 = DIRECTION('',(0.123456790123,0.992349948845,5.493009225979E-16)
  );
#1026 = CONICAL_SURFACE('',#1027,4.05,0.785398163397);
#1027 = AXIS2_PLACEMENT_3D('',#1028,#1029,#1030);
#1028 = CARTESIAN_POINT('',(6.10883980517E-14,-2.22044604925E-16,-0.5));
#1029 = DIRECTION('',(-1.998401444325E-15,4.440892098501E-16,1.));
#1030 = DIRECTION('',(0.123456790123,0.992349948845,5.493009225979E-16)
  );
#1031 = ADVANCED_FACE('',(#1032),#1050,.T.);
#1032 = FACE_BOUND('',#1033,.T.);
#1033 = EDGE_LOOP('',(#1034,#1035,#1043,#1049));
#1034 = ORIENTED_EDGE('',*,*,#987,.T.);
#1035 = ORIENTED_EDGE('',*,*,#1036,.T.);
#1036 = EDGE_CURVE('',#980,#1037,#1039,.T.);
#1037 = VERTEX_POINT('',#1038);
#1038 = CARTESIAN_POINT('',(0.5,5.019017292822,-3.75));
#1039 = LINE('',#1040,#1041);
#1040 = CARTESIAN_POINT('',(-0.5,5.019017292822,-3.75));
#1041 = VECTOR('',#1042,1.);
#1042 = DIRECTION('',(1.,-5.551115123126E-16,2.886579864025E-15));
#1043 = ORIENTED_EDGE('',*,*,#1044,.F.);
#1044 = EDGE_CURVE('',#796,#1037,#1045,.T.);
#1045 = LINE('',#1046,#1047);
#1046 = CARTESIAN_POINT('',(0.5,5.019017292822,5.790050477136E-15));
#1047 = VECTOR('',#1048,1.);
#1048 = DIRECTION('',(-2.22044604925E-16,-1.998401444325E-15,-1.));
#1049 = ORIENTED_EDGE('',*,*,#803,.F.);
#1050 = PLANE('',#1051);
#1051 = AXIS2_PLACEMENT_3D('',#1052,#1053,#1054);
#1052 = CARTESIAN_POINT('',(-0.5,5.019017292822,3.125515218036E-15));
#1053 = DIRECTION('',(2.331468351713E-15,-1.,-6.661338147751E-16));
#1054 = DIRECTION('',(1.,-3.330669073875E-16,2.6645352591E-15));
#1055 = ADVANCED_FACE('',(#1056),#1075,.T.);
#1056 = FACE_BOUND('',#1057,.T.);
#1057 = EDGE_LOOP('',(#1058,#1066,#1067,#1068,#1069));
#1058 = ORIENTED_EDGE('',*,*,#1059,.F.);
#1059 = EDGE_CURVE('',#1010,#1060,#1062,.T.);
#1060 = VERTEX_POINT('',#1061);
#1061 = CARTESIAN_POINT('',(0.5,4.019017292822,-3.75));
#1062 = LINE('',#1063,#1064);
#1063 = CARTESIAN_POINT('',(0.5,4.019017292822,4.901872057436E-15));
#1064 = VECTOR('',#1065,1.);
#1065 = DIRECTION('',(-2.22044604925E-16,-1.998401444325E-15,-1.));
#1066 = ORIENTED_EDGE('',*,*,#1009,.F.);
#1067 = ORIENTED_EDGE('',*,*,#795,.F.);
#1068 = ORIENTED_EDGE('',*,*,#1044,.T.);
#1069 = ORIENTED_EDGE('',*,*,#1070,.T.);
#1070 = EDGE_CURVE('',#1037,#1060,#1071,.T.);
#1071 = LINE('',#1072,#1073);
#1072 = CARTESIAN_POINT('',(0.5,5.019017292822,-3.75));
#1073 = VECTOR('',#1074,1.);
#1074 = DIRECTION('',(2.775557561563E-15,-1.,-1.110223024625E-15));
#1075 = PLANE('',#1076);
#1076 = AXIS2_PLACEMENT_3D('',#1077,#1078,#1079);
#1077 = CARTESIAN_POINT('',(0.5,5.019017292822,5.790050477136E-15));
#1078 = DIRECTION('',(-1.,1.110223024625E-16,-2.442490654175E-15));
#1079 = DIRECTION('',(2.553512956638E-15,-1.,-8.881784197001E-16));
#1080 = ADVANCED_FACE('',(#1081),#1100,.F.);
#1081 = FACE_BOUND('',#1082,.T.);
#1082 = EDGE_LOOP('',(#1083,#1091,#1098,#1099));
#1083 = ORIENTED_EDGE('',*,*,#1084,.T.);
#1084 = EDGE_CURVE('',#818,#1085,#1087,.T.);
#1085 = VERTEX_POINT('',#1086);
#1086 = CARTESIAN_POINT('',(-1.819655537361E-13,93.,-5.));
#1087 = LINE('',#1088,#1089);
#1088 = CARTESIAN_POINT('',(-2.891020756124E-13,93.,1.032507412901E-13)
  );
#1089 = VECTOR('',#1090,1.);
#1090 = DIRECTION('',(-3.330669073875E-16,-2.442490654175E-15,-1.));
#1091 = ORIENTED_EDGE('',*,*,#1092,.T.);
#1092 = EDGE_CURVE('',#1085,#1085,#1093,.T.);
#1093 = CIRCLE('',#1094,3.);
#1094 = AXIS2_PLACEMENT_3D('',#1095,#1096,#1097);
#1095 = CARTESIAN_POINT('',(-3.170796958329E-13,90.,-5.));
#1096 = DIRECTION('',(3.441691376338E-15,1.33226762955E-15,-1.));
#1097 = DIRECTION('',(-3.330669073875E-15,1.,1.33226762955E-15));
#1098 = ORIENTED_EDGE('',*,*,#1084,.F.);
#1099 = ORIENTED_EDGE('',*,*,#817,.F.);
#1100 = CYLINDRICAL_SURFACE('',#1101,3.);
#1101 = AXIS2_PLACEMENT_3D('',#1102,#1103,#1104);
#1102 = CARTESIAN_POINT('',(-2.797762022055E-13,90.,9.992007221626E-14)
  );
#1103 = DIRECTION('',(1.110223024625E-16,2.22044604925E-15,1.));
#1104 = DIRECTION('',(-3.10862446895E-15,1.,1.110223024625E-15));
#1105 = ADVANCED_FACE('',(#1106),#1132,.F.);
#1106 = FACE_BOUND('',#1107,.T.);
#1107 = EDGE_LOOP('',(#1108,#1109,#1117,#1126));
#1108 = ORIENTED_EDGE('',*,*,#828,.F.);
#1109 = ORIENTED_EDGE('',*,*,#1110,.T.);
#1110 = EDGE_CURVE('',#829,#1111,#1113,.T.);
#1111 = VERTEX_POINT('',#1112);
#1112 = CARTESIAN_POINT('',(5.2,51.7,-7.5));
#1113 = LINE('',#1114,#1115);
#1114 = CARTESIAN_POINT('',(5.2,51.7,8.850697952312E-14));
#1115 = VECTOR('',#1116,1.);
#1116 = DIRECTION('',(-4.440892098501E-16,-2.886579864025E-15,-1.));
#1117 = ORIENTED_EDGE('',*,*,#1118,.T.);
#1118 = EDGE_CURVE('',#1111,#1119,#1121,.T.);
#1119 = VERTEX_POINT('',#1120);
#1120 = CARTESIAN_POINT('',(-5.2,51.7,-7.5));
#1121 = CIRCLE('',#1122,5.2);
#1122 = AXIS2_PLACEMENT_3D('',#1123,#1124,#1125);
#1123 = CARTESIAN_POINT('',(-2.300382107023E-13,51.7,-7.5));
#1124 = DIRECTION('',(3.996802888651E-15,1.554312234475E-15,-1.));
#1125 = DIRECTION('',(-3.885780586188E-15,1.,1.554312234475E-15));
#1126 = ORIENTED_EDGE('',*,*,#1127,.F.);
#1127 = EDGE_CURVE('',#831,#1119,#1128,.T.);
#1128 = LINE('',#1129,#1130);
#1129 = CARTESIAN_POINT('',(-5.2,51.7,4.924949337237E-14));
#1130 = VECTOR('',#1131,1.);
#1131 = DIRECTION('',(-4.440892098501E-16,-2.886579864025E-15,-1.));
#1132 = CYLINDRICAL_SURFACE('',#1133,5.2);
#1133 = AXIS2_PLACEMENT_3D('',#1134,#1135,#1136);
#1134 = CARTESIAN_POINT('',(-1.893151502313E-13,51.7,6.887823644774E-14)
  );
#1135 = DIRECTION('',(2.22044604925E-16,2.6645352591E-15,1.));
#1136 = DIRECTION('',(-3.663735981263E-15,1.,1.33226762955E-15));
#1137 = ADVANCED_FACE('',(#1138),#1156,.F.);
#1138 = FACE_BOUND('',#1139,.F.);
#1139 = EDGE_LOOP('',(#1140,#1141,#1142,#1150));
#1140 = ORIENTED_EDGE('',*,*,#839,.F.);
#1141 = ORIENTED_EDGE('',*,*,#1110,.T.);
#1142 = ORIENTED_EDGE('',*,*,#1143,.T.);
#1143 = EDGE_CURVE('',#1111,#1144,#1146,.T.);
#1144 = VERTEX_POINT('',#1145);
#1145 = CARTESIAN_POINT('',(5.2,77.8,-7.5));
#1146 = LINE('',#1147,#1148);
#1147 = CARTESIAN_POINT('',(5.2,51.7,-7.5));
#1148 = VECTOR('',#1149,1.);
#1149 = DIRECTION('',(-3.885780586188E-15,1.,1.554312234475E-15));
#1150 = ORIENTED_EDGE('',*,*,#1151,.F.);
#1151 = EDGE_CURVE('',#840,#1144,#1152,.T.);
#1152 = LINE('',#1153,#1154);
#1153 = CARTESIAN_POINT('',(5.2,77.8,1.232791646544E-13));
#1154 = VECTOR('',#1155,1.);
#1155 = DIRECTION('',(-4.440892098501E-16,-2.886579864025E-15,-1.));
#1156 = PLANE('',#1157);
#1157 = AXIS2_PLACEMENT_3D('',#1158,#1159,#1160);
#1158 = CARTESIAN_POINT('',(5.2,51.7,8.850697952312E-14));
#1159 = DIRECTION('',(1.,-3.330669073875E-16,3.552713678801E-15));
#1160 = DIRECTION('',(-3.663735981263E-15,1.,1.33226762955E-15));
#1161 = ADVANCED_FACE('',(#1162),#1180,.T.);
#1162 = FACE_BOUND('',#1163,.T.);
#1163 = EDGE_LOOP('',(#1164,#1165,#1166,#1174));
#1164 = ORIENTED_EDGE('',*,*,#856,.F.);
#1165 = ORIENTED_EDGE('',*,*,#1127,.T.);
#1166 = ORIENTED_EDGE('',*,*,#1167,.T.);
#1167 = EDGE_CURVE('',#1119,#1168,#1170,.T.);
#1168 = VERTEX_POINT('',#1169);
#1169 = CARTESIAN_POINT('',(-5.2,77.8,-7.5));
#1170 = LINE('',#1171,#1172);
#1171 = CARTESIAN_POINT('',(-5.2,51.7,-7.5));
#1172 = VECTOR('',#1173,1.);
#1173 = DIRECTION('',(-3.885780586188E-15,1.,1.554312234475E-15));
#1174 = ORIENTED_EDGE('',*,*,#1175,.F.);
#1175 = EDGE_CURVE('',#848,#1168,#1176,.T.);
#1176 = LINE('',#1177,#1178);
#1177 = CARTESIAN_POINT('',(-5.2,77.8,8.402167850363E-14));
#1178 = VECTOR('',#1179,1.);
#1179 = DIRECTION('',(-4.440892098501E-16,-2.886579864025E-15,-1.));
#1180 = PLANE('',#1181);
#1181 = AXIS2_PLACEMENT_3D('',#1182,#1183,#1184);
#1182 = CARTESIAN_POINT('',(-5.2,51.7,4.924949337237E-14));
#1183 = DIRECTION('',(1.,-3.330669073875E-16,3.552713678801E-15));
#1184 = DIRECTION('',(-3.663735981263E-15,1.,1.33226762955E-15));
#1185 = ADVANCED_FACE('',(#1186),#1198,.F.);
#1186 = FACE_BOUND('',#1187,.T.);
#1187 = EDGE_LOOP('',(#1188,#1189,#1190,#1197));
#1188 = ORIENTED_EDGE('',*,*,#847,.F.);
#1189 = ORIENTED_EDGE('',*,*,#1175,.T.);
#1190 = ORIENTED_EDGE('',*,*,#1191,.T.);
#1191 = EDGE_CURVE('',#1168,#1144,#1192,.T.);
#1192 = CIRCLE('',#1193,5.2);
#1193 = AXIS2_PLACEMENT_3D('',#1194,#1195,#1196);
#1194 = CARTESIAN_POINT('',(-3.321787289678E-13,77.8,-7.5));
#1195 = DIRECTION('',(3.996802888651E-15,1.554312234475E-15,-1.));
#1196 = DIRECTION('',(-3.885780586188E-15,1.,1.554312234475E-15));
#1197 = ORIENTED_EDGE('',*,*,#1151,.F.);
#1198 = CYLINDRICAL_SURFACE('',#1199,5.2);
#1199 = AXIS2_PLACEMENT_3D('',#1200,#1201,#1202);
#1200 = CARTESIAN_POINT('',(-2.850386593423E-13,77.8,1.03650421579E-13)
  );
#1201 = DIRECTION('',(2.22044604925E-16,2.6645352591E-15,1.));
#1202 = DIRECTION('',(-3.663735981263E-15,1.,1.33226762955E-15));
#1203 = ADVANCED_FACE('',(#1204),#1230,.F.);
#1204 = FACE_BOUND('',#1205,.T.);
#1205 = EDGE_LOOP('',(#1206,#1207,#1215,#1224));
#1206 = ORIENTED_EDGE('',*,*,#864,.F.);
#1207 = ORIENTED_EDGE('',*,*,#1208,.T.);
#1208 = EDGE_CURVE('',#865,#1209,#1211,.T.);
#1209 = VERTEX_POINT('',#1210);
#1210 = CARTESIAN_POINT('',(5.2,14.2,-7.5));
#1211 = LINE('',#1212,#1213);
#1212 = CARTESIAN_POINT('',(5.2,14.2,3.854694341499E-14));
#1213 = VECTOR('',#1214,1.);
#1214 = DIRECTION('',(-4.440892098501E-16,-2.886579864025E-15,-1.));
#1215 = ORIENTED_EDGE('',*,*,#1216,.T.);
#1216 = EDGE_CURVE('',#1209,#1217,#1219,.T.);
#1217 = VERTEX_POINT('',#1218);
#1218 = CARTESIAN_POINT('',(-5.2,14.2,-7.5));
#1219 = CIRCLE('',#1220,5.2);
#1220 = AXIS2_PLACEMENT_3D('',#1221,#1222,#1223);
#1221 = CARTESIAN_POINT('',(-8.526512829121E-14,14.2,-7.5));
#1222 = DIRECTION('',(3.996802888651E-15,1.554312234475E-15,-1.));
#1223 = DIRECTION('',(-3.885780586188E-15,1.,1.554312234475E-15));
#1224 = ORIENTED_EDGE('',*,*,#1225,.F.);
#1225 = EDGE_CURVE('',#867,#1217,#1226,.T.);
#1226 = LINE('',#1227,#1228);
#1227 = CARTESIAN_POINT('',(-5.2,14.2,-7.105427357602E-16));
#1228 = VECTOR('',#1229,1.);
#1229 = DIRECTION('',(-4.440892098501E-16,-2.886579864025E-15,-1.));
#1230 = CYLINDRICAL_SURFACE('',#1231,5.2);
#1231 = AXIS2_PLACEMENT_3D('',#1232,#1233,#1234);
#1232 = CARTESIAN_POINT('',(-5.202505093394E-14,14.2,1.891820033961E-14)
  );
#1233 = DIRECTION('',(2.22044604925E-16,2.6645352591E-15,1.));
#1234 = DIRECTION('',(-3.663735981263E-15,1.,1.33226762955E-15));
#1235 = ADVANCED_FACE('',(#1236),#1254,.F.);
#1236 = FACE_BOUND('',#1237,.F.);
#1237 = EDGE_LOOP('',(#1238,#1239,#1240,#1248));
#1238 = ORIENTED_EDGE('',*,*,#875,.F.);
#1239 = ORIENTED_EDGE('',*,*,#1208,.T.);
#1240 = ORIENTED_EDGE('',*,*,#1241,.T.);
#1241 = EDGE_CURVE('',#1209,#1242,#1244,.T.);
#1242 = VERTEX_POINT('',#1243);
#1243 = CARTESIAN_POINT('',(5.2,38.3,-7.5));
#1244 = LINE('',#1245,#1246);
#1245 = CARTESIAN_POINT('',(5.2,14.2,-7.5));
#1246 = VECTOR('',#1247,1.);
#1247 = DIRECTION('',(-3.885780586188E-15,1.,1.554312234475E-15));
#1248 = ORIENTED_EDGE('',*,*,#1249,.F.);
#1249 = EDGE_CURVE('',#876,#1242,#1250,.T.);
#1250 = LINE('',#1251,#1252);
#1251 = CARTESIAN_POINT('',(5.2,38.3,7.065459328714E-14));
#1252 = VECTOR('',#1253,1.);
#1253 = DIRECTION('',(-4.440892098501E-16,-2.886579864025E-15,-1.));
#1254 = PLANE('',#1255);
#1255 = AXIS2_PLACEMENT_3D('',#1256,#1257,#1258);
#1256 = CARTESIAN_POINT('',(5.2,14.2,3.854694341499E-14));
#1257 = DIRECTION('',(1.,-3.330669073875E-16,3.552713678801E-15));
#1258 = DIRECTION('',(-3.663735981263E-15,1.,1.33226762955E-15));
#1259 = ADVANCED_FACE('',(#1260),#1278,.T.);
#1260 = FACE_BOUND('',#1261,.T.);
#1261 = EDGE_LOOP('',(#1262,#1263,#1264,#1272));
#1262 = ORIENTED_EDGE('',*,*,#892,.F.);
#1263 = ORIENTED_EDGE('',*,*,#1225,.T.);
#1264 = ORIENTED_EDGE('',*,*,#1265,.T.);
#1265 = EDGE_CURVE('',#1217,#1266,#1268,.T.);
#1266 = VERTEX_POINT('',#1267);
#1267 = CARTESIAN_POINT('',(-5.2,38.3,-7.5));
#1268 = LINE('',#1269,#1270);
#1269 = CARTESIAN_POINT('',(-5.2,14.2,-7.5));
#1270 = VECTOR('',#1271,1.);
#1271 = DIRECTION('',(-3.885780586188E-15,1.,1.554312234475E-15));
#1272 = ORIENTED_EDGE('',*,*,#1273,.F.);
#1273 = EDGE_CURVE('',#884,#1266,#1274,.T.);
#1274 = LINE('',#1275,#1276);
#1275 = CARTESIAN_POINT('',(-5.2,38.3,3.13971071364E-14));
#1276 = VECTOR('',#1277,1.);
#1277 = DIRECTION('',(-4.440892098501E-16,-2.886579864025E-15,-1.));
#1278 = PLANE('',#1279);
#1279 = AXIS2_PLACEMENT_3D('',#1280,#1281,#1282);
#1280 = CARTESIAN_POINT('',(-5.2,14.2,-7.105427357602E-16));
#1281 = DIRECTION('',(1.,-3.330669073875E-16,3.552713678801E-15));
#1282 = DIRECTION('',(-3.663735981263E-15,1.,1.33226762955E-15));
#1283 = ADVANCED_FACE('',(#1284),#1296,.F.);
#1284 = FACE_BOUND('',#1285,.T.);
#1285 = EDGE_LOOP('',(#1286,#1287,#1288,#1295));
#1286 = ORIENTED_EDGE('',*,*,#883,.F.);
#1287 = ORIENTED_EDGE('',*,*,#1273,.T.);
#1288 = ORIENTED_EDGE('',*,*,#1289,.T.);
#1289 = EDGE_CURVE('',#1266,#1242,#1290,.T.);
#1290 = CIRCLE('',#1291,5.2);
#1291 = AXIS2_PLACEMENT_3D('',#1292,#1293,#1294);
#1292 = CARTESIAN_POINT('',(-1.785238623597E-13,38.3,-7.5));
#1293 = DIRECTION('',(3.996802888651E-15,1.554312234475E-15,-1.));
#1294 = DIRECTION('',(-3.885780586188E-15,1.,1.554312234475E-15));
#1295 = ORIENTED_EDGE('',*,*,#1249,.F.);
#1296 = CYLINDRICAL_SURFACE('',#1297,5.2);
#1297 = AXIS2_PLACEMENT_3D('',#1298,#1299,#1300);
#1298 = CARTESIAN_POINT('',(-1.404210880824E-13,38.3,5.102585021177E-14)
  );
#1299 = DIRECTION('',(2.22044604925E-16,2.6645352591E-15,1.));
#1300 = DIRECTION('',(-3.663735981263E-15,1.,1.33226762955E-15));
#1301 = ADVANCED_FACE('',(#1302,#1305),#1308,.F.);
#1302 = FACE_BOUND('',#1303,.F.);
#1303 = EDGE_LOOP('',(#1304));
#1304 = ORIENTED_EDGE('',*,*,#927,.T.);
#1305 = FACE_BOUND('',#1306,.F.);
#1306 = EDGE_LOOP('',(#1307));
#1307 = ORIENTED_EDGE('',*,*,#1092,.T.);
#1308 = PLANE('',#1309);
#1309 = AXIS2_PLACEMENT_3D('',#1310,#1311,#1312);
#1310 = CARTESIAN_POINT('',(-3.161915174132E-13,90.,-5.));
#1311 = DIRECTION('',(-5.551115123126E-16,-2.6645352591E-15,-1.));
#1312 = DIRECTION('',(1.,-6.661338147751E-16,3.441691376338E-15));
#1313 = ADVANCED_FACE('',(#1314,#1326),#1329,.F.);
#1314 = FACE_BOUND('',#1315,.F.);
#1315 = EDGE_LOOP('',(#1316,#1323,#1324,#1325));
#1316 = ORIENTED_EDGE('',*,*,#1317,.T.);
#1317 = EDGE_CURVE('',#1060,#972,#1318,.T.);
#1318 = CIRCLE('',#1319,4.05);
#1319 = AXIS2_PLACEMENT_3D('',#1320,#1321,#1322);
#1320 = CARTESIAN_POINT('',(-9.769962616701E-15,-4.163336342344E-15,
    -3.75));
#1321 = DIRECTION('',(2.886579864025E-15,1.110223024625E-15,-1.));
#1322 = DIRECTION('',(-2.775557561563E-15,1.,1.110223024625E-15));
#1323 = ORIENTED_EDGE('',*,*,#979,.T.);
#1324 = ORIENTED_EDGE('',*,*,#1036,.T.);
#1325 = ORIENTED_EDGE('',*,*,#1070,.T.);
#1326 = FACE_BOUND('',#1327,.F.);
#1327 = EDGE_LOOP('',(#1328));
#1328 = ORIENTED_EDGE('',*,*,#944,.T.);
#1329 = PLANE('',#1330);
#1330 = AXIS2_PLACEMENT_3D('',#1331,#1332,#1333);
#1331 = CARTESIAN_POINT('',(-1.110223024625E-14,0.505373907839,-3.75));
#1332 = DIRECTION('',(-4.440892098501E-16,-2.22044604925E-15,-1.));
#1333 = DIRECTION('',(1.,-5.551115123126E-16,2.886579864025E-15));
#1334 = ADVANCED_FACE('',(#1335),#1341,.F.);
#1335 = FACE_BOUND('',#1336,.T.);
#1336 = EDGE_LOOP('',(#1337,#1338,#1339,#1340));
#1337 = ORIENTED_EDGE('',*,*,#1059,.T.);
#1338 = ORIENTED_EDGE('',*,*,#1317,.T.);
#1339 = ORIENTED_EDGE('',*,*,#969,.F.);
#1340 = ORIENTED_EDGE('',*,*,#1020,.F.);
#1341 = CYLINDRICAL_SURFACE('',#1342,4.05);
#1342 = AXIS2_PLACEMENT_3D('',#1343,#1344,#1345);
#1343 = CARTESIAN_POINT('',(0.,0.,0.));
#1344 = DIRECTION('',(-2.021456069629E-30,1.7763568394E-15,1.));
#1345 = DIRECTION('',(-2.553512956638E-15,1.,8.881784197001E-16));
#1346 = ADVANCED_FACE('',(#1347),#1353,.F.);
#1347 = FACE_BOUND('',#1348,.T.);
#1348 = EDGE_LOOP('',(#1349,#1350,#1351,#1352));
#1349 = ORIENTED_EDGE('',*,*,#1118,.F.);
#1350 = ORIENTED_EDGE('',*,*,#1143,.T.);
#1351 = ORIENTED_EDGE('',*,*,#1191,.F.);
#1352 = ORIENTED_EDGE('',*,*,#1167,.F.);
#1353 = PLANE('',#1354);
#1354 = AXIS2_PLACEMENT_3D('',#1355,#1356,#1357);
#1355 = CARTESIAN_POINT('',(-1.245670233629E-13,45.972972972973,-7.5));
#1356 = DIRECTION('',(1.570016815488E-15,-8.881784197001E-16,-1.));
#1357 = DIRECTION('',(1.,-2.22044604925E-16,2.902284445038E-15));
#1358 = ADVANCED_FACE('',(#1359),#1365,.F.);
#1359 = FACE_BOUND('',#1360,.T.);
#1360 = EDGE_LOOP('',(#1361,#1362,#1363,#1364));
#1361 = ORIENTED_EDGE('',*,*,#1216,.F.);
#1362 = ORIENTED_EDGE('',*,*,#1241,.T.);
#1363 = ORIENTED_EDGE('',*,*,#1289,.F.);
#1364 = ORIENTED_EDGE('',*,*,#1265,.F.);
#1365 = PLANE('',#1366);
#1366 = AXIS2_PLACEMENT_3D('',#1367,#1368,#1369);
#1367 = CARTESIAN_POINT('',(-1.245670233629E-13,45.972972972973,-7.5));
#1368 = DIRECTION('',(1.570016815488E-15,-8.881784197001E-16,-1.));
#1369 = DIRECTION('',(1.,-2.22044604925E-16,2.902284445038E-15));
#1370 = ( GEOMETRIC_REPRESENTATION_CONTEXT(3) 
GLOBAL_UNCERTAINTY_ASSIGNED_CONTEXT((#1374)) 
GLOBAL_UNIT_ASSIGNED_CONTEXT((#1371,#1372,#1373)) REPRESENTATION_CONTEXT
('Context #1','3D Context with UNIT and UNCERTAINTY') );
#1371 = ( LENGTH_UNIT() NAMED_UNIT(*) SI_UNIT(.MILLI.,.METRE.) );
#1372 = ( NAMED_UNIT(*) PLANE_ANGLE_UNIT() SI_UNIT($,.RADIAN.) );
#1373 = ( NAMED_UNIT(*) SI_UNIT($,.STERADIAN.) SOLID_ANGLE_UNIT() );
#1374 = UNCERTAINTY_MEASURE_WITH_UNIT(LENGTH_MEASURE(1.E-07),#1371,
  'distance_accuracy_value','confusion accuracy');
#1375 = PRODUCT_RELATED_PRODUCT_CATEGORY('part',$,(#7));
ENDSEC;
END-ISO-10303-21;
