ISO-10303-21;
HEADER;
FILE_DESCRIPTION(('FreeCAD Model'),'2;1');
FILE_NAME('Open CASCADE Shape Model','2026-08-29T23:22:25',('FreeCAD'),(
    'FreeCAD'),'Open CASCADE STEP processor 7.8','FreeCAD','Unknown');
FILE_SCHEMA(('AUTOMOTIVE_DESIGN { 1 0 10303 214 1 1 1 1 }'));
ENDSEC;
DATA;
#1 = APPLICATION_PROTOCOL_DEFINITION('international standard',
  'automotive_design',2000,#2);
#2 = APPLICATION_CONTEXT(
  'core data for automotive mechanical design processes');
#3 = SHAPE_DEFINITION_REPRESENTATION(#4,#10);
#4 = PRODUCT_DEFINITION_SHAPE('','',#5);
#5 = PRODUCT_DEFINITION('design','',#6,#9);
#6 = PRODUCT_DEFINITION_FORMATION('','',#7);
#7 = PRODUCT('Open CASCADE STEP translator 7.8 6',
  'Open CASCADE STEP translator 7.8 6','',(#8));
#8 = PRODUCT_CONTEXT('',#2,'mechanical');
#9 = PRODUCT_DEFINITION_CONTEXT('part definition',#2,'design');
#10 = ADVANCED_BREP_SHAPE_REPRESENTATION('',(#11,#15),#741);
#11 = AXIS2_PLACEMENT_3D('',#12,#13,#14);
#12 = CARTESIAN_POINT('',(0.,0.,0.));
#13 = DIRECTION('',(0.,0.,1.));
#14 = DIRECTION('',(1.,0.,-0.));
#15 = MANIFOLD_SOLID_BREP('',#16);
#16 = CLOSED_SHELL('',(#17,#225,#269,#303,#321,#358,#391,#416,#434,#460,
    #478,#534,#558,#583,#608,#625,#637,#655,#678,#690,#707,#732));
#17 = ADVANCED_FACE('',(#18),#220,.T.);
#18 = FACE_BOUND('',#19,.F.);
#19 = EDGE_LOOP('',(#20,#31,#39,#48,#57,#66,#74,#83,#93,#102,#111,#119,
    #131,#140,#148,#157,#165,#174,#186,#194,#203,#212));
#20 = ORIENTED_EDGE('',*,*,#21,.F.);
#21 = EDGE_CURVE('',#22,#24,#26,.T.);
#22 = VERTEX_POINT('',#23);
#23 = CARTESIAN_POINT('',(-11.52946565417,103.47053434582,-8.5));
#24 = VERTEX_POINT('',#25);
#25 = CARTESIAN_POINT('',(-11.89937858831,104.17185370706,-8.5));
#26 = CIRCLE('',#27,13.25);
#27 = AXIS2_PLACEMENT_3D('',#28,#29,#30);
#28 = CARTESIAN_POINT('',(1.119104808822E-13,110.,-8.5));
#29 = DIRECTION('',(1.558977697537E-15,-1.55E-15,-1.));
#30 = DIRECTION('',(-1.22E-15,-1.,1.55E-15));
#31 = ORIENTED_EDGE('',*,*,#32,.T.);
#32 = EDGE_CURVE('',#22,#33,#35,.T.);
#33 = VERTEX_POINT('',#34);
#34 = CARTESIAN_POINT('',(-11.52946565417,103.47053434582,-10.));
#35 = LINE('',#36,#37);
#36 = CARTESIAN_POINT('',(-11.52946565417,103.47053434582,-7.5));
#37 = VECTOR('',#38,1.);
#38 = DIRECTION('',(-4.410223024625E-16,6.7E-16,-1.));
#39 = ORIENTED_EDGE('',*,*,#40,.T.);
#40 = EDGE_CURVE('',#33,#41,#43,.T.);
#41 = VERTEX_POINT('',#42);
#42 = CARTESIAN_POINT('',(-13.01733473924,112.47214406667,-10.));
#43 = CIRCLE('',#44,13.25);
#44 = AXIS2_PLACEMENT_3D('',#45,#46,#47);
#45 = CARTESIAN_POINT('',(1.592597769754E-13,110.,-10.));
#46 = DIRECTION('',(1.228977697537E-15,-3.8E-16,-1.));
#47 = DIRECTION('',(-0.870148351259,-0.492789860693,-8.821327701828E-16)
  );
#48 = ORIENTED_EDGE('',*,*,#49,.T.);
#49 = EDGE_CURVE('',#41,#50,#52,.T.);
#50 = VERTEX_POINT('',#51);
#51 = CARTESIAN_POINT('',(-2.472144066679,123.01733473924,-10.));
#52 = CIRCLE('',#53,13.25);
#53 = AXIS2_PLACEMENT_3D('',#54,#55,#56);
#54 = CARTESIAN_POINT('',(1.592597769754E-13,110.,-10.));
#55 = DIRECTION('',(1.228977697537E-15,-3.8E-16,-1.));
#56 = DIRECTION('',(-0.982440357679,0.186576910693,-1.278296514811E-15)
  );
#57 = ORIENTED_EDGE('',*,*,#58,.T.);
#58 = EDGE_CURVE('',#50,#59,#61,.T.);
#59 = VERTEX_POINT('',#60);
#60 = CARTESIAN_POINT('',(6.529465654179,121.52946565417,-10.));
#61 = CIRCLE('',#62,13.25);
#62 = AXIS2_PLACEMENT_3D('',#63,#64,#65);
#63 = CARTESIAN_POINT('',(1.592597769754E-13,110.,-10.));
#64 = DIRECTION('',(1.228977697537E-15,-3.8E-16,-1.));
#65 = DIRECTION('',(-0.186576910693,0.982440357679,-6.026261980348E-16)
  );
#66 = ORIENTED_EDGE('',*,*,#67,.F.);
#67 = EDGE_CURVE('',#68,#59,#70,.T.);
#68 = VERTEX_POINT('',#69);
#69 = CARTESIAN_POINT('',(6.529465654179,121.52946565417,-8.5));
#70 = LINE('',#71,#72);
#71 = CARTESIAN_POINT('',(6.529465654179,121.52946565417,-7.5));
#72 = VECTOR('',#73,1.);
#73 = DIRECTION('',(-4.410223024625E-16,6.7E-16,-1.));
#74 = ORIENTED_EDGE('',*,*,#75,.F.);
#75 = EDGE_CURVE('',#76,#68,#78,.T.);
#76 = VERTEX_POINT('',#77);
#77 = CARTESIAN_POINT('',(5.828146292935,121.89937858832,-8.5));
#78 = CIRCLE('',#79,13.25);
#79 = AXIS2_PLACEMENT_3D('',#80,#81,#82);
#80 = CARTESIAN_POINT('',(1.119104808822E-13,110.,-8.5));
#81 = DIRECTION('',(1.558977697537E-15,-1.55E-15,-1.));
#82 = DIRECTION('',(-1.22E-15,-1.,1.55E-15));
#83 = ORIENTED_EDGE('',*,*,#84,.F.);
#84 = EDGE_CURVE('',#85,#76,#87,.T.);
#85 = VERTEX_POINT('',#86);
#86 = CARTESIAN_POINT('',(5.828146292935,121.89937858831,-9.5));
#87 = B_SPLINE_CURVE_WITH_KNOTS('',2,(#88,#89,#90,#91,#92),
  .UNSPECIFIED.,.F.,.F.,(3,1,1,3),(-0.52,-0.5,1.,1.0612),.UNSPECIFIED.);
#88 = CARTESIAN_POINT('',(5.828146292935,121.89937858832,-10.02));
#89 = CARTESIAN_POINT('',(5.828146292935,121.89937858832,-10.01));
#90 = CARTESIAN_POINT('',(5.828146292935,121.89937858832,-9.25));
#91 = CARTESIAN_POINT('',(5.828146292935,121.89937858832,-8.4694));
#92 = CARTESIAN_POINT('',(5.828146292935,121.89937858832,-8.4388));
#93 = ORIENTED_EDGE('',*,*,#94,.F.);
#94 = EDGE_CURVE('',#95,#85,#97,.T.);
#95 = VERTEX_POINT('',#96);
#96 = CARTESIAN_POINT('',(4.445859994116,122.48185999411,-9.5));
#97 = CIRCLE('',#98,13.25);
#98 = AXIS2_PLACEMENT_3D('',#99,#100,#101);
#99 = CARTESIAN_POINT('',(1.735252881266E-13,110.,-9.5));
#100 = DIRECTION('',(8.889776975375E-16,3.3E-16,-1.));
#101 = DIRECTION('',(-3.3E-16,-1.,-3.3E-16));
#102 = ORIENTED_EDGE('',*,*,#103,.T.);
#103 = EDGE_CURVE('',#95,#104,#106,.T.);
#104 = VERTEX_POINT('',#105);
#105 = CARTESIAN_POINT('',(-0.284300416292,123.2469495837,-9.5));
#106 = CIRCLE('',#107,13.25);
#107 = AXIS2_PLACEMENT_3D('',#108,#109,#110);
#108 = CARTESIAN_POINT('',(1.448852881266E-13,110.,-9.5));
#109 = DIRECTION('',(-1.328977697537E-15,7.8E-16,1.));
#110 = DIRECTION('',(-1.33E-15,-1.,7.8E-16));
#111 = ORIENTED_EDGE('',*,*,#112,.T.);
#112 = EDGE_CURVE('',#104,#113,#115,.T.);
#113 = VERTEX_POINT('',#114);
#114 = CARTESIAN_POINT('',(-0.284300416292,123.2469495837,-8.5));
#115 = LINE('',#116,#117);
#116 = CARTESIAN_POINT('',(-0.284300416292,123.2469495837,-7.5));
#117 = VECTOR('',#118,1.);
#118 = DIRECTION('',(1.022302462516E-18,-5.6E-16,1.));
#119 = ORIENTED_EDGE('',*,*,#120,.T.);
#120 = EDGE_CURVE('',#113,#121,#123,.T.);
#121 = VERTEX_POINT('',#122);
#122 = CARTESIAN_POINT('',(-2.278655224757,123.05259477524,-7.5));
#123 = B_SPLINE_CURVE_WITH_KNOTS('',6,(#124,#125,#126,#127,#128,#129,
    #130),.UNSPECIFIED.,.F.,.F.,(7,7),(0.,1.),.PIECEWISE_BEZIER_KNOTS.);
#124 = CARTESIAN_POINT('',(-0.284300416291,123.2469495837,-8.5));
#125 = CARTESIAN_POINT('',(-0.613252465255,123.23988975428,
    -8.330583042348));
#126 = CARTESIAN_POINT('',(-0.943587584793,123.22299332089,
    -8.161989791692));
#127 = CARTESIAN_POINT('',(-1.275283066196,123.1960829561,
    -7.994391577332));
#128 = CARTESIAN_POINT('',(-1.608332463326,123.15892743716,
    -7.828003694533));
#129 = CARTESIAN_POINT('',(-1.942758748071,123.11123386385,
    -7.663092581223));
#130 = CARTESIAN_POINT('',(-2.278655224757,123.05259477524,-7.5));
#131 = ORIENTED_EDGE('',*,*,#132,.F.);
#132 = EDGE_CURVE('',#133,#121,#135,.T.);
#133 = VERTEX_POINT('',#134);
#134 = CARTESIAN_POINT('',(-2.472144066678,123.01733473924,-7.5));
#135 = CIRCLE('',#136,13.25);
#136 = AXIS2_PLACEMENT_3D('',#137,#138,#139);
#137 = CARTESIAN_POINT('',(1.127986593019E-13,110.,-7.5));
#138 = DIRECTION('',(1.558977697537E-15,-1.55E-15,-1.));
#139 = DIRECTION('',(-1.22E-15,-1.,1.55E-15));
#140 = ORIENTED_EDGE('',*,*,#141,.T.);
#141 = EDGE_CURVE('',#133,#142,#144,.T.);
#142 = VERTEX_POINT('',#143);
#143 = CARTESIAN_POINT('',(-2.472144066679,123.01733473924,-9.5));
#144 = LINE('',#145,#146);
#145 = CARTESIAN_POINT('',(-2.472144066678,123.01733473924,-7.5));
#146 = VECTOR('',#147,1.);
#147 = DIRECTION('',(-4.410223024625E-16,6.7E-16,-1.));
#148 = ORIENTED_EDGE('',*,*,#149,.F.);
#149 = EDGE_CURVE('',#150,#142,#152,.T.);
#150 = VERTEX_POINT('',#151);
#151 = CARTESIAN_POINT('',(-13.01733473924,112.47214406667,-9.5));
#152 = CIRCLE('',#153,13.249999999999);
#153 = AXIS2_PLACEMENT_3D('',#154,#155,#156);
#154 = CARTESIAN_POINT('',(6.572520305781E-14,110.,-9.5));
#155 = DIRECTION('',(8.889776975375E-16,-8.9E-16,-1.));
#156 = DIRECTION('',(-7.8E-16,-1.,8.9E-16));
#157 = ORIENTED_EDGE('',*,*,#158,.F.);
#158 = EDGE_CURVE('',#159,#150,#161,.T.);
#159 = VERTEX_POINT('',#160);
#160 = CARTESIAN_POINT('',(-13.01733473924,112.47214406667,-7.5));
#161 = LINE('',#162,#163);
#162 = CARTESIAN_POINT('',(-13.01733473924,112.47214406667,-7.5));
#163 = VECTOR('',#164,1.);
#164 = DIRECTION('',(-4.410223024625E-16,6.7E-16,-1.));
#165 = ORIENTED_EDGE('',*,*,#166,.F.);
#166 = EDGE_CURVE('',#167,#159,#169,.T.);
#167 = VERTEX_POINT('',#168);
#168 = CARTESIAN_POINT('',(-13.05259477524,112.27865522475,-7.5));
#169 = CIRCLE('',#170,13.25);
#170 = AXIS2_PLACEMENT_3D('',#171,#172,#173);
#171 = CARTESIAN_POINT('',(1.127986593019E-13,110.,-7.5));
#172 = DIRECTION('',(1.558977697537E-15,-1.55E-15,-1.));
#173 = DIRECTION('',(-1.22E-15,-1.,1.55E-15));
#174 = ORIENTED_EDGE('',*,*,#175,.F.);
#175 = EDGE_CURVE('',#176,#167,#178,.T.);
#176 = VERTEX_POINT('',#177);
#177 = CARTESIAN_POINT('',(-13.2469495837,110.28430041629,-8.5));
#178 = B_SPLINE_CURVE_WITH_KNOTS('',6,(#179,#180,#181,#182,#183,#184,
    #185),.UNSPECIFIED.,.F.,.F.,(7,7),(0.,1.),.PIECEWISE_BEZIER_KNOTS.);
#179 = CARTESIAN_POINT('',(-13.2469495837,110.28430041629,-8.5));
#180 = CARTESIAN_POINT('',(-13.2398897543,110.61325246422,
    -8.330583042882));
#181 = CARTESIAN_POINT('',(-13.22299332102,110.94358758156,
    -8.161989793342));
#182 = CARTESIAN_POINT('',(-13.1960829565,111.27528306193,
    -7.994391579479));
#183 = CARTESIAN_POINT('',(-13.15892743767,111.60833245996,
    -7.828003696186));
#184 = CARTESIAN_POINT('',(-13.11123386405,111.94275874687,
    -7.663092581805));
#185 = CARTESIAN_POINT('',(-13.05259477524,112.27865522475,-7.5));
#186 = ORIENTED_EDGE('',*,*,#187,.F.);
#187 = EDGE_CURVE('',#188,#176,#190,.T.);
#188 = VERTEX_POINT('',#189);
#189 = CARTESIAN_POINT('',(-13.2469495837,110.28430041629,-9.5));
#190 = LINE('',#191,#192);
#191 = CARTESIAN_POINT('',(-13.2469495837,110.28430041629,-7.5));
#192 = VECTOR('',#193,1.);
#193 = DIRECTION('',(1.022302462516E-18,-5.6E-16,1.));
#194 = ORIENTED_EDGE('',*,*,#195,.T.);
#195 = EDGE_CURVE('',#188,#196,#198,.T.);
#196 = VERTEX_POINT('',#197);
#197 = CARTESIAN_POINT('',(-12.48185999411,105.55414000588,-9.5));
#198 = CIRCLE('',#199,13.25);
#199 = AXIS2_PLACEMENT_3D('',#200,#201,#202);
#200 = CARTESIAN_POINT('',(1.448852881266E-13,110.,-9.5));
#201 = DIRECTION('',(-1.328977697537E-15,7.8E-16,1.));
#202 = DIRECTION('',(-1.33E-15,-1.,7.8E-16));
#203 = ORIENTED_EDGE('',*,*,#204,.T.);
#204 = EDGE_CURVE('',#196,#205,#207,.T.);
#205 = VERTEX_POINT('',#206);
#206 = CARTESIAN_POINT('',(-11.89937858831,104.17185370706,-9.5));
#207 = CIRCLE('',#208,13.25);
#208 = AXIS2_PLACEMENT_3D('',#209,#210,#211);
#209 = CARTESIAN_POINT('',(1.735252881266E-13,110.,-9.5));
#210 = DIRECTION('',(-8.889776975375E-16,-3.3E-16,1.));
#211 = DIRECTION('',(-3.3E-16,-1.,-3.3E-16));
#212 = ORIENTED_EDGE('',*,*,#213,.T.);
#213 = EDGE_CURVE('',#205,#24,#214,.T.);
#214 = B_SPLINE_CURVE_WITH_KNOTS('',2,(#215,#216,#217,#218,#219),
  .UNSPECIFIED.,.F.,.F.,(3,1,1,3),(-0.52,-0.5,1.,1.0612),.UNSPECIFIED.);
#215 = CARTESIAN_POINT('',(-11.89937858831,104.17185370706,-10.02));
#216 = CARTESIAN_POINT('',(-11.89937858831,104.17185370706,-10.01));
#217 = CARTESIAN_POINT('',(-11.89937858831,104.17185370706,-9.25));
#218 = CARTESIAN_POINT('',(-11.89937858831,104.17185370706,-8.4694));
#219 = CARTESIAN_POINT('',(-11.89937858831,104.17185370706,-8.4388));
#220 = CYLINDRICAL_SURFACE('',#221,13.25);
#221 = AXIS2_PLACEMENT_3D('',#222,#223,#224);
#222 = CARTESIAN_POINT('',(1.587573327315E-13,110.,-7.5));
#223 = DIRECTION('',(-2.189776975375E-16,-6.7E-16,1.));
#224 = DIRECTION('',(-1.44E-15,-1.,-6.7E-16));
#225 = ADVANCED_FACE('',(#226),#264,.T.);
#226 = FACE_BOUND('',#227,.T.);
#227 = EDGE_LOOP('',(#228,#239,#247,#248,#255,#256));
#228 = ORIENTED_EDGE('',*,*,#229,.F.);
#229 = EDGE_CURVE('',#230,#232,#234,.T.);
#230 = VERTEX_POINT('',#231);
#231 = CARTESIAN_POINT('',(-11.25033858159,104.69777851066,-8.5));
#232 = VERTEX_POINT('',#233);
#233 = CARTESIAN_POINT('',(5.30222148934,121.25033858159,-8.5));
#234 = CIRCLE('',#235,12.05);
#235 = AXIS2_PLACEMENT_3D('',#236,#237,#238);
#236 = CARTESIAN_POINT('',(-5.,115.,-8.5));
#237 = DIRECTION('',(-1.438977697537E-15,1.44E-15,1.));
#238 = DIRECTION('',(1.E-15,1.,-1.44E-15));
#239 = ORIENTED_EDGE('',*,*,#240,.F.);
#240 = EDGE_CURVE('',#24,#230,#241,.T.);
#241 = B_SPLINE_CURVE_WITH_KNOTS('',4,(#242,#243,#244,#245,#246),
  .UNSPECIFIED.,.F.,.F.,(5,5),(0.,1.),.PIECEWISE_BEZIER_KNOTS.);
#242 = CARTESIAN_POINT('',(-11.89937858831,104.17185370706,-8.5));
#243 = CARTESIAN_POINT('',(-11.73711858663,104.30333490796,-8.5));
#244 = CARTESIAN_POINT('',(-11.57485858495,104.43481610886,-8.5));
#245 = CARTESIAN_POINT('',(-11.41259858327,104.56629730976,-8.5));
#246 = CARTESIAN_POINT('',(-11.25033858159,104.69777851066,-8.5));
#247 = ORIENTED_EDGE('',*,*,#21,.F.);
#248 = ORIENTED_EDGE('',*,*,#249,.F.);
#249 = EDGE_CURVE('',#68,#22,#250,.T.);
#250 = CIRCLE('',#251,13.25);
#251 = AXIS2_PLACEMENT_3D('',#252,#253,#254);
#252 = CARTESIAN_POINT('',(-5.,115.,-8.5));
#253 = DIRECTION('',(1.558977697537E-15,-1.55E-15,-1.));
#254 = DIRECTION('',(-1.22E-15,-1.,1.55E-15));
#255 = ORIENTED_EDGE('',*,*,#75,.F.);
#256 = ORIENTED_EDGE('',*,*,#257,.T.);
#257 = EDGE_CURVE('',#76,#232,#258,.T.);
#258 = B_SPLINE_CURVE_WITH_KNOTS('',4,(#259,#260,#261,#262,#263),
  .UNSPECIFIED.,.F.,.F.,(5,5),(0.,1.),.PIECEWISE_BEZIER_KNOTS.);
#259 = CARTESIAN_POINT('',(5.828146292935,121.89937858832,-8.5));
#260 = CARTESIAN_POINT('',(5.696665092036,121.73711858663,-8.5));
#261 = CARTESIAN_POINT('',(5.565183891138,121.57485858495,-8.5));
#262 = CARTESIAN_POINT('',(5.433702690239,121.41259858327,-8.5));
#263 = CARTESIAN_POINT('',(5.30222148934,121.25033858159,-8.5));
#264 = PLANE('',#265);
#265 = AXIS2_PLACEMENT_3D('',#266,#267,#268);
#266 = CARTESIAN_POINT('',(-2.77384272027,112.77384272027,-8.5));
#267 = DIRECTION('',(6.710223024625E-16,-6.7E-16,1.));
#268 = DIRECTION('',(-1.,-1.E-15,6.710223024625E-16));
#269 = ADVANCED_FACE('',(#270),#292,.F.);
#270 = FACE_BOUND('',#271,.F.);
#271 = EDGE_LOOP('',(#272,#282,#290,#291));
#272 = ORIENTED_EDGE('',*,*,#273,.T.);
#273 = EDGE_CURVE('',#205,#274,#276,.T.);
#274 = VERTEX_POINT('',#275);
#275 = CARTESIAN_POINT('',(-11.25033858159,104.69777851066,-9.5));
#276 = B_SPLINE_CURVE_WITH_KNOTS('',4,(#277,#278,#279,#280,#281),
  .UNSPECIFIED.,.F.,.F.,(5,5),(0.,1.),.PIECEWISE_BEZIER_KNOTS.);
#277 = CARTESIAN_POINT('',(-11.89937858831,104.17185370706,-9.5));
#278 = CARTESIAN_POINT('',(-11.73711858663,104.30333490796,-9.5));
#279 = CARTESIAN_POINT('',(-11.57485858495,104.43481610886,-9.5));
#280 = CARTESIAN_POINT('',(-11.41259858327,104.56629730976,-9.5));
#281 = CARTESIAN_POINT('',(-11.25033858159,104.69777851066,-9.5));
#282 = ORIENTED_EDGE('',*,*,#283,.T.);
#283 = EDGE_CURVE('',#274,#230,#284,.T.);
#284 = B_SPLINE_CURVE_WITH_KNOTS('',2,(#285,#286,#287,#288,#289),
  .UNSPECIFIED.,.F.,.F.,(3,1,1,3),(-0.52,-0.5,1.,1.0612),.UNSPECIFIED.);
#285 = CARTESIAN_POINT('',(-11.25033858159,104.69777851066,-10.02));
#286 = CARTESIAN_POINT('',(-11.25033858159,104.69777851066,-10.01));
#287 = CARTESIAN_POINT('',(-11.25033858159,104.69777851066,-9.25));
#288 = CARTESIAN_POINT('',(-11.25033858159,104.69777851066,-8.4694));
#289 = CARTESIAN_POINT('',(-11.25033858159,104.69777851066,-8.4388));
#290 = ORIENTED_EDGE('',*,*,#240,.F.);
#291 = ORIENTED_EDGE('',*,*,#213,.F.);
#292 = B_SPLINE_SURFACE_WITH_KNOTS('',1,2,(
    (#293,#294,#295,#296,#297)
    ,(#298,#299,#300,#301,#302
    )),.UNSPECIFIED.,.F.,.F.,.F.,(2,2),(3,1,1,3),(0.,1.5),(-0.52,-0.5,1.
    ,1.0612),.UNSPECIFIED.);
#293 = CARTESIAN_POINT('',(-11.89937858831,104.17185370706,-10.02));
#294 = CARTESIAN_POINT('',(-11.89937858831,104.17185370706,-10.01));
#295 = CARTESIAN_POINT('',(-11.89937858831,104.17185370706,-9.25));
#296 = CARTESIAN_POINT('',(-11.89937858831,104.17185370706,-8.4694));
#297 = CARTESIAN_POINT('',(-11.89937858831,104.17185370706,-8.4388));
#298 = CARTESIAN_POINT('',(-11.25033858159,104.69777851066,-10.02));
#299 = CARTESIAN_POINT('',(-11.25033858159,104.69777851066,-10.01));
#300 = CARTESIAN_POINT('',(-11.25033858159,104.69777851066,-9.25));
#301 = CARTESIAN_POINT('',(-11.25033858159,104.69777851066,-8.4694));
#302 = CARTESIAN_POINT('',(-11.25033858159,104.69777851066,-8.4388));
#303 = ADVANCED_FACE('',(#304),#316,.T.);
#304 = FACE_BOUND('',#305,.F.);
#305 = EDGE_LOOP('',(#306,#307,#308,#315));
#306 = ORIENTED_EDGE('',*,*,#249,.F.);
#307 = ORIENTED_EDGE('',*,*,#67,.T.);
#308 = ORIENTED_EDGE('',*,*,#309,.T.);
#309 = EDGE_CURVE('',#59,#33,#310,.T.);
#310 = CIRCLE('',#311,13.25);
#311 = AXIS2_PLACEMENT_3D('',#312,#313,#314);
#312 = CARTESIAN_POINT('',(-5.,115.,-10.));
#313 = DIRECTION('',(1.228977697537E-15,-3.8E-16,-1.));
#314 = DIRECTION('',(0.870148351259,0.492789860693,8.821327701828E-16));
#315 = ORIENTED_EDGE('',*,*,#32,.F.);
#316 = CYLINDRICAL_SURFACE('',#317,13.25);
#317 = AXIS2_PLACEMENT_3D('',#318,#319,#320);
#318 = CARTESIAN_POINT('',(-5.,115.,-7.5));
#319 = DIRECTION('',(2.210223024625E-16,-4.4E-16,1.));
#320 = DIRECTION('',(-1.22E-15,-1.,-4.4E-16));
#321 = ADVANCED_FACE('',(#322),#353,.T.);
#322 = FACE_BOUND('',#323,.T.);
#323 = EDGE_LOOP('',(#324,#333,#341,#342,#343,#350,#351,#352));
#324 = ORIENTED_EDGE('',*,*,#325,.T.);
#325 = EDGE_CURVE('',#274,#326,#328,.T.);
#326 = VERTEX_POINT('',#327);
#327 = CARTESIAN_POINT('',(5.30222148934,121.25033858159,-9.5));
#328 = CIRCLE('',#329,12.05);
#329 = AXIS2_PLACEMENT_3D('',#330,#331,#332);
#330 = CARTESIAN_POINT('',(-5.,115.,-9.5));
#331 = DIRECTION('',(-1.438977697537E-15,1.44E-15,1.));
#332 = DIRECTION('',(1.E-15,1.,-1.44E-15));
#333 = ORIENTED_EDGE('',*,*,#334,.F.);
#334 = EDGE_CURVE('',#85,#326,#335,.T.);
#335 = B_SPLINE_CURVE_WITH_KNOTS('',4,(#336,#337,#338,#339,#340),
  .UNSPECIFIED.,.F.,.F.,(5,5),(0.,1.),.PIECEWISE_BEZIER_KNOTS.);
#336 = CARTESIAN_POINT('',(5.828146292935,121.89937858832,-9.5));
#337 = CARTESIAN_POINT('',(5.696665092036,121.73711858663,-9.5));
#338 = CARTESIAN_POINT('',(5.565183891138,121.57485858495,-9.5));
#339 = CARTESIAN_POINT('',(5.433702690239,121.41259858327,-9.5));
#340 = CARTESIAN_POINT('',(5.30222148934,121.25033858159,-9.5));
#341 = ORIENTED_EDGE('',*,*,#94,.F.);
#342 = ORIENTED_EDGE('',*,*,#103,.T.);
#343 = ORIENTED_EDGE('',*,*,#344,.F.);
#344 = EDGE_CURVE('',#188,#104,#345,.T.);
#345 = CIRCLE('',#346,9.5);
#346 = AXIS2_PLACEMENT_3D('',#347,#348,#349);
#347 = CARTESIAN_POINT('',(-5.,115.,-9.5));
#348 = DIRECTION('',(-1.438977697537E-15,1.44E-15,1.));
#349 = DIRECTION('',(1.E-15,1.,-1.44E-15));
#350 = ORIENTED_EDGE('',*,*,#195,.T.);
#351 = ORIENTED_EDGE('',*,*,#204,.T.);
#352 = ORIENTED_EDGE('',*,*,#273,.T.);
#353 = PLANE('',#354);
#354 = AXIS2_PLACEMENT_3D('',#355,#356,#357);
#355 = CARTESIAN_POINT('',(-5.,115.,-9.5));
#356 = DIRECTION('',(5.510223024625E-16,-1.3E-16,1.));
#357 = DIRECTION('',(1.E-15,1.,1.3E-16));
#358 = ADVANCED_FACE('',(#359),#386,.T.);
#359 = FACE_BOUND('',#360,.F.);
#360 = EDGE_LOOP('',(#361,#370,#379,#385));
#361 = ORIENTED_EDGE('',*,*,#362,.F.);
#362 = EDGE_CURVE('',#363,#33,#365,.T.);
#363 = VERTEX_POINT('',#364);
#364 = CARTESIAN_POINT('',(-10.42346199587,104.57653800413,-11.5));
#365 = HYPERBOLA('',#366,3.535533905933,3.535533905933);
#366 = AXIS2_PLACEMENT_3D('',#367,#368,#369);
#367 = CARTESIAN_POINT('',(-2.5,112.5,-23.25));
#368 = DIRECTION('',(0.707106781187,-0.707106781187,-2.708504622934E-15)
  );
#369 = DIRECTION('',(1.490713136983E-15,-2.339690834521E-15,1.));
#370 = ORIENTED_EDGE('',*,*,#371,.T.);
#371 = EDGE_CURVE('',#363,#372,#374,.T.);
#372 = VERTEX_POINT('',#373);
#373 = CARTESIAN_POINT('',(-11.54367420272,112.19227870063,-11.5));
#374 = CIRCLE('',#375,11.75);
#375 = AXIS2_PLACEMENT_3D('',#376,#377,#378);
#376 = CARTESIAN_POINT('',(1.597632435217E-13,110.,-11.5));
#377 = DIRECTION('',(1.228977697537E-15,-3.8E-16,-1.));
#378 = DIRECTION('',(-0.870148351259,-0.492789860693,-8.821327701828E-16
    ));
#379 = ORIENTED_EDGE('',*,*,#380,.T.);
#380 = EDGE_CURVE('',#372,#41,#381,.T.);
#381 = LINE('',#382,#383);
#382 = CARTESIAN_POINT('',(-13.01733473924,112.47214406667,-10.));
#383 = VECTOR('',#384,1.);
#384 = DIRECTION('',(-0.694690239026,0.131929798764,0.707106781187));
#385 = ORIENTED_EDGE('',*,*,#40,.F.);
#386 = CONICAL_SURFACE('',#387,13.25,0.785398163397);
#387 = AXIS2_PLACEMENT_3D('',#388,#389,#390);
#388 = CARTESIAN_POINT('',(1.592597769754E-13,110.,-10.));
#389 = DIRECTION('',(-3.389776975375E-16,-5.1E-16,1.));
#390 = DIRECTION('',(-0.870148351259,-0.492789860693,-5.462837135791E-16
    ));
#391 = ADVANCED_FACE('',(#392),#411,.T.);
#392 = FACE_BOUND('',#393,.F.);
#393 = EDGE_LOOP('',(#394,#395,#404,#410));
#394 = ORIENTED_EDGE('',*,*,#380,.F.);
#395 = ORIENTED_EDGE('',*,*,#396,.T.);
#396 = EDGE_CURVE('',#372,#397,#399,.T.);
#397 = VERTEX_POINT('',#398);
#398 = CARTESIAN_POINT('',(-2.19227870064,121.54367420272,-11.5));
#399 = CIRCLE('',#400,11.75);
#400 = AXIS2_PLACEMENT_3D('',#401,#402,#403);
#401 = CARTESIAN_POINT('',(1.597632435217E-13,110.,-11.5));
#402 = DIRECTION('',(1.228977697537E-15,-3.8E-16,-1.));
#403 = DIRECTION('',(-0.982440357679,0.186576910693,-1.278296514811E-15)
  );
#404 = ORIENTED_EDGE('',*,*,#405,.T.);
#405 = EDGE_CURVE('',#397,#50,#406,.T.);
#406 = LINE('',#407,#408);
#407 = CARTESIAN_POINT('',(-2.472144066679,123.01733473924,-10.));
#408 = VECTOR('',#409,1.);
#409 = DIRECTION('',(-0.131929798764,0.694690239026,0.707106781187));
#410 = ORIENTED_EDGE('',*,*,#49,.F.);
#411 = CONICAL_SURFACE('',#412,13.25,0.785398163397);
#412 = AXIS2_PLACEMENT_3D('',#413,#414,#415);
#413 = CARTESIAN_POINT('',(1.592597769754E-13,110.,-10.));
#414 = DIRECTION('',(-3.389776975375E-16,-5.1E-16,1.));
#415 = DIRECTION('',(-0.982440357679,0.186576910693,-2.378711459606E-16)
  );
#416 = ADVANCED_FACE('',(#417),#429,.T.);
#417 = FACE_BOUND('',#418,.T.);
#418 = EDGE_LOOP('',(#419,#420,#427,#428));
#419 = ORIENTED_EDGE('',*,*,#112,.T.);
#420 = ORIENTED_EDGE('',*,*,#421,.F.);
#421 = EDGE_CURVE('',#176,#113,#422,.T.);
#422 = CIRCLE('',#423,9.5);
#423 = AXIS2_PLACEMENT_3D('',#424,#425,#426);
#424 = CARTESIAN_POINT('',(-5.,115.,-8.5));
#425 = DIRECTION('',(-1.558977697537E-15,3.3E-16,1.));
#426 = DIRECTION('',(-0.86809995618,-0.496389429864,-1.189539959062E-15)
  );
#427 = ORIENTED_EDGE('',*,*,#187,.F.);
#428 = ORIENTED_EDGE('',*,*,#344,.T.);
#429 = CYLINDRICAL_SURFACE('',#430,9.5);
#430 = AXIS2_PLACEMENT_3D('',#431,#432,#433);
#431 = CARTESIAN_POINT('',(-5.,115.,-7.5));
#432 = DIRECTION('',(3.310223024625E-16,1.1E-16,1.));
#433 = DIRECTION('',(7.8E-16,1.,-1.1E-16));
#434 = ADVANCED_FACE('',(#435),#455,.T.);
#435 = FACE_BOUND('',#436,.F.);
#436 = EDGE_LOOP('',(#437,#438,#447,#454));
#437 = ORIENTED_EDGE('',*,*,#405,.F.);
#438 = ORIENTED_EDGE('',*,*,#439,.T.);
#439 = EDGE_CURVE('',#397,#440,#442,.T.);
#440 = VERTEX_POINT('',#441);
#441 = CARTESIAN_POINT('',(5.42346199587,120.42346199587,-11.5));
#442 = CIRCLE('',#443,11.75);
#443 = AXIS2_PLACEMENT_3D('',#444,#445,#446);
#444 = CARTESIAN_POINT('',(1.597632435217E-13,110.,-11.5));
#445 = DIRECTION('',(1.228977697537E-15,-3.8E-16,-1.));
#446 = DIRECTION('',(-0.186576910693,0.982440357679,-6.026261980348E-16)
  );
#447 = ORIENTED_EDGE('',*,*,#448,.T.);
#448 = EDGE_CURVE('',#440,#59,#449,.T.);
#449 = HYPERBOLA('',#450,3.535533905933,3.535533905933);
#450 = AXIS2_PLACEMENT_3D('',#451,#452,#453);
#451 = CARTESIAN_POINT('',(-2.5,112.5,-23.25));
#452 = DIRECTION('',(-0.707106781187,0.707106781187,2.708504622934E-15)
  );
#453 = DIRECTION('',(1.490713136983E-15,-2.339690834521E-15,1.));
#454 = ORIENTED_EDGE('',*,*,#58,.F.);
#455 = CONICAL_SURFACE('',#456,13.25,0.785398163397);
#456 = AXIS2_PLACEMENT_3D('',#457,#458,#459);
#457 = CARTESIAN_POINT('',(1.592597769754E-13,110.,-10.));
#458 = DIRECTION('',(-3.389776975375E-16,-5.1E-16,1.));
#459 = DIRECTION('',(-0.186576910693,0.982440357679,4.37799170816E-16));
#460 = ADVANCED_FACE('',(#461),#473,.T.);
#461 = FACE_BOUND('',#462,.T.);
#462 = EDGE_LOOP('',(#463,#464,#465,#466));
#463 = ORIENTED_EDGE('',*,*,#175,.F.);
#464 = ORIENTED_EDGE('',*,*,#421,.T.);
#465 = ORIENTED_EDGE('',*,*,#120,.T.);
#466 = ORIENTED_EDGE('',*,*,#467,.F.);
#467 = EDGE_CURVE('',#167,#121,#468,.T.);
#468 = CIRCLE('',#469,8.5);
#469 = AXIS2_PLACEMENT_3D('',#470,#471,#472);
#470 = CARTESIAN_POINT('',(-5.,115.,-7.5));
#471 = DIRECTION('',(-1.558977697537E-15,3.3E-16,1.));
#472 = DIRECTION('',(-0.86809995618,-0.496389429864,-1.189539959062E-15)
  );
#473 = CONICAL_SURFACE('',#474,9.5,0.785398163397);
#474 = AXIS2_PLACEMENT_3D('',#475,#476,#477);
#475 = CARTESIAN_POINT('',(-5.,115.,-8.5));
#476 = DIRECTION('',(1.108977697537E-15,1.1E-16,-1.));
#477 = DIRECTION('',(-0.86809995618,-0.496389429864,-1.017306327922E-15)
  );
#478 = ADVANCED_FACE('',(#479,#507,#518),#529,.T.);
#479 = FACE_BOUND('',#480,.T.);
#480 = EDGE_LOOP('',(#481,#482,#490,#499,#505,#506));
#481 = ORIENTED_EDGE('',*,*,#132,.F.);
#482 = ORIENTED_EDGE('',*,*,#483,.F.);
#483 = EDGE_CURVE('',#484,#133,#486,.T.);
#484 = VERTEX_POINT('',#485);
#485 = CARTESIAN_POINT('',(-3.797176801983,118.81486780299,-7.5));
#486 = LINE('',#487,#488);
#487 = CARTESIAN_POINT('',(-3.797176801983,118.81486780299,-7.5));
#488 = VECTOR('',#489,1.);
#489 = DIRECTION('',(0.300705799504,0.953716950748,-1.013385050225E-15)
  );
#490 = ORIENTED_EDGE('',*,*,#491,.F.);
#491 = EDGE_CURVE('',#492,#484,#494,.T.);
#492 = VERTEX_POINT('',#493);
#493 = CARTESIAN_POINT('',(-8.814867802993,113.79717680198,-7.5));
#494 = CIRCLE('',#495,4.);
#495 = AXIS2_PLACEMENT_3D('',#496,#497,#498);
#496 = CARTESIAN_POINT('',(-5.,115.,-7.5));
#497 = DIRECTION('',(1.558977697537E-15,-1.55E-15,-1.));
#498 = DIRECTION('',(-1.22E-15,-1.,1.55E-15));
#499 = ORIENTED_EDGE('',*,*,#500,.T.);
#500 = EDGE_CURVE('',#492,#159,#501,.T.);
#501 = LINE('',#502,#503);
#502 = CARTESIAN_POINT('',(-8.814867802993,113.79717680198,-7.5));
#503 = VECTOR('',#504,1.);
#504 = DIRECTION('',(-0.953716950748,-0.300705799504,-1.01411614823E-15)
  );
#505 = ORIENTED_EDGE('',*,*,#166,.F.);
#506 = ORIENTED_EDGE('',*,*,#467,.T.);
#507 = FACE_BOUND('',#508,.T.);
#508 = EDGE_LOOP('',(#509));
#509 = ORIENTED_EDGE('',*,*,#510,.T.);
#510 = EDGE_CURVE('',#511,#511,#513,.T.);
#511 = VERTEX_POINT('',#512);
#512 = CARTESIAN_POINT('',(-5.,113.25,-7.5));
#513 = CIRCLE('',#514,1.75);
#514 = AXIS2_PLACEMENT_3D('',#515,#516,#517);
#515 = CARTESIAN_POINT('',(-5.,115.,-7.5));
#516 = DIRECTION('',(1.558977697537E-15,-1.55E-15,-1.));
#517 = DIRECTION('',(-1.22E-15,-1.,1.55E-15));
#518 = FACE_BOUND('',#519,.T.);
#519 = EDGE_LOOP('',(#520));
#520 = ORIENTED_EDGE('',*,*,#521,.F.);
#521 = EDGE_CURVE('',#522,#522,#524,.T.);
#522 = VERTEX_POINT('',#523);
#523 = CARTESIAN_POINT('',(-1.,112.875,-7.5));
#524 = CIRCLE('',#525,1.875);
#525 = AXIS2_PLACEMENT_3D('',#526,#527,#528);
#526 = CARTESIAN_POINT('',(-1.,111.,-7.5));
#527 = DIRECTION('',(-2.189776975375E-16,2.2E-16,1.));
#528 = DIRECTION('',(3.3E-16,1.,-2.2E-16));
#529 = PLANE('',#530);
#530 = AXIS2_PLACEMENT_3D('',#531,#532,#533);
#531 = CARTESIAN_POINT('',(-2.77384272027,112.77384272027,-7.5));
#532 = DIRECTION('',(6.710223024625E-16,-6.7E-16,1.));
#533 = DIRECTION('',(-1.,-1.E-15,6.710223024625E-16));
#534 = ADVANCED_FACE('',(#535),#553,.T.);
#535 = FACE_BOUND('',#536,.T.);
#536 = EDGE_LOOP('',(#537,#538,#546,#552));
#537 = ORIENTED_EDGE('',*,*,#500,.F.);
#538 = ORIENTED_EDGE('',*,*,#539,.T.);
#539 = EDGE_CURVE('',#492,#540,#542,.T.);
#540 = VERTEX_POINT('',#541);
#541 = CARTESIAN_POINT('',(-8.814867802993,113.79717680198,-9.5));
#542 = LINE('',#543,#544);
#543 = CARTESIAN_POINT('',(-8.814867802993,113.79717680198,-7.5));
#544 = VECTOR('',#545,1.);
#545 = DIRECTION('',(-4.410223024625E-16,6.7E-16,-1.));
#546 = ORIENTED_EDGE('',*,*,#547,.T.);
#547 = EDGE_CURVE('',#540,#150,#548,.T.);
#548 = LINE('',#549,#550);
#549 = CARTESIAN_POINT('',(-8.814867802993,113.79717680198,-9.5));
#550 = VECTOR('',#551,1.);
#551 = DIRECTION('',(-0.953716950748,-0.300705799504,-5.841161482304E-16
    ));
#552 = ORIENTED_EDGE('',*,*,#158,.F.);
#553 = PLANE('',#554);
#554 = AXIS2_PLACEMENT_3D('',#555,#556,#557);
#555 = CARTESIAN_POINT('',(-8.814867802993,113.79717680198,-7.5));
#556 = DIRECTION('',(-0.300705799504,0.953716950748,-1.456614949775E-15)
  );
#557 = DIRECTION('',(-0.953716950748,-0.300705799504,-1.08411614823E-15)
  );
#558 = ADVANCED_FACE('',(#559),#572,.T.);
#559 = FACE_BOUND('',#560,.T.);
#560 = EDGE_LOOP('',(#561,#562,#570,#571));
#561 = ORIENTED_EDGE('',*,*,#334,.T.);
#562 = ORIENTED_EDGE('',*,*,#563,.T.);
#563 = EDGE_CURVE('',#326,#232,#564,.T.);
#564 = B_SPLINE_CURVE_WITH_KNOTS('',2,(#565,#566,#567,#568,#569),
  .UNSPECIFIED.,.F.,.F.,(3,1,1,3),(-0.52,-0.5,1.,1.0612),.UNSPECIFIED.);
#565 = CARTESIAN_POINT('',(5.30222148934,121.25033858159,-10.02));
#566 = CARTESIAN_POINT('',(5.30222148934,121.25033858159,-10.01));
#567 = CARTESIAN_POINT('',(5.30222148934,121.25033858159,-9.25));
#568 = CARTESIAN_POINT('',(5.30222148934,121.25033858159,-8.4694));
#569 = CARTESIAN_POINT('',(5.30222148934,121.25033858159,-8.4388));
#570 = ORIENTED_EDGE('',*,*,#257,.F.);
#571 = ORIENTED_EDGE('',*,*,#84,.F.);
#572 = B_SPLINE_SURFACE_WITH_KNOTS('',1,2,(
    (#573,#574,#575,#576,#577)
    ,(#578,#579,#580,#581,#582
    )),.UNSPECIFIED.,.F.,.F.,.F.,(2,2),(3,1,1,3),(0.,1.5),(-0.52,-0.5,1.
    ,1.0612),.UNSPECIFIED.);
#573 = CARTESIAN_POINT('',(5.828146292935,121.89937858832,-10.02));
#574 = CARTESIAN_POINT('',(5.828146292935,121.89937858832,-10.01));
#575 = CARTESIAN_POINT('',(5.828146292935,121.89937858832,-9.25));
#576 = CARTESIAN_POINT('',(5.828146292935,121.89937858832,-8.4694));
#577 = CARTESIAN_POINT('',(5.828146292935,121.89937858832,-8.4388));
#578 = CARTESIAN_POINT('',(5.30222148934,121.25033858159,-10.02));
#579 = CARTESIAN_POINT('',(5.30222148934,121.25033858159,-10.01));
#580 = CARTESIAN_POINT('',(5.30222148934,121.25033858159,-9.25));
#581 = CARTESIAN_POINT('',(5.30222148934,121.25033858159,-8.4694));
#582 = CARTESIAN_POINT('',(5.30222148934,121.25033858159,-8.4388));
#583 = ADVANCED_FACE('',(#584),#603,.T.);
#584 = FACE_BOUND('',#585,.F.);
#585 = EDGE_LOOP('',(#586,#587,#595,#602));
#586 = ORIENTED_EDGE('',*,*,#149,.T.);
#587 = ORIENTED_EDGE('',*,*,#588,.F.);
#588 = EDGE_CURVE('',#589,#142,#591,.T.);
#589 = VERTEX_POINT('',#590);
#590 = CARTESIAN_POINT('',(-3.797176801983,118.81486780299,-9.5));
#591 = LINE('',#592,#593);
#592 = CARTESIAN_POINT('',(-3.797176801983,118.81486780299,-9.5));
#593 = VECTOR('',#594,1.);
#594 = DIRECTION('',(0.300705799504,0.953716950748,-5.833850502248E-16)
  );
#595 = ORIENTED_EDGE('',*,*,#596,.F.);
#596 = EDGE_CURVE('',#540,#589,#597,.T.);
#597 = CIRCLE('',#598,4.);
#598 = AXIS2_PLACEMENT_3D('',#599,#600,#601);
#599 = CARTESIAN_POINT('',(-5.,115.,-9.5));
#600 = DIRECTION('',(8.889776975375E-16,-8.9E-16,-1.));
#601 = DIRECTION('',(-7.8E-16,-1.,8.9E-16));
#602 = ORIENTED_EDGE('',*,*,#547,.T.);
#603 = PLANE('',#604);
#604 = AXIS2_PLACEMENT_3D('',#605,#606,#607);
#605 = CARTESIAN_POINT('',(-7.868270540117,117.86827054011,-9.5));
#606 = DIRECTION('',(4.410223024625E-16,-4.4E-16,1.));
#607 = DIRECTION('',(-1.,-5.6E-16,4.410223024625E-16));
#608 = ADVANCED_FACE('',(#609),#620,.F.);
#609 = FACE_BOUND('',#610,.F.);
#610 = EDGE_LOOP('',(#611,#612,#618,#619));
#611 = ORIENTED_EDGE('',*,*,#483,.F.);
#612 = ORIENTED_EDGE('',*,*,#613,.T.);
#613 = EDGE_CURVE('',#484,#589,#614,.T.);
#614 = LINE('',#615,#616);
#615 = CARTESIAN_POINT('',(-3.797176801983,118.81486780299,-7.5));
#616 = VECTOR('',#617,1.);
#617 = DIRECTION('',(-4.410223024625E-16,6.7E-16,-1.));
#618 = ORIENTED_EDGE('',*,*,#588,.T.);
#619 = ORIENTED_EDGE('',*,*,#141,.F.);
#620 = PLANE('',#621);
#621 = AXIS2_PLACEMENT_3D('',#622,#623,#624);
#622 = CARTESIAN_POINT('',(-3.797176801983,118.81486780299,-7.5));
#623 = DIRECTION('',(0.953716950748,-0.300705799504,1.60411614823E-15));
#624 = DIRECTION('',(0.300705799504,0.953716950748,-8.033850502248E-16)
  );
#625 = ADVANCED_FACE('',(#626),#632,.F.);
#626 = FACE_BOUND('',#627,.F.);
#627 = EDGE_LOOP('',(#628,#629,#630,#631));
#628 = ORIENTED_EDGE('',*,*,#229,.F.);
#629 = ORIENTED_EDGE('',*,*,#283,.F.);
#630 = ORIENTED_EDGE('',*,*,#325,.T.);
#631 = ORIENTED_EDGE('',*,*,#563,.T.);
#632 = CYLINDRICAL_SURFACE('',#633,12.05);
#633 = AXIS2_PLACEMENT_3D('',#634,#635,#636);
#634 = CARTESIAN_POINT('',(-5.,115.,-7.5));
#635 = DIRECTION('',(3.310223024625E-16,1.1E-16,1.));
#636 = DIRECTION('',(7.8E-16,1.,-1.1E-16));
#637 = ADVANCED_FACE('',(#638),#650,.T.);
#638 = FACE_BOUND('',#639,.T.);
#639 = EDGE_LOOP('',(#640,#641,#642,#643));
#640 = ORIENTED_EDGE('',*,*,#448,.T.);
#641 = ORIENTED_EDGE('',*,*,#309,.T.);
#642 = ORIENTED_EDGE('',*,*,#362,.F.);
#643 = ORIENTED_EDGE('',*,*,#644,.F.);
#644 = EDGE_CURVE('',#440,#363,#645,.T.);
#645 = CIRCLE('',#646,11.75);
#646 = AXIS2_PLACEMENT_3D('',#647,#648,#649);
#647 = CARTESIAN_POINT('',(-5.,115.,-11.5));
#648 = DIRECTION('',(1.228977697537E-15,-3.8E-16,-1.));
#649 = DIRECTION('',(0.870148351259,0.492789860693,8.821327701828E-16));
#650 = CONICAL_SURFACE('',#651,13.25,0.785398163397);
#651 = AXIS2_PLACEMENT_3D('',#652,#653,#654);
#652 = CARTESIAN_POINT('',(-5.,115.,-10.));
#653 = DIRECTION('',(-3.389776975375E-16,-5.1E-16,1.));
#654 = DIRECTION('',(0.870148351259,0.492789860693,5.462837135791E-16));
#655 = ADVANCED_FACE('',(#656,#662),#673,.T.);
#656 = FACE_BOUND('',#657,.T.);
#657 = EDGE_LOOP('',(#658,#659,#660,#661));
#658 = ORIENTED_EDGE('',*,*,#371,.T.);
#659 = ORIENTED_EDGE('',*,*,#396,.T.);
#660 = ORIENTED_EDGE('',*,*,#439,.T.);
#661 = ORIENTED_EDGE('',*,*,#644,.T.);
#662 = FACE_BOUND('',#663,.T.);
#663 = EDGE_LOOP('',(#664));
#664 = ORIENTED_EDGE('',*,*,#665,.F.);
#665 = EDGE_CURVE('',#666,#666,#668,.T.);
#666 = VERTEX_POINT('',#667);
#667 = CARTESIAN_POINT('',(-5.,113.25,-11.5));
#668 = CIRCLE('',#669,1.75);
#669 = AXIS2_PLACEMENT_3D('',#670,#671,#672);
#670 = CARTESIAN_POINT('',(-5.,115.,-11.5));
#671 = DIRECTION('',(1.558977697537E-15,-1.55E-15,-1.));
#672 = DIRECTION('',(-1.22E-15,-1.,1.55E-15));
#673 = PLANE('',#674);
#674 = AXIS2_PLACEMENT_3D('',#675,#676,#677);
#675 = CARTESIAN_POINT('',(-2.741975065588,112.74197506558,-11.5));
#676 = DIRECTION('',(3.389776975375E-16,5.1E-16,-1.));
#677 = DIRECTION('',(1.,3.3E-16,3.389776975375E-16));
#678 = ADVANCED_FACE('',(#679),#685,.T.);
#679 = FACE_BOUND('',#680,.F.);
#680 = EDGE_LOOP('',(#681,#682,#683,#684));
#681 = ORIENTED_EDGE('',*,*,#491,.F.);
#682 = ORIENTED_EDGE('',*,*,#539,.T.);
#683 = ORIENTED_EDGE('',*,*,#596,.T.);
#684 = ORIENTED_EDGE('',*,*,#613,.F.);
#685 = CYLINDRICAL_SURFACE('',#686,4.);
#686 = AXIS2_PLACEMENT_3D('',#687,#688,#689);
#687 = CARTESIAN_POINT('',(-5.,115.,-7.5));
#688 = DIRECTION('',(2.210223024625E-16,-4.4E-16,1.));
#689 = DIRECTION('',(-1.22E-15,-1.,-4.4E-16));
#690 = ADVANCED_FACE('',(#691),#702,.F.);
#691 = FACE_BOUND('',#692,.T.);
#692 = EDGE_LOOP('',(#693,#699,#700,#701));
#693 = ORIENTED_EDGE('',*,*,#694,.T.);
#694 = EDGE_CURVE('',#511,#666,#695,.T.);
#695 = LINE('',#696,#697);
#696 = CARTESIAN_POINT('',(-5.,113.25,-7.5));
#697 = VECTOR('',#698,1.);
#698 = DIRECTION('',(-4.410223024625E-16,6.7E-16,-1.));
#699 = ORIENTED_EDGE('',*,*,#665,.T.);
#700 = ORIENTED_EDGE('',*,*,#694,.F.);
#701 = ORIENTED_EDGE('',*,*,#510,.F.);
#702 = CYLINDRICAL_SURFACE('',#703,1.75);
#703 = AXIS2_PLACEMENT_3D('',#704,#705,#706);
#704 = CARTESIAN_POINT('',(-5.,115.,-7.5));
#705 = DIRECTION('',(2.210223024625E-16,-4.4E-16,1.));
#706 = DIRECTION('',(-1.22E-15,-1.,-4.4E-16));
#707 = ADVANCED_FACE('',(#708),#727,.T.);
#708 = FACE_BOUND('',#709,.F.);
#709 = EDGE_LOOP('',(#710,#718,#725,#726));
#710 = ORIENTED_EDGE('',*,*,#711,.T.);
#711 = EDGE_CURVE('',#522,#712,#714,.T.);
#712 = VERTEX_POINT('',#713);
#713 = CARTESIAN_POINT('',(-1.,112.875,-5.5));
#714 = LINE('',#715,#716);
#715 = CARTESIAN_POINT('',(-1.,112.875,-7.5));
#716 = VECTOR('',#717,1.);
#717 = DIRECTION('',(1.022302462516E-18,-2.2E-16,1.));
#718 = ORIENTED_EDGE('',*,*,#719,.T.);
#719 = EDGE_CURVE('',#712,#712,#720,.T.);
#720 = CIRCLE('',#721,1.875);
#721 = AXIS2_PLACEMENT_3D('',#722,#723,#724);
#722 = CARTESIAN_POINT('',(-1.,111.,-5.5));
#723 = DIRECTION('',(-2.189776975375E-16,2.2E-16,1.));
#724 = DIRECTION('',(3.3E-16,1.,-2.2E-16));
#725 = ORIENTED_EDGE('',*,*,#711,.F.);
#726 = ORIENTED_EDGE('',*,*,#521,.F.);
#727 = CYLINDRICAL_SURFACE('',#728,1.875);
#728 = AXIS2_PLACEMENT_3D('',#729,#730,#731);
#729 = CARTESIAN_POINT('',(-1.,111.,-7.5));
#730 = DIRECTION('',(2.189776975375E-16,-0.,-1.));
#731 = DIRECTION('',(3.3E-16,1.,7.226264018737E-32));
#732 = ADVANCED_FACE('',(#733),#736,.T.);
#733 = FACE_BOUND('',#734,.T.);
#734 = EDGE_LOOP('',(#735));
#735 = ORIENTED_EDGE('',*,*,#719,.T.);
#736 = PLANE('',#737);
#737 = AXIS2_PLACEMENT_3D('',#738,#739,#740);
#738 = CARTESIAN_POINT('',(-1.,111.,-5.5));
#739 = DIRECTION('',(2.210223024625E-16,-2.2E-16,1.));
#740 = DIRECTION('',(-1.,-1.1E-16,2.210223024625E-16));
#741 = ( GEOMETRIC_REPRESENTATION_CONTEXT(3) 
GLOBAL_UNCERTAINTY_ASSIGNED_CONTEXT((#745)) GLOBAL_UNIT_ASSIGNED_CONTEXT
((#742,#743,#744)) REPRESENTATION_CONTEXT('Context #1',
  '3D Context with UNIT and UNCERTAINTY') );
#742 = ( LENGTH_UNIT() NAMED_UNIT(*) SI_UNIT(.MILLI.,.METRE.) );
#743 = ( NAMED_UNIT(*) PLANE_ANGLE_UNIT() SI_UNIT($,.RADIAN.) );
#744 = ( NAMED_UNIT(*) SI_UNIT($,.STERADIAN.) SOLID_ANGLE_UNIT() );
#745 = UNCERTAINTY_MEASURE_WITH_UNIT(LENGTH_MEASURE(1.E-07),#742,
  'distance_accuracy_value','confusion accuracy');
#746 = PRODUCT_RELATED_PRODUCT_CATEGORY('part',$,(#7));
ENDSEC;
END-ISO-10303-21;
