ISO-10303-21;
HEADER;
FILE_DESCRIPTION(('FreeCAD Model'),'2;1');
FILE_NAME('Open CASCADE Shape Model','2025-09-25T17:21:29',('FreeCAD'),(
    'FreeCAD'),'Open CASCADE STEP processor 7.8','FreeCAD','Unknown');
FILE_SCHEMA(('AUTOMOTIVE_DESIGN { 1 0 10303 214 1 1 1 1 }'));
ENDSEC;
DATA;
#1 = APPLICATION_PROTOCOL_DEFINITION('international standard',
  'automotive_design',2000,#2);
#2 = APPLICATION_CONTEXT(
  'core data for automotive mechanical design processes');
#3 = SHAPE_DEFINITION_REPRESENTATION(#4,#10);
#4 = PRODUCT_DEFINITION_SHAPE('','',#5);
#5 = PRODUCT_DEFINITION('design','',#6,#9);
#6 = PRODUCT_DEFINITION_FORMATION('','',#7);
#7 = PRODUCT('Open CASCADE STEP translator 7.8 6',
  'Open CASCADE STEP translator 7.8 6','',(#8));
#8 = PRODUCT_CONTEXT('',#2,'mechanical');
#9 = PRODUCT_DEFINITION_CONTEXT('part definition',#2,'design');
#10 = ADVANCED_BREP_SHAPE_REPRESENTATION('',(#11,#15),#906);
#11 = AXIS2_PLACEMENT_3D('',#12,#13,#14);
#12 = CARTESIAN_POINT('',(0.,0.,0.));
#13 = DIRECTION('',(0.,0.,1.));
#14 = DIRECTION('',(1.,0.,-0.));
#15 = MANIFOLD_SOLID_BREP('',#16);
#16 = CLOSED_SHELL('',(#17,#98,#158,#184,#223,#248,#297,#322,#365,#390,
    #407,#431,#460,#485,#509,#568,#592,#644,#661,#730,#762,#796,#814,
    #831,#848,#860,#877,#894));
#17 = ADVANCED_FACE('',(#18),#93,.F.);
#18 = FACE_BOUND('',#19,.F.);
#19 = EDGE_LOOP('',(#20,#30,#38,#46,#54,#62,#70,#78,#86));
#20 = ORIENTED_EDGE('',*,*,#21,.F.);
#21 = EDGE_CURVE('',#22,#24,#26,.T.);
#22 = VERTEX_POINT('',#23);
#23 = CARTESIAN_POINT('',(-3.,120.,-7.5));
#24 = VERTEX_POINT('',#25);
#25 = CARTESIAN_POINT('',(1.244997998398,120.,-7.5));
#26 = LINE('',#27,#28);
#27 = CARTESIAN_POINT('',(4.009858808627,120.,-7.5));
#28 = VECTOR('',#29,1.);
#29 = DIRECTION('',(1.,1.1E-16,4.389776975375E-16));
#30 = ORIENTED_EDGE('',*,*,#31,.F.);
#31 = EDGE_CURVE('',#32,#22,#34,.T.);
#32 = VERTEX_POINT('',#33);
#33 = CARTESIAN_POINT('',(-3.,120.,-10.6));
#34 = LINE('',#35,#36);
#35 = CARTESIAN_POINT('',(-3.,120.,-11.5));
#36 = VECTOR('',#37,1.);
#37 = DIRECTION('',(2.210223024625E-16,-4.4E-16,1.));
#38 = ORIENTED_EDGE('',*,*,#39,.T.);
#39 = EDGE_CURVE('',#32,#40,#42,.T.);
#40 = VERTEX_POINT('',#41);
#41 = CARTESIAN_POINT('',(7.270391191808,120.,-10.6));
#42 = LINE('',#43,#44);
#43 = CARTESIAN_POINT('',(3.,120.,-10.6));
#44 = VECTOR('',#45,1.);
#45 = DIRECTION('',(1.,1.1E-16,8.789776975375E-16));
#46 = ORIENTED_EDGE('',*,*,#47,.T.);
#47 = EDGE_CURVE('',#40,#48,#50,.T.);
#48 = VERTEX_POINT('',#49);
#49 = CARTESIAN_POINT('',(7.270391191808,120.,-8.5));
#50 = LINE('',#51,#52);
#51 = CARTESIAN_POINT('',(7.270391191808,120.,-7.5));
#52 = VECTOR('',#53,1.);
#53 = DIRECTION('',(-2.189776975375E-16,-6.6E-16,1.));
#54 = ORIENTED_EDGE('',*,*,#55,.F.);
#55 = EDGE_CURVE('',#56,#48,#58,.T.);
#56 = VERTEX_POINT('',#57);
#57 = CARTESIAN_POINT('',(5.963690072234,120.,-8.5));
#58 = LINE('',#59,#60);
#59 = CARTESIAN_POINT('',(4.009858808627,120.,-8.5));
#60 = VECTOR('',#61,1.);
#61 = DIRECTION('',(1.,1.1E-16,4.389776975375E-16));
#62 = ORIENTED_EDGE('',*,*,#63,.F.);
#63 = EDGE_CURVE('',#64,#56,#66,.T.);
#64 = VERTEX_POINT('',#65);
#65 = CARTESIAN_POINT('',(5.963690072234,120.,-9.5));
#66 = LINE('',#67,#68);
#67 = CARTESIAN_POINT('',(5.963690072234,120.,-7.5));
#68 = VECTOR('',#69,1.);
#69 = DIRECTION('',(1.022302462516E-18,-2.2E-16,1.));
#70 = ORIENTED_EDGE('',*,*,#71,.T.);
#71 = EDGE_CURVE('',#64,#72,#74,.T.);
#72 = VERTEX_POINT('',#73);
#73 = CARTESIAN_POINT('',(3.077747210702,120.,-9.5));
#74 = LINE('',#75,#76);
#75 = CARTESIAN_POINT('',(3.,120.,-9.5));
#76 = VECTOR('',#77,1.);
#77 = DIRECTION('',(-1.,2.2E-16,-2.189776975375E-16));
#78 = ORIENTED_EDGE('',*,*,#79,.T.);
#79 = EDGE_CURVE('',#72,#80,#82,.T.);
#80 = VERTEX_POINT('',#81);
#81 = CARTESIAN_POINT('',(3.077747210702,120.,-9.));
#82 = LINE('',#83,#84);
#83 = CARTESIAN_POINT('',(3.077747210702,120.,-7.5));
#84 = VECTOR('',#85,1.);
#85 = DIRECTION('',(1.022302462516E-18,-2.2E-16,1.));
#86 = ORIENTED_EDGE('',*,*,#87,.F.);
#87 = EDGE_CURVE('',#24,#80,#88,.T.);
#88 = HYPERBOLA('',#89,5.,5.);
#89 = AXIS2_PLACEMENT_3D('',#90,#91,#92);
#90 = CARTESIAN_POINT('',(-5.,120.,0.5));
#91 = DIRECTION('',(-3.3E-16,-1.,-2.2E-16));
#92 = DIRECTION('',(2.189776975375E-16,2.2E-16,-1.));
#93 = PLANE('',#94);
#94 = AXIS2_PLACEMENT_3D('',#95,#96,#97);
#95 = CARTESIAN_POINT('',(11.,120.,-11.5));
#96 = DIRECTION('',(-3.3E-16,-1.,3.663735981263E-32));
#97 = DIRECTION('',(-1.,3.3E-16,-4.389776975375E-16));
#98 = ADVANCED_FACE('',(#99,#142),#153,.T.);
#99 = FACE_BOUND('',#100,.T.);
#100 = EDGE_LOOP('',(#101,#102,#110,#119,#127,#135));
#101 = ORIENTED_EDGE('',*,*,#21,.F.);
#102 = ORIENTED_EDGE('',*,*,#103,.T.);
#103 = EDGE_CURVE('',#22,#104,#106,.T.);
#104 = VERTEX_POINT('',#105);
#105 = CARTESIAN_POINT('',(-5.,120.,-7.5));
#106 = LINE('',#107,#108);
#107 = CARTESIAN_POINT('',(-3.,120.,-7.5));
#108 = VECTOR('',#109,1.);
#109 = DIRECTION('',(-1.,-1.1E-16,-2.189776975375E-16));
#110 = ORIENTED_EDGE('',*,*,#111,.F.);
#111 = EDGE_CURVE('',#112,#104,#114,.T.);
#112 = VERTEX_POINT('',#113);
#113 = CARTESIAN_POINT('',(-10.,115.,-7.5));
#114 = CIRCLE('',#115,5.);
#115 = AXIS2_PLACEMENT_3D('',#116,#117,#118);
#116 = CARTESIAN_POINT('',(-5.,115.,-7.5));
#117 = DIRECTION('',(2.189776975375E-16,-2.2E-16,-1.));
#118 = DIRECTION('',(-3.3E-16,-1.,2.2E-16));
#119 = ORIENTED_EDGE('',*,*,#120,.T.);
#120 = EDGE_CURVE('',#112,#121,#123,.T.);
#121 = VERTEX_POINT('',#122);
#122 = CARTESIAN_POINT('',(-10.,113.,-7.5));
#123 = LINE('',#124,#125);
#124 = CARTESIAN_POINT('',(-10.,115.,-7.5));
#125 = VECTOR('',#126,1.);
#126 = DIRECTION('',(-3.3E-16,-1.,2.2E-16));
#127 = ORIENTED_EDGE('',*,*,#128,.F.);
#128 = EDGE_CURVE('',#129,#121,#131,.T.);
#129 = VERTEX_POINT('',#130);
#130 = CARTESIAN_POINT('',(-10.,108.7550020016,-7.5));
#131 = LINE('',#132,#133);
#132 = CARTESIAN_POINT('',(-10.,112.99014119137,-7.5));
#133 = VECTOR('',#134,1.);
#134 = DIRECTION('',(5.5E-16,1.,4.5E-16));
#135 = ORIENTED_EDGE('',*,*,#136,.T.);
#136 = EDGE_CURVE('',#129,#24,#137,.T.);
#137 = CIRCLE('',#138,8.);
#138 = AXIS2_PLACEMENT_3D('',#139,#140,#141);
#139 = CARTESIAN_POINT('',(-5.,115.,-7.5));
#140 = DIRECTION('',(-2.189776975375E-16,-1.232595164408E-32,1.));
#141 = DIRECTION('',(-0.526315789474,-0.850289180074,-1.152514197566E-16
    ));
#142 = FACE_BOUND('',#143,.T.);
#143 = EDGE_LOOP('',(#144));
#144 = ORIENTED_EDGE('',*,*,#145,.T.);
#145 = EDGE_CURVE('',#146,#146,#148,.T.);
#146 = VERTEX_POINT('',#147);
#147 = CARTESIAN_POINT('',(-5.,113.25,-7.5));
#148 = CIRCLE('',#149,1.75);
#149 = AXIS2_PLACEMENT_3D('',#150,#151,#152);
#150 = CARTESIAN_POINT('',(-5.,115.,-7.5));
#151 = DIRECTION('',(2.189776975375E-16,-2.2E-16,-1.));
#152 = DIRECTION('',(-3.3E-16,-1.,2.2E-16));
#153 = PLANE('',#154);
#154 = AXIS2_PLACEMENT_3D('',#155,#156,#157);
#155 = CARTESIAN_POINT('',(-2.980282382746,112.98028238274,-7.5));
#156 = DIRECTION('',(2.210223024625E-16,-2.2E-16,1.));
#157 = DIRECTION('',(-1.,-1.1E-16,2.210223024625E-16));
#158 = ADVANCED_FACE('',(#159),#179,.T.);
#159 = FACE_BOUND('',#160,.F.);
#160 = EDGE_LOOP('',(#161,#170,#171,#172));
#161 = ORIENTED_EDGE('',*,*,#162,.F.);
#162 = EDGE_CURVE('',#129,#163,#165,.T.);
#163 = VERTEX_POINT('',#164);
#164 = CARTESIAN_POINT('',(-10.,106.92225278929,-9.));
#165 = HYPERBOLA('',#166,5.,5.);
#166 = AXIS2_PLACEMENT_3D('',#167,#168,#169);
#167 = CARTESIAN_POINT('',(-10.,115.,0.5));
#168 = DIRECTION('',(-1.,3.3E-16,-2.189776975375E-16));
#169 = DIRECTION('',(2.189776975375E-16,0.,-1.));
#170 = ORIENTED_EDGE('',*,*,#136,.T.);
#171 = ORIENTED_EDGE('',*,*,#87,.T.);
#172 = ORIENTED_EDGE('',*,*,#173,.F.);
#173 = EDGE_CURVE('',#163,#80,#174,.T.);
#174 = CIRCLE('',#175,9.5);
#175 = AXIS2_PLACEMENT_3D('',#176,#177,#178);
#176 = CARTESIAN_POINT('',(-5.,115.,-9.));
#177 = DIRECTION('',(-2.189776975375E-16,-1.232595164408E-32,1.));
#178 = DIRECTION('',(-0.526315789474,-0.850289180074,-1.152514197566E-16
    ));
#179 = CONICAL_SURFACE('',#180,9.5,0.785398163397);
#180 = AXIS2_PLACEMENT_3D('',#181,#182,#183);
#181 = CARTESIAN_POINT('',(-5.,115.,-9.));
#182 = DIRECTION('',(2.189776975375E-16,-0.,-1.));
#183 = DIRECTION('',(-0.526315789474,-0.850289180074,-1.152514197566E-16
    ));
#184 = ADVANCED_FACE('',(#185),#218,.T.);
#185 = FACE_BOUND('',#186,.T.);
#186 = EDGE_LOOP('',(#187,#195,#203,#211,#217));
#187 = ORIENTED_EDGE('',*,*,#188,.F.);
#188 = EDGE_CURVE('',#189,#32,#191,.T.);
#189 = VERTEX_POINT('',#190);
#190 = CARTESIAN_POINT('',(-3.,121.5,-9.1));
#191 = LINE('',#192,#193);
#192 = CARTESIAN_POINT('',(-3.,120.05,-10.55));
#193 = VECTOR('',#194,1.);
#194 = DIRECTION('',(-5.485046229342E-16,-0.707106781187,-0.707106781187
    ));
#195 = ORIENTED_EDGE('',*,*,#196,.T.);
#196 = EDGE_CURVE('',#189,#197,#199,.T.);
#197 = VERTEX_POINT('',#198);
#198 = CARTESIAN_POINT('',(-3.,121.5,-1.5));
#199 = LINE('',#200,#201);
#200 = CARTESIAN_POINT('',(-3.,121.5,-8.6));
#201 = VECTOR('',#202,1.);
#202 = DIRECTION('',(1.022302462516E-18,-8.9E-16,1.));
#203 = ORIENTED_EDGE('',*,*,#204,.T.);
#204 = EDGE_CURVE('',#197,#205,#207,.T.);
#205 = VERTEX_POINT('',#206);
#206 = CARTESIAN_POINT('',(-3.,120.,-1.5));
#207 = LINE('',#208,#209);
#208 = CARTESIAN_POINT('',(-3.,122.,-1.5));
#209 = VECTOR('',#210,1.);
#210 = DIRECTION('',(-3.3E-16,-1.,2.2E-16));
#211 = ORIENTED_EDGE('',*,*,#212,.F.);
#212 = EDGE_CURVE('',#22,#205,#213,.T.);
#213 = LINE('',#214,#215);
#214 = CARTESIAN_POINT('',(-3.,120.,-7.5));
#215 = VECTOR('',#216,1.);
#216 = DIRECTION('',(2.210223024625E-16,-4.4E-16,1.));
#217 = ORIENTED_EDGE('',*,*,#31,.F.);
#218 = PLANE('',#219);
#219 = AXIS2_PLACEMENT_3D('',#220,#221,#222);
#220 = CARTESIAN_POINT('',(-3.,120.90489065168,-5.757106781187));
#221 = DIRECTION('',(1.,-1.18E-15,-3.361022302463E-15));
#222 = DIRECTION('',(-3.361022302463E-15,2.2E-16,-1.));
#223 = ADVANCED_FACE('',(#224),#243,.T.);
#224 = FACE_BOUND('',#225,.T.);
#225 = EDGE_LOOP('',(#226,#227,#228,#236));
#226 = ORIENTED_EDGE('',*,*,#79,.T.);
#227 = ORIENTED_EDGE('',*,*,#173,.F.);
#228 = ORIENTED_EDGE('',*,*,#229,.F.);
#229 = EDGE_CURVE('',#230,#163,#232,.T.);
#230 = VERTEX_POINT('',#231);
#231 = CARTESIAN_POINT('',(-10.,106.92225278929,-9.5));
#232 = LINE('',#233,#234);
#233 = CARTESIAN_POINT('',(-10.,106.92225278929,-7.5));
#234 = VECTOR('',#235,1.);
#235 = DIRECTION('',(1.022302462516E-18,-2.2E-16,1.));
#236 = ORIENTED_EDGE('',*,*,#237,.T.);
#237 = EDGE_CURVE('',#230,#72,#238,.T.);
#238 = CIRCLE('',#239,9.5);
#239 = AXIS2_PLACEMENT_3D('',#240,#241,#242);
#240 = CARTESIAN_POINT('',(-5.,115.,-9.5));
#241 = DIRECTION('',(-2.189776975375E-16,2.2E-16,1.));
#242 = DIRECTION('',(3.3E-16,1.,-2.2E-16));
#243 = CYLINDRICAL_SURFACE('',#244,9.5);
#244 = AXIS2_PLACEMENT_3D('',#245,#246,#247);
#245 = CARTESIAN_POINT('',(-5.,115.,-7.5));
#246 = DIRECTION('',(1.022302462516E-18,-2.2E-16,1.));
#247 = DIRECTION('',(5.5E-16,1.,2.2E-16));
#248 = ADVANCED_FACE('',(#249),#292,.F.);
#249 = FACE_BOUND('',#250,.F.);
#250 = EDGE_LOOP('',(#251,#261,#269,#277,#284,#285,#286));
#251 = ORIENTED_EDGE('',*,*,#252,.F.);
#252 = EDGE_CURVE('',#253,#255,#257,.T.);
#253 = VERTEX_POINT('',#254);
#254 = CARTESIAN_POINT('',(-5.,122.,-8.6));
#255 = VERTEX_POINT('',#256);
#256 = CARTESIAN_POINT('',(-3.5,122.,-8.6));
#257 = LINE('',#258,#259);
#258 = CARTESIAN_POINT('',(-5.,122.,-8.6));
#259 = VECTOR('',#260,1.);
#260 = DIRECTION('',(1.,0.,7.789776975375E-16));
#261 = ORIENTED_EDGE('',*,*,#262,.F.);
#262 = EDGE_CURVE('',#263,#253,#265,.T.);
#263 = VERTEX_POINT('',#264);
#264 = CARTESIAN_POINT('',(-5.,119.1,-11.5));
#265 = LINE('',#266,#267);
#266 = CARTESIAN_POINT('',(-5.,122.,-8.6));
#267 = VECTOR('',#268,1.);
#268 = DIRECTION('',(-5.149537706581E-17,0.707106781187,0.707106781187)
  );
#269 = ORIENTED_EDGE('',*,*,#270,.T.);
#270 = EDGE_CURVE('',#263,#271,#273,.T.);
#271 = VERTEX_POINT('',#272);
#272 = CARTESIAN_POINT('',(7.599702377437,119.1,-11.5));
#273 = LINE('',#274,#275);
#274 = CARTESIAN_POINT('',(-5.,119.1,-11.5));
#275 = VECTOR('',#276,1.);
#276 = DIRECTION('',(1.,0.,7.789776975375E-16));
#277 = ORIENTED_EDGE('',*,*,#278,.T.);
#278 = EDGE_CURVE('',#271,#40,#279,.T.);
#279 = ELLIPSE('',#280,18.738329701443,13.25);
#280 = AXIS2_PLACEMENT_3D('',#281,#282,#283);
#281 = CARTESIAN_POINT('',(-5.,115.,-15.6));
#282 = DIRECTION('',(-2.314953770658E-16,-0.707106781187,0.707106781187)
  );
#283 = DIRECTION('',(6.850462293419E-17,0.707106781187,0.707106781187));
#284 = ORIENTED_EDGE('',*,*,#39,.F.);
#285 = ORIENTED_EDGE('',*,*,#188,.F.);
#286 = ORIENTED_EDGE('',*,*,#287,.F.);
#287 = EDGE_CURVE('',#255,#189,#288,.T.);
#288 = LINE('',#289,#290);
#289 = CARTESIAN_POINT('',(-3.183333333333,121.68333333333,
    -8.916666666667));
#290 = VECTOR('',#291,1.);
#291 = DIRECTION('',(0.57735026919,-0.57735026919,-0.57735026919));
#292 = PLANE('',#293);
#293 = AXIS2_PLACEMENT_3D('',#294,#295,#296);
#294 = CARTESIAN_POINT('',(-5.,120.55,-10.05));
#295 = DIRECTION('',(-2.314953770658E-16,-0.707106781187,0.707106781187)
  );
#296 = DIRECTION('',(1.,2.257968978322E-16,5.531807997053E-16));
#297 = ADVANCED_FACE('',(#298),#317,.T.);
#298 = FACE_BOUND('',#299,.T.);
#299 = EDGE_LOOP('',(#300,#308,#315,#316));
#300 = ORIENTED_EDGE('',*,*,#301,.T.);
#301 = EDGE_CURVE('',#230,#302,#304,.T.);
#302 = VERTEX_POINT('',#303);
#303 = CARTESIAN_POINT('',(-10.,104.03630992776,-9.5));
#304 = LINE('',#305,#306);
#305 = CARTESIAN_POINT('',(-10.,114.,-9.5));
#306 = VECTOR('',#307,1.);
#307 = DIRECTION('',(-6.6E-16,-1.,7.327471962526E-32));
#308 = ORIENTED_EDGE('',*,*,#309,.T.);
#309 = EDGE_CURVE('',#302,#64,#310,.T.);
#310 = CIRCLE('',#311,12.05);
#311 = AXIS2_PLACEMENT_3D('',#312,#313,#314);
#312 = CARTESIAN_POINT('',(-5.,115.,-9.5));
#313 = DIRECTION('',(-2.189776975375E-16,2.2E-16,1.));
#314 = DIRECTION('',(3.3E-16,1.,-2.2E-16));
#315 = ORIENTED_EDGE('',*,*,#71,.T.);
#316 = ORIENTED_EDGE('',*,*,#237,.F.);
#317 = PLANE('',#318);
#318 = AXIS2_PLACEMENT_3D('',#319,#320,#321);
#319 = CARTESIAN_POINT('',(-5.,115.,-9.5));
#320 = DIRECTION('',(2.210223024625E-16,-2.2E-16,1.));
#321 = DIRECTION('',(-1.,-1.1E-16,2.210223024625E-16));
#322 = ADVANCED_FACE('',(#323),#360,.T.);
#323 = FACE_BOUND('',#324,.F.);
#324 = EDGE_LOOP('',(#325,#326,#327,#336,#345,#353));
#325 = ORIENTED_EDGE('',*,*,#47,.F.);
#326 = ORIENTED_EDGE('',*,*,#278,.F.);
#327 = ORIENTED_EDGE('',*,*,#328,.T.);
#328 = EDGE_CURVE('',#271,#329,#331,.T.);
#329 = VERTEX_POINT('',#330);
#330 = CARTESIAN_POINT('',(-9.1,102.40029762256,-11.5));
#331 = CIRCLE('',#332,13.25);
#332 = AXIS2_PLACEMENT_3D('',#333,#334,#335);
#333 = CARTESIAN_POINT('',(-5.,115.,-11.5));
#334 = DIRECTION('',(2.189776975375E-16,-2.2E-16,-1.));
#335 = DIRECTION('',(-3.3E-16,-1.,2.2E-16));
#336 = ORIENTED_EDGE('',*,*,#337,.T.);
#337 = EDGE_CURVE('',#329,#338,#340,.T.);
#338 = VERTEX_POINT('',#339);
#339 = CARTESIAN_POINT('',(-10.,102.72960880819,-10.6));
#340 = ELLIPSE('',#341,18.738329701444,13.25);
#341 = AXIS2_PLACEMENT_3D('',#342,#343,#344);
#342 = CARTESIAN_POINT('',(-5.,115.,-15.6));
#343 = DIRECTION('',(-0.707106781187,9.8E-16,-0.707106781187));
#344 = DIRECTION('',(-0.707106781187,3.5E-16,0.707106781187));
#345 = ORIENTED_EDGE('',*,*,#346,.T.);
#346 = EDGE_CURVE('',#338,#347,#349,.T.);
#347 = VERTEX_POINT('',#348);
#348 = CARTESIAN_POINT('',(-10.,102.72960880819,-8.5));
#349 = LINE('',#350,#351);
#350 = CARTESIAN_POINT('',(-10.,102.72960880819,-7.5));
#351 = VECTOR('',#352,1.);
#352 = DIRECTION('',(-2.189776975375E-16,-6.6E-16,1.));
#353 = ORIENTED_EDGE('',*,*,#354,.F.);
#354 = EDGE_CURVE('',#48,#347,#355,.T.);
#355 = CIRCLE('',#356,13.25);
#356 = AXIS2_PLACEMENT_3D('',#357,#358,#359);
#357 = CARTESIAN_POINT('',(-5.,115.,-8.5));
#358 = DIRECTION('',(2.189776975375E-16,-2.2E-16,-1.));
#359 = DIRECTION('',(-3.3E-16,-1.,2.2E-16));
#360 = CYLINDRICAL_SURFACE('',#361,13.25);
#361 = AXIS2_PLACEMENT_3D('',#362,#363,#364);
#362 = CARTESIAN_POINT('',(-5.,115.,-7.5));
#363 = DIRECTION('',(1.022302462516E-18,-2.2E-16,1.));
#364 = DIRECTION('',(-5.5E-16,-1.,-2.2E-16));
#365 = ADVANCED_FACE('',(#366),#385,.F.);
#366 = FACE_BOUND('',#367,.F.);
#367 = EDGE_LOOP('',(#368,#377,#383,#384));
#368 = ORIENTED_EDGE('',*,*,#369,.F.);
#369 = EDGE_CURVE('',#370,#56,#372,.T.);
#370 = VERTEX_POINT('',#371);
#371 = CARTESIAN_POINT('',(-10.,104.03630992776,-8.5));
#372 = CIRCLE('',#373,12.05);
#373 = AXIS2_PLACEMENT_3D('',#374,#375,#376);
#374 = CARTESIAN_POINT('',(-5.,115.,-8.5));
#375 = DIRECTION('',(-2.189776975375E-16,2.2E-16,1.));
#376 = DIRECTION('',(3.3E-16,1.,-2.2E-16));
#377 = ORIENTED_EDGE('',*,*,#378,.F.);
#378 = EDGE_CURVE('',#302,#370,#379,.T.);
#379 = LINE('',#380,#381);
#380 = CARTESIAN_POINT('',(-10.,104.03630992776,-7.5));
#381 = VECTOR('',#382,1.);
#382 = DIRECTION('',(1.022302462516E-18,-2.2E-16,1.));
#383 = ORIENTED_EDGE('',*,*,#309,.T.);
#384 = ORIENTED_EDGE('',*,*,#63,.T.);
#385 = CYLINDRICAL_SURFACE('',#386,12.05);
#386 = AXIS2_PLACEMENT_3D('',#387,#388,#389);
#387 = CARTESIAN_POINT('',(-5.,115.,-7.5));
#388 = DIRECTION('',(1.022302462516E-18,-2.2E-16,1.));
#389 = DIRECTION('',(5.5E-16,1.,2.2E-16));
#390 = ADVANCED_FACE('',(#391),#402,.T.);
#391 = FACE_BOUND('',#392,.T.);
#392 = EDGE_LOOP('',(#393,#394,#400,#401));
#393 = ORIENTED_EDGE('',*,*,#369,.F.);
#394 = ORIENTED_EDGE('',*,*,#395,.F.);
#395 = EDGE_CURVE('',#347,#370,#396,.T.);
#396 = LINE('',#397,#398);
#397 = CARTESIAN_POINT('',(-10.,112.99014119137,-8.5));
#398 = VECTOR('',#399,1.);
#399 = DIRECTION('',(5.5E-16,1.,4.5E-16));
#400 = ORIENTED_EDGE('',*,*,#354,.F.);
#401 = ORIENTED_EDGE('',*,*,#55,.F.);
#402 = PLANE('',#403);
#403 = AXIS2_PLACEMENT_3D('',#404,#405,#406);
#404 = CARTESIAN_POINT('',(-2.980282382746,112.98028238274,-8.5));
#405 = DIRECTION('',(2.210223024625E-16,-2.2E-16,1.));
#406 = DIRECTION('',(-1.,-1.1E-16,2.210223024625E-16));
#407 = ADVANCED_FACE('',(#408),#426,.T.);
#408 = FACE_BOUND('',#409,.T.);
#409 = EDGE_LOOP('',(#410,#411,#419,#425));
#410 = ORIENTED_EDGE('',*,*,#212,.T.);
#411 = ORIENTED_EDGE('',*,*,#412,.T.);
#412 = EDGE_CURVE('',#205,#413,#415,.T.);
#413 = VERTEX_POINT('',#414);
#414 = CARTESIAN_POINT('',(-5.,120.,-1.5));
#415 = LINE('',#416,#417);
#416 = CARTESIAN_POINT('',(-3.,120.,-1.5));
#417 = VECTOR('',#418,1.);
#418 = DIRECTION('',(-1.,-1.1E-16,-2.189776975375E-16));
#419 = ORIENTED_EDGE('',*,*,#420,.F.);
#420 = EDGE_CURVE('',#104,#413,#421,.T.);
#421 = LINE('',#422,#423);
#422 = CARTESIAN_POINT('',(-5.,120.,-7.5));
#423 = VECTOR('',#424,1.);
#424 = DIRECTION('',(2.210223024625E-16,-4.4E-16,1.));
#425 = ORIENTED_EDGE('',*,*,#103,.F.);
#426 = PLANE('',#427);
#427 = AXIS2_PLACEMENT_3D('',#428,#429,#430);
#428 = CARTESIAN_POINT('',(-3.,120.,-7.5));
#429 = DIRECTION('',(-3.3E-16,-1.,3.663735981263E-32));
#430 = DIRECTION('',(-1.,3.3E-16,-4.389776975375E-16));
#431 = ADVANCED_FACE('',(#432),#455,.F.);
#432 = FACE_BOUND('',#433,.F.);
#433 = EDGE_LOOP('',(#434,#435,#436,#437,#438,#439,#447,#453,#454));
#434 = ORIENTED_EDGE('',*,*,#229,.F.);
#435 = ORIENTED_EDGE('',*,*,#301,.T.);
#436 = ORIENTED_EDGE('',*,*,#378,.T.);
#437 = ORIENTED_EDGE('',*,*,#395,.F.);
#438 = ORIENTED_EDGE('',*,*,#346,.F.);
#439 = ORIENTED_EDGE('',*,*,#440,.T.);
#440 = EDGE_CURVE('',#338,#441,#443,.T.);
#441 = VERTEX_POINT('',#442);
#442 = CARTESIAN_POINT('',(-10.,113.,-10.6));
#443 = LINE('',#444,#445);
#444 = CARTESIAN_POINT('',(-10.,108.375,-10.6));
#445 = VECTOR('',#446,1.);
#446 = DIRECTION('',(5.5E-16,1.,1.16E-15));
#447 = ORIENTED_EDGE('',*,*,#448,.T.);
#448 = EDGE_CURVE('',#441,#121,#449,.T.);
#449 = LINE('',#450,#451);
#450 = CARTESIAN_POINT('',(-10.,113.,-11.5));
#451 = VECTOR('',#452,1.);
#452 = DIRECTION('',(2.210223024625E-16,-4.4E-16,1.));
#453 = ORIENTED_EDGE('',*,*,#128,.F.);
#454 = ORIENTED_EDGE('',*,*,#162,.T.);
#455 = PLANE('',#456);
#456 = AXIS2_PLACEMENT_3D('',#457,#458,#459);
#457 = CARTESIAN_POINT('',(-10.,113.,-11.5));
#458 = DIRECTION('',(1.,-1.1E-16,2.189776975375E-16));
#459 = DIRECTION('',(-1.1E-16,-1.,2.2E-16));
#460 = ADVANCED_FACE('',(#461),#480,.F.);
#461 = FACE_BOUND('',#462,.F.);
#462 = EDGE_LOOP('',(#463,#471,#478,#479));
#463 = ORIENTED_EDGE('',*,*,#464,.T.);
#464 = EDGE_CURVE('',#112,#465,#467,.T.);
#465 = VERTEX_POINT('',#466);
#466 = CARTESIAN_POINT('',(-10.,115.,-1.5));
#467 = LINE('',#468,#469);
#468 = CARTESIAN_POINT('',(-10.,115.,-7.5));
#469 = VECTOR('',#470,1.);
#470 = DIRECTION('',(2.210223024625E-16,-4.4E-16,1.));
#471 = ORIENTED_EDGE('',*,*,#472,.T.);
#472 = EDGE_CURVE('',#465,#413,#473,.T.);
#473 = CIRCLE('',#474,5.);
#474 = AXIS2_PLACEMENT_3D('',#475,#476,#477);
#475 = CARTESIAN_POINT('',(-5.,115.,-1.5));
#476 = DIRECTION('',(2.189776975375E-16,-2.2E-16,-1.));
#477 = DIRECTION('',(-3.3E-16,-1.,2.2E-16));
#478 = ORIENTED_EDGE('',*,*,#420,.F.);
#479 = ORIENTED_EDGE('',*,*,#111,.F.);
#480 = CYLINDRICAL_SURFACE('',#481,5.);
#481 = AXIS2_PLACEMENT_3D('',#482,#483,#484);
#482 = CARTESIAN_POINT('',(-5.,115.,-7.5));
#483 = DIRECTION('',(-1.022302462516E-18,2.2E-16,-1.));
#484 = DIRECTION('',(-5.5E-16,-1.,-2.2E-16));
#485 = ADVANCED_FACE('',(#486),#504,.T.);
#486 = FACE_BOUND('',#487,.T.);
#487 = EDGE_LOOP('',(#488,#489,#497,#503));
#488 = ORIENTED_EDGE('',*,*,#464,.T.);
#489 = ORIENTED_EDGE('',*,*,#490,.T.);
#490 = EDGE_CURVE('',#465,#491,#493,.T.);
#491 = VERTEX_POINT('',#492);
#492 = CARTESIAN_POINT('',(-10.,113.,-1.5));
#493 = LINE('',#494,#495);
#494 = CARTESIAN_POINT('',(-10.,115.,-1.5));
#495 = VECTOR('',#496,1.);
#496 = DIRECTION('',(-3.3E-16,-1.,2.2E-16));
#497 = ORIENTED_EDGE('',*,*,#498,.F.);
#498 = EDGE_CURVE('',#121,#491,#499,.T.);
#499 = LINE('',#500,#501);
#500 = CARTESIAN_POINT('',(-10.,113.,-7.5));
#501 = VECTOR('',#502,1.);
#502 = DIRECTION('',(2.210223024625E-16,-4.4E-16,1.));
#503 = ORIENTED_EDGE('',*,*,#120,.F.);
#504 = PLANE('',#505);
#505 = AXIS2_PLACEMENT_3D('',#506,#507,#508);
#506 = CARTESIAN_POINT('',(-10.,115.,-7.5));
#507 = DIRECTION('',(1.,-1.1E-16,2.189776975375E-16));
#508 = DIRECTION('',(-1.1E-16,-1.,2.2E-16));
#509 = ADVANCED_FACE('',(#510),#563,.F.);
#510 = FACE_BOUND('',#511,.T.);
#511 = EDGE_LOOP('',(#512,#513,#521,#530,#538,#547,#555,#562));
#512 = ORIENTED_EDGE('',*,*,#145,.F.);
#513 = ORIENTED_EDGE('',*,*,#514,.T.);
#514 = EDGE_CURVE('',#146,#515,#517,.T.);
#515 = VERTEX_POINT('',#516);
#516 = CARTESIAN_POINT('',(-5.,113.25,-11.5));
#517 = LINE('',#518,#519);
#518 = CARTESIAN_POINT('',(-5.,113.25,-7.5));
#519 = VECTOR('',#520,1.);
#520 = DIRECTION('',(-2.210223024625E-16,4.4E-16,-1.));
#521 = ORIENTED_EDGE('',*,*,#522,.T.);
#522 = EDGE_CURVE('',#515,#523,#525,.T.);
#523 = VERTEX_POINT('',#524);
#524 = CARTESIAN_POINT('',(-6.272287026745,116.20157634862,-11.5));
#525 = CIRCLE('',#526,1.75);
#526 = AXIS2_PLACEMENT_3D('',#527,#528,#529);
#527 = CARTESIAN_POINT('',(-5.,115.,-11.5));
#528 = DIRECTION('',(2.189776975375E-16,-2.2E-16,-1.));
#529 = DIRECTION('',(-3.3E-16,-1.,2.2E-16));
#530 = ORIENTED_EDGE('',*,*,#531,.T.);
#531 = EDGE_CURVE('',#523,#532,#534,.T.);
#532 = VERTEX_POINT('',#533);
#533 = CARTESIAN_POINT('',(-6.272287026744,116.20157634862,-11.25));
#534 = LINE('',#535,#536);
#535 = CARTESIAN_POINT('',(-6.272287026745,116.20157634862,-7.5));
#536 = VECTOR('',#537,1.);
#537 = DIRECTION('',(-4.489776975375E-16,-1.11E-15,1.));
#538 = ORIENTED_EDGE('',*,*,#539,.F.);
#539 = EDGE_CURVE('',#540,#532,#542,.T.);
#540 = VERTEX_POINT('',#541);
#541 = CARTESIAN_POINT('',(-6.201576348625,116.27228702674,-11.25));
#542 = CIRCLE('',#543,1.75);
#543 = AXIS2_PLACEMENT_3D('',#544,#545,#546);
#544 = CARTESIAN_POINT('',(-5.,115.,-11.25));
#545 = DIRECTION('',(-8.889776975375E-16,-6.7E-16,1.));
#546 = DIRECTION('',(-1.88E-15,-1.,-6.7E-16));
#547 = ORIENTED_EDGE('',*,*,#548,.F.);
#548 = EDGE_CURVE('',#549,#540,#551,.T.);
#549 = VERTEX_POINT('',#550);
#550 = CARTESIAN_POINT('',(-6.201576348626,116.27228702674,-11.5));
#551 = LINE('',#552,#553);
#552 = CARTESIAN_POINT('',(-6.201576348626,116.27228702674,-7.5));
#553 = VECTOR('',#554,1.);
#554 = DIRECTION('',(-4.489776975375E-16,-1.11E-15,1.));
#555 = ORIENTED_EDGE('',*,*,#556,.T.);
#556 = EDGE_CURVE('',#549,#515,#557,.T.);
#557 = CIRCLE('',#558,1.75);
#558 = AXIS2_PLACEMENT_3D('',#559,#560,#561);
#559 = CARTESIAN_POINT('',(-5.,115.,-11.5));
#560 = DIRECTION('',(2.189776975375E-16,-2.2E-16,-1.));
#561 = DIRECTION('',(-3.3E-16,-1.,2.2E-16));
#562 = ORIENTED_EDGE('',*,*,#514,.F.);
#563 = CYLINDRICAL_SURFACE('',#564,1.75);
#564 = AXIS2_PLACEMENT_3D('',#565,#566,#567);
#565 = CARTESIAN_POINT('',(-5.,115.,-7.5));
#566 = DIRECTION('',(1.022302462516E-18,-2.2E-16,1.));
#567 = DIRECTION('',(-5.5E-16,-1.,-2.2E-16));
#568 = ADVANCED_FACE('',(#569),#587,.T.);
#569 = FACE_BOUND('',#570,.T.);
#570 = EDGE_LOOP('',(#571,#572,#580,#586));
#571 = ORIENTED_EDGE('',*,*,#287,.F.);
#572 = ORIENTED_EDGE('',*,*,#573,.T.);
#573 = EDGE_CURVE('',#255,#574,#576,.T.);
#574 = VERTEX_POINT('',#575);
#575 = CARTESIAN_POINT('',(-3.5,122.,-1.5));
#576 = LINE('',#577,#578);
#577 = CARTESIAN_POINT('',(-3.5,122.,-8.6));
#578 = VECTOR('',#579,1.);
#579 = DIRECTION('',(1.022302462516E-18,-8.9E-16,1.));
#580 = ORIENTED_EDGE('',*,*,#581,.T.);
#581 = EDGE_CURVE('',#574,#197,#582,.T.);
#582 = LINE('',#583,#584);
#583 = CARTESIAN_POINT('',(-3.623610323347,122.12361032334,-1.5));
#584 = VECTOR('',#585,1.);
#585 = DIRECTION('',(0.707106781187,-0.707106781187,1.495377065811E-18)
  );
#586 = ORIENTED_EDGE('',*,*,#196,.F.);
#587 = PLANE('',#588);
#588 = AXIS2_PLACEMENT_3D('',#589,#590,#591);
#589 = CARTESIAN_POINT('',(-3.25,121.75,-8.6));
#590 = DIRECTION('',(0.707106781187,0.707106781187,-2.318504622934E-15)
  );
#591 = DIRECTION('',(2.07994149232E-15,1.198919189858E-15,1.));
#592 = ADVANCED_FACE('',(#593),#639,.T.);
#593 = FACE_BOUND('',#594,.T.);
#594 = EDGE_LOOP('',(#595,#603,#604,#605,#606,#607,#608,#616,#625,#633)
  );
#595 = ORIENTED_EDGE('',*,*,#596,.F.);
#596 = EDGE_CURVE('',#491,#597,#599,.T.);
#597 = VERTEX_POINT('',#598);
#598 = CARTESIAN_POINT('',(-11.5,113.,-1.5));
#599 = LINE('',#600,#601);
#600 = CARTESIAN_POINT('',(-10.,113.,-1.5));
#601 = VECTOR('',#602,1.);
#602 = DIRECTION('',(-1.,-1.1E-16,-2.189776975375E-16));
#603 = ORIENTED_EDGE('',*,*,#490,.F.);
#604 = ORIENTED_EDGE('',*,*,#472,.T.);
#605 = ORIENTED_EDGE('',*,*,#412,.F.);
#606 = ORIENTED_EDGE('',*,*,#204,.F.);
#607 = ORIENTED_EDGE('',*,*,#581,.F.);
#608 = ORIENTED_EDGE('',*,*,#609,.F.);
#609 = EDGE_CURVE('',#610,#574,#612,.T.);
#610 = VERTEX_POINT('',#611);
#611 = CARTESIAN_POINT('',(-5.,122.,-1.5));
#612 = LINE('',#613,#614);
#613 = CARTESIAN_POINT('',(-5.,122.,-1.5));
#614 = VECTOR('',#615,1.);
#615 = DIRECTION('',(1.,1.1E-16,2.189776975375E-16));
#616 = ORIENTED_EDGE('',*,*,#617,.F.);
#617 = EDGE_CURVE('',#618,#610,#620,.T.);
#618 = VERTEX_POINT('',#619);
#619 = CARTESIAN_POINT('',(-12.,115.,-1.5));
#620 = CIRCLE('',#621,7.);
#621 = AXIS2_PLACEMENT_3D('',#622,#623,#624);
#622 = CARTESIAN_POINT('',(-5.,115.,-1.5));
#623 = DIRECTION('',(2.189776975375E-16,-2.2E-16,-1.));
#624 = DIRECTION('',(-3.3E-16,-1.,2.2E-16));
#625 = ORIENTED_EDGE('',*,*,#626,.F.);
#626 = EDGE_CURVE('',#627,#618,#629,.T.);
#627 = VERTEX_POINT('',#628);
#628 = CARTESIAN_POINT('',(-12.,113.5,-1.5));
#629 = LINE('',#630,#631);
#630 = CARTESIAN_POINT('',(-12.,113.,-1.5));
#631 = VECTOR('',#632,1.);
#632 = DIRECTION('',(3.3E-16,1.,-2.2E-16));
#633 = ORIENTED_EDGE('',*,*,#634,.F.);
#634 = EDGE_CURVE('',#597,#627,#635,.T.);
#635 = LINE('',#636,#637);
#636 = CARTESIAN_POINT('',(-12.12361032334,113.62361032334,-1.5));
#637 = VECTOR('',#638,1.);
#638 = DIRECTION('',(-0.707106781187,0.707106781187,-1.495377065811E-18)
  );
#639 = PLANE('',#640);
#640 = AXIS2_PLACEMENT_3D('',#641,#642,#643);
#641 = CARTESIAN_POINT('',(-8.247220646694,118.24722064669,-1.5));
#642 = DIRECTION('',(2.210223024625E-16,-2.2E-16,1.));
#643 = DIRECTION('',(-1.,-1.1E-16,2.210223024625E-16));
#644 = ADVANCED_FACE('',(#645),#656,.T.);
#645 = FACE_BOUND('',#646,.T.);
#646 = EDGE_LOOP('',(#647,#648,#654,#655));
#647 = ORIENTED_EDGE('',*,*,#252,.F.);
#648 = ORIENTED_EDGE('',*,*,#649,.F.);
#649 = EDGE_CURVE('',#610,#253,#650,.T.);
#650 = LINE('',#651,#652);
#651 = CARTESIAN_POINT('',(-5.,122.,-7.5));
#652 = VECTOR('',#653,1.);
#653 = DIRECTION('',(-1.110223024625E-16,6.6E-16,-1.));
#654 = ORIENTED_EDGE('',*,*,#609,.T.);
#655 = ORIENTED_EDGE('',*,*,#573,.F.);
#656 = PLANE('',#657);
#657 = AXIS2_PLACEMENT_3D('',#658,#659,#660);
#658 = CARTESIAN_POINT('',(-0.680882352941,122.,-7.805882352941));
#659 = DIRECTION('',(3.3E-16,1.,-2.2E-16));
#660 = DIRECTION('',(2.210223024625E-16,2.2E-16,1.));
#661 = ADVANCED_FACE('',(#662),#725,.T.);
#662 = FACE_BOUND('',#663,.F.);
#663 = EDGE_LOOP('',(#664,#674,#683,#692,#701,#710,#717,#718));
#664 = ORIENTED_EDGE('',*,*,#665,.F.);
#665 = EDGE_CURVE('',#666,#668,#670,.T.);
#666 = VERTEX_POINT('',#667);
#667 = CARTESIAN_POINT('',(-9.1,115.,-11.5));
#668 = VERTEX_POINT('',#669);
#669 = CARTESIAN_POINT('',(-12.,115.,-8.6));
#670 = LINE('',#671,#672);
#671 = CARTESIAN_POINT('',(-10.55,115.,-10.05));
#672 = VECTOR('',#673,1.);
#673 = DIRECTION('',(-0.707106781187,1.5E-16,0.707106781187));
#674 = ORIENTED_EDGE('',*,*,#675,.T.);
#675 = EDGE_CURVE('',#666,#676,#678,.T.);
#676 = VERTEX_POINT('',#677);
#677 = CARTESIAN_POINT('',(-7.934277552572,117.86356687445,-11.5));
#678 = CIRCLE('',#679,4.1);
#679 = AXIS2_PLACEMENT_3D('',#680,#681,#682);
#680 = CARTESIAN_POINT('',(-5.,115.,-11.5));
#681 = DIRECTION('',(7.789776975375E-16,-2.2E-16,-1.));
#682 = DIRECTION('',(-1.,-1.1E-16,-7.789776975375E-16));
#683 = ORIENTED_EDGE('',*,*,#684,.T.);
#684 = EDGE_CURVE('',#676,#685,#687,.T.);
#685 = VERTEX_POINT('',#686);
#686 = CARTESIAN_POINT('',(-8.111066638905,118.04035596078,-11.25));
#687 = HYPERBOLA('',#688,5.00000000002E-02,5.00000000002E-02);
#688 = AXIS2_PLACEMENT_3D('',#689,#690,#691);
#689 = CARTESIAN_POINT('',(-5.035355339059,114.96464466094,-15.6));
#690 = DIRECTION('',(-0.707106781187,-0.707106781187,-1.514953770658E-16
    ));
#691 = DIRECTION('',(-1.61225721039E-18,-2.126345596729E-16,1.));
#692 = ORIENTED_EDGE('',*,*,#693,.F.);
#693 = EDGE_CURVE('',#694,#685,#696,.T.);
#694 = VERTEX_POINT('',#695);
#695 = CARTESIAN_POINT('',(-8.040355960787,118.1110666389,-11.25));
#696 = CIRCLE('',#697,4.35);
#697 = AXIS2_PLACEMENT_3D('',#698,#699,#700);
#698 = CARTESIAN_POINT('',(-5.,115.,-11.25));
#699 = DIRECTION('',(-1.108977697537E-15,-4.5E-16,1.));
#700 = DIRECTION('',(-1.,2.2E-16,-1.108977697537E-15));
#701 = ORIENTED_EDGE('',*,*,#702,.T.);
#702 = EDGE_CURVE('',#694,#703,#705,.T.);
#703 = VERTEX_POINT('',#704);
#704 = CARTESIAN_POINT('',(-7.863566874454,117.93427755257,-11.5));
#705 = HYPERBOLA('',#706,4.999999999981E-02,4.999999999981E-02);
#706 = AXIS2_PLACEMENT_3D('',#707,#708,#709);
#707 = CARTESIAN_POINT('',(-4.964644660941,115.03535533905,-15.6));
#708 = DIRECTION('',(0.707106781187,0.707106781187,1.514953770658E-16));
#709 = DIRECTION('',(-1.61225721039E-18,-2.126345596729E-16,1.));
#710 = ORIENTED_EDGE('',*,*,#711,.T.);
#711 = EDGE_CURVE('',#703,#263,#712,.T.);
#712 = CIRCLE('',#713,4.1);
#713 = AXIS2_PLACEMENT_3D('',#714,#715,#716);
#714 = CARTESIAN_POINT('',(-5.,115.,-11.5));
#715 = DIRECTION('',(7.789776975375E-16,-2.2E-16,-1.));
#716 = DIRECTION('',(-1.,-1.1E-16,-7.789776975375E-16));
#717 = ORIENTED_EDGE('',*,*,#262,.T.);
#718 = ORIENTED_EDGE('',*,*,#719,.F.);
#719 = EDGE_CURVE('',#668,#253,#720,.T.);
#720 = CIRCLE('',#721,7.);
#721 = AXIS2_PLACEMENT_3D('',#722,#723,#724);
#722 = CARTESIAN_POINT('',(-5.,115.,-8.6));
#723 = DIRECTION('',(7.789776975375E-16,-2.2E-16,-1.));
#724 = DIRECTION('',(-1.,-1.1E-16,-7.789776975375E-16));
#725 = CONICAL_SURFACE('',#726,7.,0.785398163397);
#726 = AXIS2_PLACEMENT_3D('',#727,#728,#729);
#727 = CARTESIAN_POINT('',(-5.,115.,-8.6));
#728 = DIRECTION('',(-3.389776975375E-16,-2.2E-16,1.));
#729 = DIRECTION('',(-1.,-1.1E-16,-3.389776975375E-16));
#730 = ADVANCED_FACE('',(#731),#757,.F.);
#731 = FACE_BOUND('',#732,.F.);
#732 = EDGE_LOOP('',(#733,#734,#735,#736,#742,#743,#744,#750,#751));
#733 = ORIENTED_EDGE('',*,*,#328,.F.);
#734 = ORIENTED_EDGE('',*,*,#270,.F.);
#735 = ORIENTED_EDGE('',*,*,#711,.F.);
#736 = ORIENTED_EDGE('',*,*,#737,.T.);
#737 = EDGE_CURVE('',#703,#549,#738,.T.);
#738 = LINE('',#739,#740);
#739 = CARTESIAN_POINT('',(-12.03571247281,122.10642315093,-11.5));
#740 = VECTOR('',#741,1.);
#741 = DIRECTION('',(0.707106781187,-0.707106781187,2.545622844534E-16)
  );
#742 = ORIENTED_EDGE('',*,*,#556,.T.);
#743 = ORIENTED_EDGE('',*,*,#522,.T.);
#744 = ORIENTED_EDGE('',*,*,#745,.T.);
#745 = EDGE_CURVE('',#523,#676,#746,.T.);
#746 = LINE('',#747,#748);
#747 = CARTESIAN_POINT('',(-5.035355339065,114.96464466094,-11.5));
#748 = VECTOR('',#749,1.);
#749 = DIRECTION('',(-0.707106781187,0.707106781187,-2.545622844534E-16)
  );
#750 = ORIENTED_EDGE('',*,*,#675,.F.);
#751 = ORIENTED_EDGE('',*,*,#752,.F.);
#752 = EDGE_CURVE('',#329,#666,#753,.T.);
#753 = LINE('',#754,#755);
#754 = CARTESIAN_POINT('',(-9.1,103.75,-11.5));
#755 = VECTOR('',#756,1.);
#756 = DIRECTION('',(8.9E-16,1.,-2.2E-16));
#757 = PLANE('',#758);
#758 = AXIS2_PLACEMENT_3D('',#759,#760,#761);
#759 = CARTESIAN_POINT('',(-2.980282382746,112.98028238274,-11.5));
#760 = DIRECTION('',(2.210223024625E-16,-2.2E-16,1.));
#761 = DIRECTION('',(-1.,-1.1E-16,2.210223024625E-16));
#762 = ADVANCED_FACE('',(#763),#791,.F.);
#763 = FACE_BOUND('',#764,.F.);
#764 = EDGE_LOOP('',(#765,#773,#774,#775,#776,#777,#785));
#765 = ORIENTED_EDGE('',*,*,#766,.F.);
#766 = EDGE_CURVE('',#441,#767,#769,.T.);
#767 = VERTEX_POINT('',#768);
#768 = CARTESIAN_POINT('',(-11.5,113.,-9.1));
#769 = LINE('',#770,#771);
#770 = CARTESIAN_POINT('',(-11.05,113.,-9.55));
#771 = VECTOR('',#772,1.);
#772 = DIRECTION('',(-0.707106781187,-4.E-16,0.707106781187));
#773 = ORIENTED_EDGE('',*,*,#440,.F.);
#774 = ORIENTED_EDGE('',*,*,#337,.F.);
#775 = ORIENTED_EDGE('',*,*,#752,.T.);
#776 = ORIENTED_EDGE('',*,*,#665,.T.);
#777 = ORIENTED_EDGE('',*,*,#778,.F.);
#778 = EDGE_CURVE('',#779,#668,#781,.T.);
#779 = VERTEX_POINT('',#780);
#780 = CARTESIAN_POINT('',(-12.,113.5,-8.6));
#781 = LINE('',#782,#783);
#782 = CARTESIAN_POINT('',(-12.,103.75,-8.6));
#783 = VECTOR('',#784,1.);
#784 = DIRECTION('',(8.9E-16,1.,-2.2E-16));
#785 = ORIENTED_EDGE('',*,*,#786,.F.);
#786 = EDGE_CURVE('',#767,#779,#787,.T.);
#787 = LINE('',#788,#789);
#788 = CARTESIAN_POINT('',(-10.99166666666,112.49166666666,
    -9.608333333333));
#789 = VECTOR('',#790,1.);
#790 = DIRECTION('',(-0.57735026919,0.57735026919,0.57735026919));
#791 = PLANE('',#792);
#792 = AXIS2_PLACEMENT_3D('',#793,#794,#795);
#793 = CARTESIAN_POINT('',(-10.55,103.75,-10.05));
#794 = DIRECTION('',(0.707106781187,-9.8E-16,0.707106781187));
#795 = DIRECTION('',(1.242964645563E-15,1.,1.429646455628E-16));
#796 = ADVANCED_FACE('',(#797),#809,.T.);
#797 = FACE_BOUND('',#798,.T.);
#798 = EDGE_LOOP('',(#799,#800,#806,#807,#808));
#799 = ORIENTED_EDGE('',*,*,#596,.T.);
#800 = ORIENTED_EDGE('',*,*,#801,.T.);
#801 = EDGE_CURVE('',#597,#767,#802,.T.);
#802 = LINE('',#803,#804);
#803 = CARTESIAN_POINT('',(-11.5,113.,-1.5));
#804 = VECTOR('',#805,1.);
#805 = DIRECTION('',(2.189776975375E-16,6.6E-16,-1.));
#806 = ORIENTED_EDGE('',*,*,#766,.F.);
#807 = ORIENTED_EDGE('',*,*,#448,.T.);
#808 = ORIENTED_EDGE('',*,*,#498,.T.);
#809 = PLANE('',#810);
#810 = AXIS2_PLACEMENT_3D('',#811,#812,#813);
#811 = CARTESIAN_POINT('',(-10.90489065168,113.,-5.757106781187));
#812 = DIRECTION('',(-5.8E-16,-1.,1.52E-15));
#813 = DIRECTION('',(-2.210223024625E-16,-1.52E-15,-1.));
#814 = ADVANCED_FACE('',(#815),#826,.F.);
#815 = FACE_BOUND('',#816,.F.);
#816 = EDGE_LOOP('',(#817,#818,#819,#825));
#817 = ORIENTED_EDGE('',*,*,#737,.F.);
#818 = ORIENTED_EDGE('',*,*,#702,.F.);
#819 = ORIENTED_EDGE('',*,*,#820,.T.);
#820 = EDGE_CURVE('',#694,#540,#821,.T.);
#821 = LINE('',#822,#823);
#822 = CARTESIAN_POINT('',(-12.03571247281,122.10642315093,-11.25));
#823 = VECTOR('',#824,1.);
#824 = DIRECTION('',(0.707106781187,-0.707106781187,2.545622844534E-16)
  );
#825 = ORIENTED_EDGE('',*,*,#548,.F.);
#826 = PLANE('',#827);
#827 = AXIS2_PLACEMENT_3D('',#828,#829,#830);
#828 = CARTESIAN_POINT('',(-12.03571247281,122.10642315093,-11.5));
#829 = DIRECTION('',(0.707106781187,0.707106781187,1.514953770658E-16));
#830 = DIRECTION('',(0.707106781187,-0.707106781187,4.714953770658E-16)
  );
#831 = ADVANCED_FACE('',(#832),#843,.F.);
#832 = FACE_BOUND('',#833,.F.);
#833 = EDGE_LOOP('',(#834,#840,#841,#842));
#834 = ORIENTED_EDGE('',*,*,#835,.F.);
#835 = EDGE_CURVE('',#532,#685,#836,.T.);
#836 = LINE('',#837,#838);
#837 = CARTESIAN_POINT('',(-5.035355339065,114.96464466094,-11.25));
#838 = VECTOR('',#839,1.);
#839 = DIRECTION('',(-0.707106781187,0.707106781187,-2.545622844534E-16)
  );
#840 = ORIENTED_EDGE('',*,*,#539,.F.);
#841 = ORIENTED_EDGE('',*,*,#820,.F.);
#842 = ORIENTED_EDGE('',*,*,#693,.T.);
#843 = PLANE('',#844);
#844 = AXIS2_PLACEMENT_3D('',#845,#846,#847);
#845 = CARTESIAN_POINT('',(-8.535533905939,118.53553390593,-11.25));
#846 = DIRECTION('',(2.210223024625E-16,-2.2E-16,1.));
#847 = DIRECTION('',(-1.,-1.1E-16,2.210223024625E-16));
#848 = ADVANCED_FACE('',(#849),#855,.F.);
#849 = FACE_BOUND('',#850,.F.);
#850 = EDGE_LOOP('',(#851,#852,#853,#854));
#851 = ORIENTED_EDGE('',*,*,#745,.F.);
#852 = ORIENTED_EDGE('',*,*,#531,.T.);
#853 = ORIENTED_EDGE('',*,*,#835,.T.);
#854 = ORIENTED_EDGE('',*,*,#684,.F.);
#855 = PLANE('',#856);
#856 = AXIS2_PLACEMENT_3D('',#857,#858,#859);
#857 = CARTESIAN_POINT('',(-5.035355339065,114.96464466094,-11.5));
#858 = DIRECTION('',(-0.707106781187,-0.707106781187,-1.514953770658E-16
    ));
#859 = DIRECTION('',(-0.707106781187,0.707106781187,-4.714953770658E-16)
  );
#860 = ADVANCED_FACE('',(#861),#872,.T.);
#861 = FACE_BOUND('',#862,.F.);
#862 = EDGE_LOOP('',(#863,#864,#865,#866));
#863 = ORIENTED_EDGE('',*,*,#634,.F.);
#864 = ORIENTED_EDGE('',*,*,#801,.T.);
#865 = ORIENTED_EDGE('',*,*,#786,.T.);
#866 = ORIENTED_EDGE('',*,*,#867,.F.);
#867 = EDGE_CURVE('',#627,#779,#868,.T.);
#868 = LINE('',#869,#870);
#869 = CARTESIAN_POINT('',(-12.,113.5,-1.5));
#870 = VECTOR('',#871,1.);
#871 = DIRECTION('',(2.189776975375E-16,6.6E-16,-1.));
#872 = PLANE('',#873);
#873 = AXIS2_PLACEMENT_3D('',#874,#875,#876);
#874 = CARTESIAN_POINT('',(-11.75,113.25,-1.5));
#875 = DIRECTION('',(-0.707106781187,-0.707106781187,-5.114953770658E-16
    ));
#876 = DIRECTION('',(-1.411706984375E-16,-5.821930009001E-16,1.));
#877 = ADVANCED_FACE('',(#878),#889,.T.);
#878 = FACE_BOUND('',#879,.T.);
#879 = EDGE_LOOP('',(#880,#881,#882,#883));
#880 = ORIENTED_EDGE('',*,*,#778,.F.);
#881 = ORIENTED_EDGE('',*,*,#867,.F.);
#882 = ORIENTED_EDGE('',*,*,#626,.T.);
#883 = ORIENTED_EDGE('',*,*,#884,.F.);
#884 = EDGE_CURVE('',#668,#618,#885,.T.);
#885 = LINE('',#886,#887);
#886 = CARTESIAN_POINT('',(-12.,115.,-7.5));
#887 = VECTOR('',#888,1.);
#888 = DIRECTION('',(2.210223024625E-16,-4.4E-16,1.));
#889 = PLANE('',#890);
#890 = AXIS2_PLACEMENT_3D('',#891,#892,#893);
#891 = CARTESIAN_POINT('',(-12.,110.68088235294,-7.805882352941));
#892 = DIRECTION('',(-1.,6.2E-16,-2.189776975375E-16));
#893 = DIRECTION('',(6.2E-16,1.,-2.2E-16));
#894 = ADVANCED_FACE('',(#895),#901,.T.);
#895 = FACE_BOUND('',#896,.F.);
#896 = EDGE_LOOP('',(#897,#898,#899,#900));
#897 = ORIENTED_EDGE('',*,*,#884,.F.);
#898 = ORIENTED_EDGE('',*,*,#719,.T.);
#899 = ORIENTED_EDGE('',*,*,#649,.F.);
#900 = ORIENTED_EDGE('',*,*,#617,.F.);
#901 = CYLINDRICAL_SURFACE('',#902,7.);
#902 = AXIS2_PLACEMENT_3D('',#903,#904,#905);
#903 = CARTESIAN_POINT('',(-5.,115.,-7.5));
#904 = DIRECTION('',(-1.089776975375E-16,-4.4E-16,1.));
#905 = DIRECTION('',(-8.9E-16,-1.,-4.4E-16));
#906 = ( GEOMETRIC_REPRESENTATION_CONTEXT(3) 
GLOBAL_UNCERTAINTY_ASSIGNED_CONTEXT((#910)) GLOBAL_UNIT_ASSIGNED_CONTEXT
((#907,#908,#909)) REPRESENTATION_CONTEXT('Context #1',
  '3D Context with UNIT and UNCERTAINTY') );
#907 = ( LENGTH_UNIT() NAMED_UNIT(*) SI_UNIT(.MILLI.,.METRE.) );
#908 = ( NAMED_UNIT(*) PLANE_ANGLE_UNIT() SI_UNIT($,.RADIAN.) );
#909 = ( NAMED_UNIT(*) SI_UNIT($,.STERADIAN.) SOLID_ANGLE_UNIT() );
#910 = UNCERTAINTY_MEASURE_WITH_UNIT(LENGTH_MEASURE(2.E-05),#907,
  'distance_accuracy_value','confusion accuracy');
#911 = PRODUCT_RELATED_PRODUCT_CATEGORY('part',$,(#7));
ENDSEC;
END-ISO-10303-21;
