ISO-10303-21;
HEADER;
FILE_DESCRIPTION(('FreeCAD Model'),'2;1');
FILE_NAME('Open CASCADE Shape Model','2025-12-01T23:20:01',('FreeCAD'),(
    'FreeCAD'),'Open CASCADE STEP processor 7.8','FreeCAD','Unknown');
FILE_SCHEMA(('AUTOMOTIVE_DESIGN { 1 0 10303 214 1 1 1 1 }'));
ENDSEC;
DATA;
#1 = APPLICATION_PROTOCOL_DEFINITION('international standard',
  'automotive_design',2000,#2);
#2 = APPLICATION_CONTEXT(
  'core data for automotive mechanical design processes');
#3 = SHAPE_DEFINITION_REPRESENTATION(#4,#10);
#4 = PRODUCT_DEFINITION_SHAPE('','',#5);
#5 = PRODUCT_DEFINITION('design','',#6,#9);
#6 = PRODUCT_DEFINITION_FORMATION('','',#7);
#7 = PRODUCT('Open CASCADE STEP translator 7.8 6',
  'Open CASCADE STEP translator 7.8 6','',(#8));
#8 = PRODUCT_CONTEXT('',#2,'mechanical');
#9 = PRODUCT_DEFINITION_CONTEXT('part definition',#2,'design');
#10 = ADVANCED_BREP_SHAPE_REPRESENTATION('',(#11,#15),#861);
#11 = AXIS2_PLACEMENT_3D('',#12,#13,#14);
#12 = CARTESIAN_POINT('',(0.,0.,0.));
#13 = DIRECTION('',(0.,0.,1.));
#14 = DIRECTION('',(1.,0.,-0.));
#15 = MANIFOLD_SOLID_BREP('',#16);
#16 = CLOSED_SHELL('',(#17,#95,#126,#151,#176,#305,#434,#459,#484,#501,
    #538,#575,#600,#625,#667,#689,#706,#723,#740,#757,#774,#791,#803,
    #820,#837,#849));
#17 = ADVANCED_FACE('',(#18),#90,.F.);
#18 = FACE_BOUND('',#19,.T.);
#19 = EDGE_LOOP('',(#20,#30,#39,#48,#57,#65,#74,#83));
#20 = ORIENTED_EDGE('',*,*,#21,.T.);
#21 = EDGE_CURVE('',#22,#24,#26,.T.);
#22 = VERTEX_POINT('',#23);
#23 = CARTESIAN_POINT('',(-4.5,-45.80294372515,-178.3));
#24 = VERTEX_POINT('',#25);
#25 = CARTESIAN_POINT('',(-4.5,-45.80294372515,-176.8));
#26 = LINE('',#27,#28);
#27 = CARTESIAN_POINT('',(-4.5,-45.80294372515,-178.8));
#28 = VECTOR('',#29,1.);
#29 = DIRECTION('',(0.,3.310223024625E-16,1.));
#30 = ORIENTED_EDGE('',*,*,#31,.T.);
#31 = EDGE_CURVE('',#24,#32,#34,.T.);
#32 = VERTEX_POINT('',#33);
#33 = CARTESIAN_POINT('',(-5.,-45.87827252597,-176.3));
#34 = ELLIPSE('',#35,2.4,1.697056274848);
#35 = AXIS2_PLACEMENT_3D('',#36,#37,#38);
#36 = CARTESIAN_POINT('',(-4.5,-47.5,-176.8));
#37 = DIRECTION('',(0.707106781187,1.985046229342E-16,0.707106781187));
#38 = DIRECTION('',(0.707106781187,-2.685046229342E-16,-0.707106781187)
  );
#39 = ORIENTED_EDGE('',*,*,#40,.T.);
#40 = EDGE_CURVE('',#32,#41,#43,.T.);
#41 = VERTEX_POINT('',#42);
#42 = CARTESIAN_POINT('',(-2.878272525977,-48.,-176.3));
#43 = CIRCLE('',#44,1.697056274848);
#44 = AXIS2_PLACEMENT_3D('',#45,#46,#47);
#45 = CARTESIAN_POINT('',(-4.5,-47.5,-176.3));
#46 = DIRECTION('',(0.,-1.089776975375E-16,1.));
#47 = DIRECTION('',(-1.,0.,0.));
#48 = ORIENTED_EDGE('',*,*,#49,.F.);
#49 = EDGE_CURVE('',#50,#41,#52,.T.);
#50 = VERTEX_POINT('',#51);
#51 = CARTESIAN_POINT('',(-2.802943725152,-47.5,-176.8));
#52 = ELLIPSE('',#53,2.4,1.697056274848);
#53 = AXIS2_PLACEMENT_3D('',#54,#55,#56);
#54 = CARTESIAN_POINT('',(-4.5,-47.5,-176.8));
#55 = DIRECTION('',(1.3E-16,-0.707106781187,-0.707106781187));
#56 = DIRECTION('',(-1.3E-16,0.707106781187,-0.707106781187));
#57 = ORIENTED_EDGE('',*,*,#58,.F.);
#58 = EDGE_CURVE('',#59,#50,#61,.T.);
#59 = VERTEX_POINT('',#60);
#60 = CARTESIAN_POINT('',(-2.802943725152,-47.5,-178.3));
#61 = LINE('',#62,#63);
#62 = CARTESIAN_POINT('',(-2.802943725152,-47.5,-178.8));
#63 = VECTOR('',#64,1.);
#64 = DIRECTION('',(0.,3.310223024625E-16,1.));
#65 = ORIENTED_EDGE('',*,*,#66,.T.);
#66 = EDGE_CURVE('',#59,#67,#69,.T.);
#67 = VERTEX_POINT('',#68);
#68 = CARTESIAN_POINT('',(-2.878272525977,-48.,-178.8));
#69 = ELLIPSE('',#70,2.4,1.697056274848);
#70 = AXIS2_PLACEMENT_3D('',#71,#72,#73);
#71 = CARTESIAN_POINT('',(-4.5,-47.5,-178.3));
#72 = DIRECTION('',(-1.3E-16,0.707106781187,-0.707106781187));
#73 = DIRECTION('',(1.3E-16,-0.707106781187,-0.707106781187));
#74 = ORIENTED_EDGE('',*,*,#75,.F.);
#75 = EDGE_CURVE('',#76,#67,#78,.T.);
#76 = VERTEX_POINT('',#77);
#77 = CARTESIAN_POINT('',(-5.,-45.87827252597,-178.8));
#78 = CIRCLE('',#79,1.697056274848);
#79 = AXIS2_PLACEMENT_3D('',#80,#81,#82);
#80 = CARTESIAN_POINT('',(-4.5,-47.5,-178.8));
#81 = DIRECTION('',(0.,-1.089776975375E-16,1.));
#82 = DIRECTION('',(-1.,0.,0.));
#83 = ORIENTED_EDGE('',*,*,#84,.F.);
#84 = EDGE_CURVE('',#22,#76,#85,.T.);
#85 = ELLIPSE('',#86,2.4,1.697056274848);
#86 = AXIS2_PLACEMENT_3D('',#87,#88,#89);
#87 = CARTESIAN_POINT('',(-4.5,-47.5,-178.3));
#88 = DIRECTION('',(-0.707106781187,-4.149537706581E-17,0.707106781187)
  );
#89 = DIRECTION('',(-0.707106781187,-5.185046229342E-16,-0.707106781187)
  );
#90 = CYLINDRICAL_SURFACE('',#91,1.697056274848);
#91 = AXIS2_PLACEMENT_3D('',#92,#93,#94);
#92 = CARTESIAN_POINT('',(-4.5,-47.5,-178.8));
#93 = DIRECTION('',(0.,-3.310223024625E-16,-1.));
#94 = DIRECTION('',(-1.,0.,0.));
#95 = ADVANCED_FACE('',(#96),#121,.F.);
#96 = FACE_BOUND('',#97,.F.);
#97 = EDGE_LOOP('',(#98,#99,#107,#115));
#98 = ORIENTED_EDGE('',*,*,#21,.T.);
#99 = ORIENTED_EDGE('',*,*,#100,.T.);
#100 = EDGE_CURVE('',#24,#101,#103,.T.);
#101 = VERTEX_POINT('',#102);
#102 = CARTESIAN_POINT('',(-4.5,-40.19705627484,-176.8));
#103 = LINE('',#104,#105);
#104 = CARTESIAN_POINT('',(-4.5,-45.80294372515,-176.8));
#105 = VECTOR('',#106,1.);
#106 = DIRECTION('',(-1.6E-16,1.,-3.310223024625E-16));
#107 = ORIENTED_EDGE('',*,*,#108,.F.);
#108 = EDGE_CURVE('',#109,#101,#111,.T.);
#109 = VERTEX_POINT('',#110);
#110 = CARTESIAN_POINT('',(-4.5,-40.19705627484,-178.3));
#111 = LINE('',#112,#113);
#112 = CARTESIAN_POINT('',(-4.5,-40.19705627484,-178.8));
#113 = VECTOR('',#114,1.);
#114 = DIRECTION('',(0.,3.310223024625E-16,1.));
#115 = ORIENTED_EDGE('',*,*,#116,.F.);
#116 = EDGE_CURVE('',#22,#109,#117,.T.);
#117 = LINE('',#118,#119);
#118 = CARTESIAN_POINT('',(-4.5,-45.80294372515,-178.3));
#119 = VECTOR('',#120,1.);
#120 = DIRECTION('',(-1.6E-16,1.,-3.310223024625E-16));
#121 = PLANE('',#122);
#122 = AXIS2_PLACEMENT_3D('',#123,#124,#125);
#123 = CARTESIAN_POINT('',(-4.5,-45.80294372515,-178.8));
#124 = DIRECTION('',(-1.,-1.6E-16,1.7763568394E-32));
#125 = DIRECTION('',(-1.6E-16,1.,-3.310223024625E-16));
#126 = ADVANCED_FACE('',(#127),#146,.T.);
#127 = FACE_BOUND('',#128,.F.);
#128 = EDGE_LOOP('',(#129,#130,#131,#140));
#129 = ORIENTED_EDGE('',*,*,#84,.F.);
#130 = ORIENTED_EDGE('',*,*,#116,.T.);
#131 = ORIENTED_EDGE('',*,*,#132,.T.);
#132 = EDGE_CURVE('',#109,#133,#135,.T.);
#133 = VERTEX_POINT('',#134);
#134 = CARTESIAN_POINT('',(-5.,-40.12172747402,-178.8));
#135 = ELLIPSE('',#136,2.4,1.697056274848);
#136 = AXIS2_PLACEMENT_3D('',#137,#138,#139);
#137 = CARTESIAN_POINT('',(-4.5,-38.5,-178.3));
#138 = DIRECTION('',(0.707106781187,4.149537706581E-17,-0.707106781187)
  );
#139 = DIRECTION('',(-0.707106781187,-5.185046229342E-16,-0.707106781187
    ));
#140 = ORIENTED_EDGE('',*,*,#141,.F.);
#141 = EDGE_CURVE('',#76,#133,#142,.T.);
#142 = LINE('',#143,#144);
#143 = CARTESIAN_POINT('',(-5.,-45.80294372515,-178.8));
#144 = VECTOR('',#145,1.);
#145 = DIRECTION('',(-1.6E-16,1.,-3.310223024625E-16));
#146 = PLANE('',#147);
#147 = AXIS2_PLACEMENT_3D('',#148,#149,#150);
#148 = CARTESIAN_POINT('',(-4.75,-45.80294372515,-178.55));
#149 = DIRECTION('',(0.707106781187,4.149537706581E-17,-0.707106781187)
  );
#150 = DIRECTION('',(2.748528137424E-16,-1.,2.161694887201E-16));
#151 = ADVANCED_FACE('',(#152),#171,.F.);
#152 = FACE_BOUND('',#153,.T.);
#153 = EDGE_LOOP('',(#154,#155,#156,#165));
#154 = ORIENTED_EDGE('',*,*,#31,.F.);
#155 = ORIENTED_EDGE('',*,*,#100,.T.);
#156 = ORIENTED_EDGE('',*,*,#157,.T.);
#157 = EDGE_CURVE('',#101,#158,#160,.T.);
#158 = VERTEX_POINT('',#159);
#159 = CARTESIAN_POINT('',(-5.,-40.12172747402,-176.3));
#160 = ELLIPSE('',#161,2.4,1.697056274848);
#161 = AXIS2_PLACEMENT_3D('',#162,#163,#164);
#162 = CARTESIAN_POINT('',(-4.5,-38.5,-176.8));
#163 = DIRECTION('',(-0.707106781187,-1.985046229342E-16,-0.707106781187
    ));
#164 = DIRECTION('',(0.707106781187,-2.685046229342E-16,-0.707106781187)
  );
#165 = ORIENTED_EDGE('',*,*,#166,.F.);
#166 = EDGE_CURVE('',#32,#158,#167,.T.);
#167 = LINE('',#168,#169);
#168 = CARTESIAN_POINT('',(-5.,-45.80294372515,-176.3));
#169 = VECTOR('',#170,1.);
#170 = DIRECTION('',(-1.6E-16,1.,-3.310223024625E-16));
#171 = PLANE('',#172);
#172 = AXIS2_PLACEMENT_3D('',#173,#174,#175);
#173 = CARTESIAN_POINT('',(-4.75,-45.80294372515,-176.55));
#174 = DIRECTION('',(-0.707106781187,-1.985046229342E-16,-0.707106781187
    ));
#175 = DIRECTION('',(4.985281374239E-17,-1.,2.308751162049E-16));
#176 = ADVANCED_FACE('',(#177,#230),#300,.F.);
#177 = FACE_BOUND('',#178,.F.);
#178 = EDGE_LOOP('',(#179,#180,#181,#190,#198,#207,#215,#224));
#179 = ORIENTED_EDGE('',*,*,#75,.F.);
#180 = ORIENTED_EDGE('',*,*,#141,.T.);
#181 = ORIENTED_EDGE('',*,*,#182,.F.);
#182 = EDGE_CURVE('',#183,#133,#185,.T.);
#183 = VERTEX_POINT('',#184);
#184 = CARTESIAN_POINT('',(-2.878272525977,-38.,-178.8));
#185 = CIRCLE('',#186,1.697056274848);
#186 = AXIS2_PLACEMENT_3D('',#187,#188,#189);
#187 = CARTESIAN_POINT('',(-4.5,-38.5,-178.8));
#188 = DIRECTION('',(0.,-1.089776975375E-16,1.));
#189 = DIRECTION('',(-1.,0.,0.));
#190 = ORIENTED_EDGE('',*,*,#191,.F.);
#191 = EDGE_CURVE('',#192,#183,#194,.T.);
#192 = VERTEX_POINT('',#193);
#193 = CARTESIAN_POINT('',(2.878272525977,-38.,-178.8));
#194 = LINE('',#195,#196);
#195 = CARTESIAN_POINT('',(2.802943725152,-38.,-178.8));
#196 = VECTOR('',#197,1.);
#197 = DIRECTION('',(-1.,-1.6E-16,1.7763568394E-32));
#198 = ORIENTED_EDGE('',*,*,#199,.F.);
#199 = EDGE_CURVE('',#200,#192,#202,.T.);
#200 = VERTEX_POINT('',#201);
#201 = CARTESIAN_POINT('',(5.,-40.12172747402,-178.8));
#202 = CIRCLE('',#203,1.697056274848);
#203 = AXIS2_PLACEMENT_3D('',#204,#205,#206);
#204 = CARTESIAN_POINT('',(4.5,-38.5,-178.8));
#205 = DIRECTION('',(0.,-1.089776975375E-16,1.));
#206 = DIRECTION('',(-1.,0.,0.));
#207 = ORIENTED_EDGE('',*,*,#208,.F.);
#208 = EDGE_CURVE('',#209,#200,#211,.T.);
#209 = VERTEX_POINT('',#210);
#210 = CARTESIAN_POINT('',(5.,-45.87827252597,-178.8));
#211 = LINE('',#212,#213);
#212 = CARTESIAN_POINT('',(5.,-45.80294372515,-178.8));
#213 = VECTOR('',#214,1.);
#214 = DIRECTION('',(0.,1.,-3.310223024625E-16));
#215 = ORIENTED_EDGE('',*,*,#216,.F.);
#216 = EDGE_CURVE('',#217,#209,#219,.T.);
#217 = VERTEX_POINT('',#218);
#218 = CARTESIAN_POINT('',(2.878272525977,-48.,-178.8));
#219 = CIRCLE('',#220,1.697056274848);
#220 = AXIS2_PLACEMENT_3D('',#221,#222,#223);
#221 = CARTESIAN_POINT('',(4.5,-47.5,-178.8));
#222 = DIRECTION('',(0.,-1.089776975375E-16,1.));
#223 = DIRECTION('',(-1.,0.,0.));
#224 = ORIENTED_EDGE('',*,*,#225,.F.);
#225 = EDGE_CURVE('',#67,#217,#226,.T.);
#226 = LINE('',#227,#228);
#227 = CARTESIAN_POINT('',(-2.802943725152,-48.,-178.8));
#228 = VECTOR('',#229,1.);
#229 = DIRECTION('',(1.,1.6E-16,-1.7763568394E-32));
#230 = FACE_BOUND('',#231,.F.);
#231 = EDGE_LOOP('',(#232,#243,#251,#260,#268,#277,#285,#294));
#232 = ORIENTED_EDGE('',*,*,#233,.T.);
#233 = EDGE_CURVE('',#234,#236,#238,.T.);
#234 = VERTEX_POINT('',#235);
#235 = CARTESIAN_POINT('',(-6.9,-44.95649796747,-178.8));
#236 = VERTEX_POINT('',#237);
#237 = CARTESIAN_POINT('',(-1.956497967476,-49.9,-178.8));
#238 = CIRCLE('',#239,3.497056274848);
#239 = AXIS2_PLACEMENT_3D('',#240,#241,#242);
#240 = CARTESIAN_POINT('',(-4.5,-47.5,-178.8));
#241 = DIRECTION('',(0.,-1.089776975375E-16,1.));
#242 = DIRECTION('',(-1.,0.,0.));
#243 = ORIENTED_EDGE('',*,*,#244,.F.);
#244 = EDGE_CURVE('',#245,#236,#247,.T.);
#245 = VERTEX_POINT('',#246);
#246 = CARTESIAN_POINT('',(1.956497967476,-49.9,-178.8));
#247 = LINE('',#248,#249);
#248 = CARTESIAN_POINT('',(1.956497967476,-49.9,-178.8));
#249 = VECTOR('',#250,1.);
#250 = DIRECTION('',(-1.,0.,0.));
#251 = ORIENTED_EDGE('',*,*,#252,.T.);
#252 = EDGE_CURVE('',#245,#253,#255,.T.);
#253 = VERTEX_POINT('',#254);
#254 = CARTESIAN_POINT('',(6.9,-44.95649796747,-178.8));
#255 = CIRCLE('',#256,3.497056274848);
#256 = AXIS2_PLACEMENT_3D('',#257,#258,#259);
#257 = CARTESIAN_POINT('',(4.5,-47.5,-178.8));
#258 = DIRECTION('',(0.,-1.089776975375E-16,1.));
#259 = DIRECTION('',(-1.,0.,0.));
#260 = ORIENTED_EDGE('',*,*,#261,.F.);
#261 = EDGE_CURVE('',#262,#253,#264,.T.);
#262 = VERTEX_POINT('',#263);
#263 = CARTESIAN_POINT('',(6.9,-41.04350203252,-178.8));
#264 = LINE('',#265,#266);
#265 = CARTESIAN_POINT('',(6.9,-41.04350203252,-178.8));
#266 = VECTOR('',#267,1.);
#267 = DIRECTION('',(-2.3E-16,-1.,-1.089776975375E-16));
#268 = ORIENTED_EDGE('',*,*,#269,.T.);
#269 = EDGE_CURVE('',#262,#270,#272,.T.);
#270 = VERTEX_POINT('',#271);
#271 = CARTESIAN_POINT('',(1.956497967476,-36.1,-178.8));
#272 = CIRCLE('',#273,3.497056274848);
#273 = AXIS2_PLACEMENT_3D('',#274,#275,#276);
#274 = CARTESIAN_POINT('',(4.5,-38.5,-178.8));
#275 = DIRECTION('',(0.,-1.089776975375E-16,1.));
#276 = DIRECTION('',(-1.,0.,0.));
#277 = ORIENTED_EDGE('',*,*,#278,.F.);
#278 = EDGE_CURVE('',#279,#270,#281,.T.);
#279 = VERTEX_POINT('',#280);
#280 = CARTESIAN_POINT('',(-1.956497967476,-36.1,-178.8));
#281 = LINE('',#282,#283);
#282 = CARTESIAN_POINT('',(-1.956497967476,-36.1,-178.8));
#283 = VECTOR('',#284,1.);
#284 = DIRECTION('',(1.,2.3E-16,-2.553512956638E-32));
#285 = ORIENTED_EDGE('',*,*,#286,.T.);
#286 = EDGE_CURVE('',#279,#287,#289,.T.);
#287 = VERTEX_POINT('',#288);
#288 = CARTESIAN_POINT('',(-6.9,-41.04350203252,-178.8));
#289 = CIRCLE('',#290,3.497056274848);
#290 = AXIS2_PLACEMENT_3D('',#291,#292,#293);
#291 = CARTESIAN_POINT('',(-4.5,-38.5,-178.8));
#292 = DIRECTION('',(0.,-1.089776975375E-16,1.));
#293 = DIRECTION('',(-1.,0.,0.));
#294 = ORIENTED_EDGE('',*,*,#295,.F.);
#295 = EDGE_CURVE('',#234,#287,#296,.T.);
#296 = LINE('',#297,#298);
#297 = CARTESIAN_POINT('',(-6.9,-44.95649796747,-178.8));
#298 = VECTOR('',#299,1.);
#299 = DIRECTION('',(0.,1.,1.089776975375E-16));
#300 = PLANE('',#301);
#301 = AXIS2_PLACEMENT_3D('',#302,#303,#304);
#302 = CARTESIAN_POINT('',(-4.5E-16,-43.,-178.8));
#303 = DIRECTION('',(0.,-1.089776975375E-16,1.));
#304 = DIRECTION('',(0.,-1.,-1.089776975375E-16));
#305 = ADVANCED_FACE('',(#306,#359),#429,.T.);
#306 = FACE_BOUND('',#307,.T.);
#307 = EDGE_LOOP('',(#308,#309,#310,#319,#327,#336,#344,#353));
#308 = ORIENTED_EDGE('',*,*,#40,.F.);
#309 = ORIENTED_EDGE('',*,*,#166,.T.);
#310 = ORIENTED_EDGE('',*,*,#311,.F.);
#311 = EDGE_CURVE('',#312,#158,#314,.T.);
#312 = VERTEX_POINT('',#313);
#313 = CARTESIAN_POINT('',(-2.878272525977,-38.,-176.3));
#314 = CIRCLE('',#315,1.697056274848);
#315 = AXIS2_PLACEMENT_3D('',#316,#317,#318);
#316 = CARTESIAN_POINT('',(-4.5,-38.5,-176.3));
#317 = DIRECTION('',(0.,-1.089776975375E-16,1.));
#318 = DIRECTION('',(-1.,0.,0.));
#319 = ORIENTED_EDGE('',*,*,#320,.F.);
#320 = EDGE_CURVE('',#321,#312,#323,.T.);
#321 = VERTEX_POINT('',#322);
#322 = CARTESIAN_POINT('',(2.878272525977,-38.,-176.3));
#323 = LINE('',#324,#325);
#324 = CARTESIAN_POINT('',(2.802943725152,-38.,-176.3));
#325 = VECTOR('',#326,1.);
#326 = DIRECTION('',(-1.,-1.6E-16,1.7763568394E-32));
#327 = ORIENTED_EDGE('',*,*,#328,.F.);
#328 = EDGE_CURVE('',#329,#321,#331,.T.);
#329 = VERTEX_POINT('',#330);
#330 = CARTESIAN_POINT('',(5.,-40.12172747402,-176.3));
#331 = CIRCLE('',#332,1.697056274848);
#332 = AXIS2_PLACEMENT_3D('',#333,#334,#335);
#333 = CARTESIAN_POINT('',(4.5,-38.5,-176.3));
#334 = DIRECTION('',(0.,-1.089776975375E-16,1.));
#335 = DIRECTION('',(-1.,0.,0.));
#336 = ORIENTED_EDGE('',*,*,#337,.F.);
#337 = EDGE_CURVE('',#338,#329,#340,.T.);
#338 = VERTEX_POINT('',#339);
#339 = CARTESIAN_POINT('',(5.,-45.87827252597,-176.3));
#340 = LINE('',#341,#342);
#341 = CARTESIAN_POINT('',(5.,-45.80294372515,-176.3));
#342 = VECTOR('',#343,1.);
#343 = DIRECTION('',(0.,1.,-3.310223024625E-16));
#344 = ORIENTED_EDGE('',*,*,#345,.F.);
#345 = EDGE_CURVE('',#346,#338,#348,.T.);
#346 = VERTEX_POINT('',#347);
#347 = CARTESIAN_POINT('',(2.878272525977,-48.,-176.3));
#348 = CIRCLE('',#349,1.697056274848);
#349 = AXIS2_PLACEMENT_3D('',#350,#351,#352);
#350 = CARTESIAN_POINT('',(4.5,-47.5,-176.3));
#351 = DIRECTION('',(0.,-1.089776975375E-16,1.));
#352 = DIRECTION('',(-1.,0.,0.));
#353 = ORIENTED_EDGE('',*,*,#354,.F.);
#354 = EDGE_CURVE('',#41,#346,#355,.T.);
#355 = LINE('',#356,#357);
#356 = CARTESIAN_POINT('',(-2.802943725152,-48.,-176.3));
#357 = VECTOR('',#358,1.);
#358 = DIRECTION('',(1.,1.6E-16,-1.7763568394E-32));
#359 = FACE_BOUND('',#360,.T.);
#360 = EDGE_LOOP('',(#361,#372,#380,#389,#397,#406,#414,#423));
#361 = ORIENTED_EDGE('',*,*,#362,.T.);
#362 = EDGE_CURVE('',#363,#365,#367,.T.);
#363 = VERTEX_POINT('',#364);
#364 = CARTESIAN_POINT('',(-6.9,-44.95649796747,-176.3));
#365 = VERTEX_POINT('',#366);
#366 = CARTESIAN_POINT('',(-1.956497967476,-49.9,-176.3));
#367 = CIRCLE('',#368,3.497056274848);
#368 = AXIS2_PLACEMENT_3D('',#369,#370,#371);
#369 = CARTESIAN_POINT('',(-4.5,-47.5,-176.3));
#370 = DIRECTION('',(0.,-1.089776975375E-16,1.));
#371 = DIRECTION('',(-1.,0.,0.));
#372 = ORIENTED_EDGE('',*,*,#373,.F.);
#373 = EDGE_CURVE('',#374,#365,#376,.T.);
#374 = VERTEX_POINT('',#375);
#375 = CARTESIAN_POINT('',(1.956497967476,-49.9,-176.3));
#376 = LINE('',#377,#378);
#377 = CARTESIAN_POINT('',(1.956497967476,-49.9,-176.3));
#378 = VECTOR('',#379,1.);
#379 = DIRECTION('',(-1.,0.,0.));
#380 = ORIENTED_EDGE('',*,*,#381,.T.);
#381 = EDGE_CURVE('',#374,#382,#384,.T.);
#382 = VERTEX_POINT('',#383);
#383 = CARTESIAN_POINT('',(6.9,-44.95649796747,-176.3));
#384 = CIRCLE('',#385,3.497056274848);
#385 = AXIS2_PLACEMENT_3D('',#386,#387,#388);
#386 = CARTESIAN_POINT('',(4.5,-47.5,-176.3));
#387 = DIRECTION('',(0.,-1.089776975375E-16,1.));
#388 = DIRECTION('',(-1.,0.,0.));
#389 = ORIENTED_EDGE('',*,*,#390,.F.);
#390 = EDGE_CURVE('',#391,#382,#393,.T.);
#391 = VERTEX_POINT('',#392);
#392 = CARTESIAN_POINT('',(6.9,-41.04350203252,-176.3));
#393 = LINE('',#394,#395);
#394 = CARTESIAN_POINT('',(6.9,-41.04350203252,-176.3));
#395 = VECTOR('',#396,1.);
#396 = DIRECTION('',(-2.3E-16,-1.,-1.089776975375E-16));
#397 = ORIENTED_EDGE('',*,*,#398,.T.);
#398 = EDGE_CURVE('',#391,#399,#401,.T.);
#399 = VERTEX_POINT('',#400);
#400 = CARTESIAN_POINT('',(1.956497967476,-36.1,-176.3));
#401 = CIRCLE('',#402,3.497056274848);
#402 = AXIS2_PLACEMENT_3D('',#403,#404,#405);
#403 = CARTESIAN_POINT('',(4.5,-38.5,-176.3));
#404 = DIRECTION('',(0.,-1.089776975375E-16,1.));
#405 = DIRECTION('',(-1.,0.,0.));
#406 = ORIENTED_EDGE('',*,*,#407,.F.);
#407 = EDGE_CURVE('',#408,#399,#410,.T.);
#408 = VERTEX_POINT('',#409);
#409 = CARTESIAN_POINT('',(-1.956497967476,-36.1,-176.3));
#410 = LINE('',#411,#412);
#411 = CARTESIAN_POINT('',(-1.956497967476,-36.1,-176.3));
#412 = VECTOR('',#413,1.);
#413 = DIRECTION('',(1.,2.3E-16,-2.553512956638E-32));
#414 = ORIENTED_EDGE('',*,*,#415,.T.);
#415 = EDGE_CURVE('',#408,#416,#418,.T.);
#416 = VERTEX_POINT('',#417);
#417 = CARTESIAN_POINT('',(-6.9,-41.04350203252,-176.3));
#418 = CIRCLE('',#419,3.497056274848);
#419 = AXIS2_PLACEMENT_3D('',#420,#421,#422);
#420 = CARTESIAN_POINT('',(-4.5,-38.5,-176.3));
#421 = DIRECTION('',(0.,-1.089776975375E-16,1.));
#422 = DIRECTION('',(-1.,0.,0.));
#423 = ORIENTED_EDGE('',*,*,#424,.F.);
#424 = EDGE_CURVE('',#363,#416,#425,.T.);
#425 = LINE('',#426,#427);
#426 = CARTESIAN_POINT('',(-6.9,-44.95649796747,-176.3));
#427 = VECTOR('',#428,1.);
#428 = DIRECTION('',(0.,1.,1.089776975375E-16));
#429 = PLANE('',#430);
#430 = AXIS2_PLACEMENT_3D('',#431,#432,#433);
#431 = CARTESIAN_POINT('',(-4.5E-16,-43.,-176.3));
#432 = DIRECTION('',(0.,-1.089776975375E-16,1.));
#433 = DIRECTION('',(0.,-1.,-1.089776975375E-16));
#434 = ADVANCED_FACE('',(#435),#454,.F.);
#435 = FACE_BOUND('',#436,.T.);
#436 = EDGE_LOOP('',(#437,#438,#446,#453));
#437 = ORIENTED_EDGE('',*,*,#66,.F.);
#438 = ORIENTED_EDGE('',*,*,#439,.T.);
#439 = EDGE_CURVE('',#59,#440,#442,.T.);
#440 = VERTEX_POINT('',#441);
#441 = CARTESIAN_POINT('',(2.802943725152,-47.5,-178.3));
#442 = LINE('',#443,#444);
#443 = CARTESIAN_POINT('',(-2.802943725152,-47.5,-178.3));
#444 = VECTOR('',#445,1.);
#445 = DIRECTION('',(1.,1.6E-16,-1.7763568394E-32));
#446 = ORIENTED_EDGE('',*,*,#447,.T.);
#447 = EDGE_CURVE('',#440,#217,#448,.T.);
#448 = ELLIPSE('',#449,2.4,1.697056274848);
#449 = AXIS2_PLACEMENT_3D('',#450,#451,#452);
#450 = CARTESIAN_POINT('',(4.5,-47.5,-178.3));
#451 = DIRECTION('',(1.3E-16,-0.707106781187,0.707106781187));
#452 = DIRECTION('',(1.3E-16,-0.707106781187,-0.707106781187));
#453 = ORIENTED_EDGE('',*,*,#225,.F.);
#454 = PLANE('',#455);
#455 = AXIS2_PLACEMENT_3D('',#456,#457,#458);
#456 = CARTESIAN_POINT('',(-2.802943725152,-47.75,-178.55));
#457 = DIRECTION('',(1.3E-16,-0.707106781187,0.707106781187));
#458 = DIRECTION('',(-1.,-1.719238815543E-16,1.192388155425E-17));
#459 = ADVANCED_FACE('',(#460),#479,.T.);
#460 = FACE_BOUND('',#461,.F.);
#461 = EDGE_LOOP('',(#462,#463,#471,#478));
#462 = ORIENTED_EDGE('',*,*,#49,.F.);
#463 = ORIENTED_EDGE('',*,*,#464,.T.);
#464 = EDGE_CURVE('',#50,#465,#467,.T.);
#465 = VERTEX_POINT('',#466);
#466 = CARTESIAN_POINT('',(2.802943725152,-47.5,-176.8));
#467 = LINE('',#468,#469);
#468 = CARTESIAN_POINT('',(-2.802943725152,-47.5,-176.8));
#469 = VECTOR('',#470,1.);
#470 = DIRECTION('',(1.,1.6E-16,-1.7763568394E-32));
#471 = ORIENTED_EDGE('',*,*,#472,.T.);
#472 = EDGE_CURVE('',#465,#346,#473,.T.);
#473 = ELLIPSE('',#474,2.4,1.697056274848);
#474 = AXIS2_PLACEMENT_3D('',#475,#476,#477);
#475 = CARTESIAN_POINT('',(4.5,-47.5,-176.8));
#476 = DIRECTION('',(-1.3E-16,0.707106781187,0.707106781187));
#477 = DIRECTION('',(-1.3E-16,0.707106781187,-0.707106781187));
#478 = ORIENTED_EDGE('',*,*,#354,.F.);
#479 = PLANE('',#480);
#480 = AXIS2_PLACEMENT_3D('',#481,#482,#483);
#481 = CARTESIAN_POINT('',(-2.802943725152,-47.75,-176.55));
#482 = DIRECTION('',(-1.3E-16,0.707106781187,0.707106781187));
#483 = DIRECTION('',(-1.,-1.719238815543E-16,-1.192388155425E-17));
#484 = ADVANCED_FACE('',(#485),#496,.T.);
#485 = FACE_BOUND('',#486,.T.);
#486 = EDGE_LOOP('',(#487,#488,#489,#495));
#487 = ORIENTED_EDGE('',*,*,#58,.T.);
#488 = ORIENTED_EDGE('',*,*,#464,.T.);
#489 = ORIENTED_EDGE('',*,*,#490,.F.);
#490 = EDGE_CURVE('',#440,#465,#491,.T.);
#491 = LINE('',#492,#493);
#492 = CARTESIAN_POINT('',(2.802943725152,-47.5,-178.8));
#493 = VECTOR('',#494,1.);
#494 = DIRECTION('',(0.,3.310223024625E-16,1.));
#495 = ORIENTED_EDGE('',*,*,#439,.F.);
#496 = PLANE('',#497);
#497 = AXIS2_PLACEMENT_3D('',#498,#499,#500);
#498 = CARTESIAN_POINT('',(-2.802943725152,-47.5,-178.8));
#499 = DIRECTION('',(-1.6E-16,1.,-3.310223024625E-16));
#500 = DIRECTION('',(1.,1.6E-16,-1.7763568394E-32));
#501 = ADVANCED_FACE('',(#502),#533,.F.);
#502 = FACE_BOUND('',#503,.T.);
#503 = EDGE_LOOP('',(#504,#514,#521,#522,#523,#524,#525,#526));
#504 = ORIENTED_EDGE('',*,*,#505,.T.);
#505 = EDGE_CURVE('',#506,#508,#510,.T.);
#506 = VERTEX_POINT('',#507);
#507 = CARTESIAN_POINT('',(-2.802943725152,-38.5,-178.3));
#508 = VERTEX_POINT('',#509);
#509 = CARTESIAN_POINT('',(-2.802943725152,-38.5,-176.8));
#510 = LINE('',#511,#512);
#511 = CARTESIAN_POINT('',(-2.802943725152,-38.5,-178.8));
#512 = VECTOR('',#513,1.);
#513 = DIRECTION('',(0.,3.310223024625E-16,1.));
#514 = ORIENTED_EDGE('',*,*,#515,.T.);
#515 = EDGE_CURVE('',#508,#312,#516,.T.);
#516 = ELLIPSE('',#517,2.4,1.697056274848);
#517 = AXIS2_PLACEMENT_3D('',#518,#519,#520);
#518 = CARTESIAN_POINT('',(-4.5,-38.5,-176.8));
#519 = DIRECTION('',(1.3E-16,-0.707106781187,0.707106781187));
#520 = DIRECTION('',(1.3E-16,-0.707106781187,-0.707106781187));
#521 = ORIENTED_EDGE('',*,*,#311,.T.);
#522 = ORIENTED_EDGE('',*,*,#157,.F.);
#523 = ORIENTED_EDGE('',*,*,#108,.F.);
#524 = ORIENTED_EDGE('',*,*,#132,.T.);
#525 = ORIENTED_EDGE('',*,*,#182,.F.);
#526 = ORIENTED_EDGE('',*,*,#527,.F.);
#527 = EDGE_CURVE('',#506,#183,#528,.T.);
#528 = ELLIPSE('',#529,2.4,1.697056274848);
#529 = AXIS2_PLACEMENT_3D('',#530,#531,#532);
#530 = CARTESIAN_POINT('',(-4.5,-38.5,-178.3));
#531 = DIRECTION('',(-1.3E-16,0.707106781187,0.707106781187));
#532 = DIRECTION('',(-1.3E-16,0.707106781187,-0.707106781187));
#533 = CYLINDRICAL_SURFACE('',#534,1.697056274848);
#534 = AXIS2_PLACEMENT_3D('',#535,#536,#537);
#535 = CARTESIAN_POINT('',(-4.5,-38.5,-178.8));
#536 = DIRECTION('',(0.,-3.310223024625E-16,-1.));
#537 = DIRECTION('',(-1.,0.,0.));
#538 = ADVANCED_FACE('',(#539),#570,.F.);
#539 = FACE_BOUND('',#540,.T.);
#540 = EDGE_LOOP('',(#541,#542,#543,#544,#553,#561,#568,#569));
#541 = ORIENTED_EDGE('',*,*,#490,.T.);
#542 = ORIENTED_EDGE('',*,*,#472,.T.);
#543 = ORIENTED_EDGE('',*,*,#345,.T.);
#544 = ORIENTED_EDGE('',*,*,#545,.F.);
#545 = EDGE_CURVE('',#546,#338,#548,.T.);
#546 = VERTEX_POINT('',#547);
#547 = CARTESIAN_POINT('',(4.5,-45.80294372515,-176.8));
#548 = ELLIPSE('',#549,2.4,1.697056274848);
#549 = AXIS2_PLACEMENT_3D('',#550,#551,#552);
#550 = CARTESIAN_POINT('',(4.5,-47.5,-176.8));
#551 = DIRECTION('',(0.707106781187,-7.850462293419E-17,-0.707106781187)
  );
#552 = DIRECTION('',(-0.707106781187,-3.985046229342E-16,-0.707106781187
    ));
#553 = ORIENTED_EDGE('',*,*,#554,.F.);
#554 = EDGE_CURVE('',#555,#546,#557,.T.);
#555 = VERTEX_POINT('',#556);
#556 = CARTESIAN_POINT('',(4.5,-45.80294372515,-178.3));
#557 = LINE('',#558,#559);
#558 = CARTESIAN_POINT('',(4.5,-45.80294372515,-178.8));
#559 = VECTOR('',#560,1.);
#560 = DIRECTION('',(0.,3.310223024625E-16,1.));
#561 = ORIENTED_EDGE('',*,*,#562,.T.);
#562 = EDGE_CURVE('',#555,#209,#563,.T.);
#563 = ELLIPSE('',#564,2.4,1.697056274848);
#564 = AXIS2_PLACEMENT_3D('',#565,#566,#567);
#565 = CARTESIAN_POINT('',(4.5,-47.5,-178.3));
#566 = DIRECTION('',(-0.707106781187,-7.850462293419E-17,-0.707106781187
    ));
#567 = DIRECTION('',(0.707106781187,-3.885046229342E-16,-0.707106781187)
  );
#568 = ORIENTED_EDGE('',*,*,#216,.F.);
#569 = ORIENTED_EDGE('',*,*,#447,.F.);
#570 = CYLINDRICAL_SURFACE('',#571,1.697056274848);
#571 = AXIS2_PLACEMENT_3D('',#572,#573,#574);
#572 = CARTESIAN_POINT('',(4.5,-47.5,-178.8));
#573 = DIRECTION('',(0.,-3.310223024625E-16,-1.));
#574 = DIRECTION('',(-1.,0.,0.));
#575 = ADVANCED_FACE('',(#576),#595,.F.);
#576 = FACE_BOUND('',#577,.T.);
#577 = EDGE_LOOP('',(#578,#587,#593,#594));
#578 = ORIENTED_EDGE('',*,*,#579,.F.);
#579 = EDGE_CURVE('',#580,#192,#582,.T.);
#580 = VERTEX_POINT('',#581);
#581 = CARTESIAN_POINT('',(2.802943725152,-38.5,-178.3));
#582 = ELLIPSE('',#583,2.4,1.697056274848);
#583 = AXIS2_PLACEMENT_3D('',#584,#585,#586);
#584 = CARTESIAN_POINT('',(4.5,-38.5,-178.3));
#585 = DIRECTION('',(1.3E-16,-0.707106781187,-0.707106781187));
#586 = DIRECTION('',(-1.3E-16,0.707106781187,-0.707106781187));
#587 = ORIENTED_EDGE('',*,*,#588,.T.);
#588 = EDGE_CURVE('',#580,#506,#589,.T.);
#589 = LINE('',#590,#591);
#590 = CARTESIAN_POINT('',(2.802943725152,-38.5,-178.3));
#591 = VECTOR('',#592,1.);
#592 = DIRECTION('',(-1.,-1.6E-16,1.7763568394E-32));
#593 = ORIENTED_EDGE('',*,*,#527,.T.);
#594 = ORIENTED_EDGE('',*,*,#191,.F.);
#595 = PLANE('',#596);
#596 = AXIS2_PLACEMENT_3D('',#597,#598,#599);
#597 = CARTESIAN_POINT('',(2.802943725152,-38.25,-178.55));
#598 = DIRECTION('',(-1.3E-16,0.707106781187,0.707106781187));
#599 = DIRECTION('',(1.,1.719238815543E-16,1.192388155425E-17));
#600 = ADVANCED_FACE('',(#601),#620,.F.);
#601 = FACE_BOUND('',#602,.T.);
#602 = EDGE_LOOP('',(#603,#604,#612,#619));
#603 = ORIENTED_EDGE('',*,*,#562,.F.);
#604 = ORIENTED_EDGE('',*,*,#605,.T.);
#605 = EDGE_CURVE('',#555,#606,#608,.T.);
#606 = VERTEX_POINT('',#607);
#607 = CARTESIAN_POINT('',(4.5,-40.19705627484,-178.3));
#608 = LINE('',#609,#610);
#609 = CARTESIAN_POINT('',(4.5,-45.80294372515,-178.3));
#610 = VECTOR('',#611,1.);
#611 = DIRECTION('',(0.,1.,-3.310223024625E-16));
#612 = ORIENTED_EDGE('',*,*,#613,.T.);
#613 = EDGE_CURVE('',#606,#200,#614,.T.);
#614 = ELLIPSE('',#615,2.4,1.697056274848);
#615 = AXIS2_PLACEMENT_3D('',#616,#617,#618);
#616 = CARTESIAN_POINT('',(4.5,-38.5,-178.3));
#617 = DIRECTION('',(0.707106781187,7.850462293419E-17,0.707106781187));
#618 = DIRECTION('',(0.707106781187,-3.885046229342E-16,-0.707106781187)
  );
#619 = ORIENTED_EDGE('',*,*,#208,.F.);
#620 = PLANE('',#621);
#621 = AXIS2_PLACEMENT_3D('',#622,#623,#624);
#622 = CARTESIAN_POINT('',(4.75,-45.80294372515,-178.55));
#623 = DIRECTION('',(0.707106781187,7.850462293419E-17,0.707106781187));
#624 = DIRECTION('',(-1.1E-16,-1.,2.210223024625E-16));
#625 = ADVANCED_FACE('',(#626),#662,.F.);
#626 = FACE_BOUND('',#627,.T.);
#627 = EDGE_LOOP('',(#628,#636,#643,#644,#653,#659,#660,#661));
#628 = ORIENTED_EDGE('',*,*,#629,.T.);
#629 = EDGE_CURVE('',#606,#630,#632,.T.);
#630 = VERTEX_POINT('',#631);
#631 = CARTESIAN_POINT('',(4.5,-40.19705627484,-176.8));
#632 = LINE('',#633,#634);
#633 = CARTESIAN_POINT('',(4.5,-40.19705627484,-178.8));
#634 = VECTOR('',#635,1.);
#635 = DIRECTION('',(0.,3.310223024625E-16,1.));
#636 = ORIENTED_EDGE('',*,*,#637,.T.);
#637 = EDGE_CURVE('',#630,#329,#638,.T.);
#638 = ELLIPSE('',#639,2.4,1.697056274848);
#639 = AXIS2_PLACEMENT_3D('',#640,#641,#642);
#640 = CARTESIAN_POINT('',(4.5,-38.5,-176.8));
#641 = DIRECTION('',(-0.707106781187,7.850462293419E-17,0.707106781187)
  );
#642 = DIRECTION('',(-0.707106781187,-3.985046229342E-16,-0.707106781187
    ));
#643 = ORIENTED_EDGE('',*,*,#328,.T.);
#644 = ORIENTED_EDGE('',*,*,#645,.F.);
#645 = EDGE_CURVE('',#646,#321,#648,.T.);
#646 = VERTEX_POINT('',#647);
#647 = CARTESIAN_POINT('',(2.802943725152,-38.5,-176.8));
#648 = ELLIPSE('',#649,2.4,1.697056274848);
#649 = AXIS2_PLACEMENT_3D('',#650,#651,#652);
#650 = CARTESIAN_POINT('',(4.5,-38.5,-176.8));
#651 = DIRECTION('',(-1.3E-16,0.707106781187,-0.707106781187));
#652 = DIRECTION('',(1.3E-16,-0.707106781187,-0.707106781187));
#653 = ORIENTED_EDGE('',*,*,#654,.F.);
#654 = EDGE_CURVE('',#580,#646,#655,.T.);
#655 = LINE('',#656,#657);
#656 = CARTESIAN_POINT('',(2.802943725152,-38.5,-178.8));
#657 = VECTOR('',#658,1.);
#658 = DIRECTION('',(0.,3.310223024625E-16,1.));
#659 = ORIENTED_EDGE('',*,*,#579,.T.);
#660 = ORIENTED_EDGE('',*,*,#199,.F.);
#661 = ORIENTED_EDGE('',*,*,#613,.F.);
#662 = CYLINDRICAL_SURFACE('',#663,1.697056274848);
#663 = AXIS2_PLACEMENT_3D('',#664,#665,#666);
#664 = CARTESIAN_POINT('',(4.5,-38.5,-178.8));
#665 = DIRECTION('',(0.,-3.310223024625E-16,-1.));
#666 = DIRECTION('',(-1.,0.,0.));
#667 = ADVANCED_FACE('',(#668),#684,.T.);
#668 = FACE_BOUND('',#669,.F.);
#669 = EDGE_LOOP('',(#670,#676,#677,#683));
#670 = ORIENTED_EDGE('',*,*,#671,.T.);
#671 = EDGE_CURVE('',#234,#363,#672,.T.);
#672 = LINE('',#673,#674);
#673 = CARTESIAN_POINT('',(-6.9,-44.95649796747,-178.8));
#674 = VECTOR('',#675,1.);
#675 = DIRECTION('',(0.,3.310223024625E-16,1.));
#676 = ORIENTED_EDGE('',*,*,#362,.T.);
#677 = ORIENTED_EDGE('',*,*,#678,.F.);
#678 = EDGE_CURVE('',#236,#365,#679,.T.);
#679 = LINE('',#680,#681);
#680 = CARTESIAN_POINT('',(-1.956497967476,-49.9,-178.8));
#681 = VECTOR('',#682,1.);
#682 = DIRECTION('',(0.,3.310223024625E-16,1.));
#683 = ORIENTED_EDGE('',*,*,#233,.F.);
#684 = CYLINDRICAL_SURFACE('',#685,3.497056274848);
#685 = AXIS2_PLACEMENT_3D('',#686,#687,#688);
#686 = CARTESIAN_POINT('',(-4.5,-47.5,-178.8));
#687 = DIRECTION('',(0.,-3.310223024625E-16,-1.));
#688 = DIRECTION('',(-1.,0.,0.));
#689 = ADVANCED_FACE('',(#690),#701,.T.);
#690 = FACE_BOUND('',#691,.T.);
#691 = EDGE_LOOP('',(#692,#698,#699,#700));
#692 = ORIENTED_EDGE('',*,*,#693,.T.);
#693 = EDGE_CURVE('',#245,#374,#694,.T.);
#694 = LINE('',#695,#696);
#695 = CARTESIAN_POINT('',(1.956497967476,-49.9,-178.8));
#696 = VECTOR('',#697,1.);
#697 = DIRECTION('',(0.,3.310223024625E-16,1.));
#698 = ORIENTED_EDGE('',*,*,#373,.T.);
#699 = ORIENTED_EDGE('',*,*,#678,.F.);
#700 = ORIENTED_EDGE('',*,*,#244,.F.);
#701 = PLANE('',#702);
#702 = AXIS2_PLACEMENT_3D('',#703,#704,#705);
#703 = CARTESIAN_POINT('',(1.956497967476,-49.9,-178.8));
#704 = DIRECTION('',(0.,-1.,3.310223024625E-16));
#705 = DIRECTION('',(-1.,0.,0.));
#706 = ADVANCED_FACE('',(#707),#718,.T.);
#707 = FACE_BOUND('',#708,.F.);
#708 = EDGE_LOOP('',(#709,#710,#711,#717));
#709 = ORIENTED_EDGE('',*,*,#693,.T.);
#710 = ORIENTED_EDGE('',*,*,#381,.T.);
#711 = ORIENTED_EDGE('',*,*,#712,.F.);
#712 = EDGE_CURVE('',#253,#382,#713,.T.);
#713 = LINE('',#714,#715);
#714 = CARTESIAN_POINT('',(6.9,-44.95649796747,-178.8));
#715 = VECTOR('',#716,1.);
#716 = DIRECTION('',(0.,3.310223024625E-16,1.));
#717 = ORIENTED_EDGE('',*,*,#252,.F.);
#718 = CYLINDRICAL_SURFACE('',#719,3.497056274848);
#719 = AXIS2_PLACEMENT_3D('',#720,#721,#722);
#720 = CARTESIAN_POINT('',(4.5,-47.5,-178.8));
#721 = DIRECTION('',(0.,-3.310223024625E-16,-1.));
#722 = DIRECTION('',(-1.,0.,0.));
#723 = ADVANCED_FACE('',(#724),#735,.T.);
#724 = FACE_BOUND('',#725,.T.);
#725 = EDGE_LOOP('',(#726,#732,#733,#734));
#726 = ORIENTED_EDGE('',*,*,#727,.T.);
#727 = EDGE_CURVE('',#262,#391,#728,.T.);
#728 = LINE('',#729,#730);
#729 = CARTESIAN_POINT('',(6.9,-41.04350203252,-178.8));
#730 = VECTOR('',#731,1.);
#731 = DIRECTION('',(0.,3.310223024625E-16,1.));
#732 = ORIENTED_EDGE('',*,*,#390,.T.);
#733 = ORIENTED_EDGE('',*,*,#712,.F.);
#734 = ORIENTED_EDGE('',*,*,#261,.F.);
#735 = PLANE('',#736);
#736 = AXIS2_PLACEMENT_3D('',#737,#738,#739);
#737 = CARTESIAN_POINT('',(6.9,-41.04350203252,-178.8));
#738 = DIRECTION('',(1.,-2.3E-16,2.553512956638E-32));
#739 = DIRECTION('',(-2.3E-16,-1.,3.310223024625E-16));
#740 = ADVANCED_FACE('',(#741),#752,.T.);
#741 = FACE_BOUND('',#742,.F.);
#742 = EDGE_LOOP('',(#743,#744,#745,#751));
#743 = ORIENTED_EDGE('',*,*,#727,.T.);
#744 = ORIENTED_EDGE('',*,*,#398,.T.);
#745 = ORIENTED_EDGE('',*,*,#746,.F.);
#746 = EDGE_CURVE('',#270,#399,#747,.T.);
#747 = LINE('',#748,#749);
#748 = CARTESIAN_POINT('',(1.956497967476,-36.1,-178.8));
#749 = VECTOR('',#750,1.);
#750 = DIRECTION('',(0.,3.310223024625E-16,1.));
#751 = ORIENTED_EDGE('',*,*,#269,.F.);
#752 = CYLINDRICAL_SURFACE('',#753,3.497056274848);
#753 = AXIS2_PLACEMENT_3D('',#754,#755,#756);
#754 = CARTESIAN_POINT('',(4.5,-38.5,-178.8));
#755 = DIRECTION('',(0.,-3.310223024625E-16,-1.));
#756 = DIRECTION('',(-1.,0.,0.));
#757 = ADVANCED_FACE('',(#758),#769,.T.);
#758 = FACE_BOUND('',#759,.T.);
#759 = EDGE_LOOP('',(#760,#766,#767,#768));
#760 = ORIENTED_EDGE('',*,*,#761,.T.);
#761 = EDGE_CURVE('',#279,#408,#762,.T.);
#762 = LINE('',#763,#764);
#763 = CARTESIAN_POINT('',(-1.956497967476,-36.1,-178.8));
#764 = VECTOR('',#765,1.);
#765 = DIRECTION('',(0.,3.310223024625E-16,1.));
#766 = ORIENTED_EDGE('',*,*,#407,.T.);
#767 = ORIENTED_EDGE('',*,*,#746,.F.);
#768 = ORIENTED_EDGE('',*,*,#278,.F.);
#769 = PLANE('',#770);
#770 = AXIS2_PLACEMENT_3D('',#771,#772,#773);
#771 = CARTESIAN_POINT('',(-1.956497967476,-36.1,-178.8));
#772 = DIRECTION('',(-2.3E-16,1.,-3.310223024625E-16));
#773 = DIRECTION('',(1.,2.3E-16,-2.553512956638E-32));
#774 = ADVANCED_FACE('',(#775),#786,.T.);
#775 = FACE_BOUND('',#776,.F.);
#776 = EDGE_LOOP('',(#777,#778,#779,#785));
#777 = ORIENTED_EDGE('',*,*,#761,.T.);
#778 = ORIENTED_EDGE('',*,*,#415,.T.);
#779 = ORIENTED_EDGE('',*,*,#780,.F.);
#780 = EDGE_CURVE('',#287,#416,#781,.T.);
#781 = LINE('',#782,#783);
#782 = CARTESIAN_POINT('',(-6.9,-41.04350203252,-178.8));
#783 = VECTOR('',#784,1.);
#784 = DIRECTION('',(0.,3.310223024625E-16,1.));
#785 = ORIENTED_EDGE('',*,*,#286,.F.);
#786 = CYLINDRICAL_SURFACE('',#787,3.497056274848);
#787 = AXIS2_PLACEMENT_3D('',#788,#789,#790);
#788 = CARTESIAN_POINT('',(-4.5,-38.5,-178.8));
#789 = DIRECTION('',(0.,-3.310223024625E-16,-1.));
#790 = DIRECTION('',(-1.,0.,0.));
#791 = ADVANCED_FACE('',(#792),#798,.T.);
#792 = FACE_BOUND('',#793,.T.);
#793 = EDGE_LOOP('',(#794,#795,#796,#797));
#794 = ORIENTED_EDGE('',*,*,#671,.T.);
#795 = ORIENTED_EDGE('',*,*,#424,.T.);
#796 = ORIENTED_EDGE('',*,*,#780,.F.);
#797 = ORIENTED_EDGE('',*,*,#295,.F.);
#798 = PLANE('',#799);
#799 = AXIS2_PLACEMENT_3D('',#800,#801,#802);
#800 = CARTESIAN_POINT('',(-6.9,-44.95649796747,-178.8));
#801 = DIRECTION('',(-1.,0.,0.));
#802 = DIRECTION('',(0.,1.,-3.310223024625E-16));
#803 = ADVANCED_FACE('',(#804),#815,.T.);
#804 = FACE_BOUND('',#805,.F.);
#805 = EDGE_LOOP('',(#806,#807,#813,#814));
#806 = ORIENTED_EDGE('',*,*,#645,.F.);
#807 = ORIENTED_EDGE('',*,*,#808,.T.);
#808 = EDGE_CURVE('',#646,#508,#809,.T.);
#809 = LINE('',#810,#811);
#810 = CARTESIAN_POINT('',(2.802943725152,-38.5,-176.8));
#811 = VECTOR('',#812,1.);
#812 = DIRECTION('',(-1.,-1.6E-16,1.7763568394E-32));
#813 = ORIENTED_EDGE('',*,*,#515,.T.);
#814 = ORIENTED_EDGE('',*,*,#320,.F.);
#815 = PLANE('',#816);
#816 = AXIS2_PLACEMENT_3D('',#817,#818,#819);
#817 = CARTESIAN_POINT('',(2.802943725152,-38.25,-176.55));
#818 = DIRECTION('',(1.3E-16,-0.707106781187,0.707106781187));
#819 = DIRECTION('',(1.,1.719238815543E-16,-1.192388155425E-17));
#820 = ADVANCED_FACE('',(#821),#832,.T.);
#821 = FACE_BOUND('',#822,.F.);
#822 = EDGE_LOOP('',(#823,#824,#830,#831));
#823 = ORIENTED_EDGE('',*,*,#545,.F.);
#824 = ORIENTED_EDGE('',*,*,#825,.T.);
#825 = EDGE_CURVE('',#546,#630,#826,.T.);
#826 = LINE('',#827,#828);
#827 = CARTESIAN_POINT('',(4.5,-45.80294372515,-176.8));
#828 = VECTOR('',#829,1.);
#829 = DIRECTION('',(0.,1.,-3.310223024625E-16));
#830 = ORIENTED_EDGE('',*,*,#637,.T.);
#831 = ORIENTED_EDGE('',*,*,#337,.F.);
#832 = PLANE('',#833);
#833 = AXIS2_PLACEMENT_3D('',#834,#835,#836);
#834 = CARTESIAN_POINT('',(4.75,-45.80294372515,-176.55));
#835 = DIRECTION('',(-0.707106781187,7.850462293419E-17,0.707106781187)
  );
#836 = DIRECTION('',(1.1E-16,-1.,2.210223024625E-16));
#837 = ADVANCED_FACE('',(#838),#844,.T.);
#838 = FACE_BOUND('',#839,.T.);
#839 = EDGE_LOOP('',(#840,#841,#842,#843));
#840 = ORIENTED_EDGE('',*,*,#654,.T.);
#841 = ORIENTED_EDGE('',*,*,#808,.T.);
#842 = ORIENTED_EDGE('',*,*,#505,.F.);
#843 = ORIENTED_EDGE('',*,*,#588,.F.);
#844 = PLANE('',#845);
#845 = AXIS2_PLACEMENT_3D('',#846,#847,#848);
#846 = CARTESIAN_POINT('',(2.802943725152,-38.5,-178.8));
#847 = DIRECTION('',(1.6E-16,-1.,3.310223024625E-16));
#848 = DIRECTION('',(-1.,-1.6E-16,1.7763568394E-32));
#849 = ADVANCED_FACE('',(#850),#856,.T.);
#850 = FACE_BOUND('',#851,.T.);
#851 = EDGE_LOOP('',(#852,#853,#854,#855));
#852 = ORIENTED_EDGE('',*,*,#554,.T.);
#853 = ORIENTED_EDGE('',*,*,#825,.T.);
#854 = ORIENTED_EDGE('',*,*,#629,.F.);
#855 = ORIENTED_EDGE('',*,*,#605,.F.);
#856 = PLANE('',#857);
#857 = AXIS2_PLACEMENT_3D('',#858,#859,#860);
#858 = CARTESIAN_POINT('',(4.5,-45.80294372515,-178.8));
#859 = DIRECTION('',(-1.,0.,0.));
#860 = DIRECTION('',(0.,1.,-3.310223024625E-16));
#861 = ( GEOMETRIC_REPRESENTATION_CONTEXT(3) 
GLOBAL_UNCERTAINTY_ASSIGNED_CONTEXT((#865)) GLOBAL_UNIT_ASSIGNED_CONTEXT
((#862,#863,#864)) REPRESENTATION_CONTEXT('Context #1',
  '3D Context with UNIT and UNCERTAINTY') );
#862 = ( LENGTH_UNIT() NAMED_UNIT(*) SI_UNIT(.MILLI.,.METRE.) );
#863 = ( NAMED_UNIT(*) PLANE_ANGLE_UNIT() SI_UNIT($,.RADIAN.) );
#864 = ( NAMED_UNIT(*) SI_UNIT($,.STERADIAN.) SOLID_ANGLE_UNIT() );
#865 = UNCERTAINTY_MEASURE_WITH_UNIT(LENGTH_MEASURE(1.E-07),#862,
  'distance_accuracy_value','confusion accuracy');
#866 = PRODUCT_RELATED_PRODUCT_CATEGORY('part',$,(#7));
ENDSEC;
END-ISO-10303-21;
