ISO-10303-21;
HEADER;
FILE_DESCRIPTION(('FreeCAD Model'),'2;1');
FILE_NAME('Open CASCADE Shape Model','2025-12-01T23:20:01',('FreeCAD'),(
    'FreeCAD'),'Open CASCADE STEP processor 7.8','FreeCAD','Unknown');
FILE_SCHEMA(('AUTOMOTIVE_DESIGN { 1 0 10303 214 1 1 1 1 }'));
ENDSEC;
DATA;
#1 = APPLICATION_PROTOCOL_DEFINITION('international standard',
  'automotive_design',2000,#2);
#2 = APPLICATION_CONTEXT(
  'core data for automotive mechanical design processes');
#3 = SHAPE_DEFINITION_REPRESENTATION(#4,#10);
#4 = PRODUCT_DEFINITION_SHAPE('','',#5);
#5 = PRODUCT_DEFINITION('design','',#6,#9);
#6 = PRODUCT_DEFINITION_FORMATION('','',#7);
#7 = PRODUCT('Open CASCADE STEP translator 7.8 8',
  'Open CASCADE STEP translator 7.8 8','',(#8));
#8 = PRODUCT_CONTEXT('',#2,'mechanical');
#9 = PRODUCT_DEFINITION_CONTEXT('part definition',#2,'design');
#10 = ADVANCED_BREP_SHAPE_REPRESENTATION('',(#11,#15),#1541);
#11 = AXIS2_PLACEMENT_3D('',#12,#13,#14);
#12 = CARTESIAN_POINT('',(0.,0.,0.));
#13 = DIRECTION('',(0.,0.,1.));
#14 = DIRECTION('',(1.,0.,-0.));
#15 = BREP_WITH_VOIDS('',#16,(#1220,#1438));
#16 = CLOSED_SHELL('',(#17,#123,#218,#243,#268,#317,#429,#497,#522,#539,
    #625,#676,#718,#764,#815,#833,#851,#863,#889,#932,#951,#968,#985,
    #1002,#1019,#1036,#1048,#1060,#1109,#1120,#1155,#1166,#1178,#1203));
#17 = ADVANCED_FACE('',(#18),#118,.T.);
#18 = FACE_BOUND('',#19,.T.);
#19 = EDGE_LOOP('',(#20,#30,#39,#47,#55,#63,#71,#79,#87,#95,#103,#111));
#20 = ORIENTED_EDGE('',*,*,#21,.T.);
#21 = EDGE_CURVE('',#22,#24,#26,.T.);
#22 = VERTEX_POINT('',#23);
#23 = CARTESIAN_POINT('',(10.,10.713007501928,17.413627490794));
#24 = VERTEX_POINT('',#25);
#25 = CARTESIAN_POINT('',(10.,10.713007501927,12.499999999999));
#26 = LINE('',#27,#28);
#27 = CARTESIAN_POINT('',(10.,10.713007501928,18.644645635833));
#28 = VECTOR('',#29,1.);
#29 = DIRECTION('',(0.,0.,-1.));
#30 = ORIENTED_EDGE('',*,*,#31,.F.);
#31 = EDGE_CURVE('',#32,#24,#34,.T.);
#32 = VERTEX_POINT('',#33);
#33 = CARTESIAN_POINT('',(10.,2.713007501927,4.5));
#34 = CIRCLE('',#35,8.);
#35 = AXIS2_PLACEMENT_3D('',#36,#37,#38);
#36 = CARTESIAN_POINT('',(10.,2.713007501927,12.5));
#37 = DIRECTION('',(1.,-0.,0.));
#38 = DIRECTION('',(0.,0.,-1.));
#39 = ORIENTED_EDGE('',*,*,#40,.T.);
#40 = EDGE_CURVE('',#32,#41,#43,.T.);
#41 = VERTEX_POINT('',#42);
#42 = CARTESIAN_POINT('',(10.,2.20026102177,4.5));
#43 = LINE('',#44,#45);
#44 = CARTESIAN_POINT('',(10.,20.,4.5));
#45 = VECTOR('',#46,1.);
#46 = DIRECTION('',(0.,-1.,0.));
#47 = ORIENTED_EDGE('',*,*,#48,.F.);
#48 = EDGE_CURVE('',#49,#41,#51,.T.);
#49 = VERTEX_POINT('',#50);
#50 = CARTESIAN_POINT('',(10.,2.20026102177,0.));
#51 = LINE('',#52,#53);
#52 = CARTESIAN_POINT('',(10.,2.20026102177,0.));
#53 = VECTOR('',#54,1.);
#54 = DIRECTION('',(0.,0.,1.));
#55 = ORIENTED_EDGE('',*,*,#56,.T.);
#56 = EDGE_CURVE('',#49,#57,#59,.T.);
#57 = VERTEX_POINT('',#58);
#58 = CARTESIAN_POINT('',(10.,39.999936606054,0.));
#59 = LINE('',#60,#61);
#60 = CARTESIAN_POINT('',(10.,19.496661252236,0.));
#61 = VECTOR('',#62,1.);
#62 = DIRECTION('',(0.,1.,0.));
#63 = ORIENTED_EDGE('',*,*,#64,.F.);
#64 = EDGE_CURVE('',#65,#57,#67,.T.);
#65 = VERTEX_POINT('',#66);
#66 = CARTESIAN_POINT('',(10.,39.024486541748,4.903917789459));
#67 = LINE('',#68,#69);
#68 = CARTESIAN_POINT('',(10.,39.219576895964,3.923132515461));
#69 = VECTOR('',#70,1.);
#70 = DIRECTION('',(0.,0.195090354216,-0.980785273998));
#71 = ORIENTED_EDGE('',*,*,#72,.F.);
#72 = EDGE_CURVE('',#73,#65,#75,.T.);
#73 = VERTEX_POINT('',#74);
#74 = CARTESIAN_POINT('',(10.,33.054572985064,3.716427947096));
#75 = LINE('',#76,#77);
#76 = CARTESIAN_POINT('',(10.,19.408781061783,1.002110705139));
#77 = VECTOR('',#78,1.);
#78 = DIRECTION('',(0.,0.980785273998,0.195090354216));
#79 = ORIENTED_EDGE('',*,*,#80,.T.);
#80 = EDGE_CURVE('',#73,#81,#83,.T.);
#81 = VERTEX_POINT('',#82);
#82 = CARTESIAN_POINT('',(10.,31.521162800926,11.425400200722));
#83 = LINE('',#84,#85);
#84 = CARTESIAN_POINT('',(10.,33.054572985064,3.716427947096));
#85 = VECTOR('',#86,1.);
#86 = DIRECTION('',(0.,-0.195090354216,0.980785273998));
#87 = ORIENTED_EDGE('',*,*,#88,.F.);
#88 = EDGE_CURVE('',#89,#81,#91,.T.);
#89 = VERTEX_POINT('',#90);
#90 = CARTESIAN_POINT('',(10.,37.49107635761,12.612890043086));
#91 = LINE('',#92,#93);
#92 = CARTESIAN_POINT('',(10.,37.49107635761,12.612890043086));
#93 = VECTOR('',#94,1.);
#94 = DIRECTION('',(0.,-0.980785273998,-0.195090354216));
#95 = ORIENTED_EDGE('',*,*,#96,.F.);
#96 = EDGE_CURVE('',#97,#89,#99,.T.);
#97 = VERTEX_POINT('',#98);
#98 = CARTESIAN_POINT('',(10.,35.317769811643,23.538837995426));
#99 = LINE('',#100,#101);
#100 = CARTESIAN_POINT('',(10.,35.317769811643,23.538837995426));
#101 = VECTOR('',#102,1.);
#102 = DIRECTION('',(-0.,0.195090354216,-0.980785273998));
#103 = ORIENTED_EDGE('',*,*,#104,.T.);
#104 = EDGE_CURVE('',#97,#105,#107,.T.);
#105 = VERTEX_POINT('',#106);
#106 = CARTESIAN_POINT('',(10.,11.920371970604,18.884805401791));
#107 = LINE('',#108,#109);
#108 = CARTESIAN_POINT('',(10.,35.317769811643,23.538837995426));
#109 = VECTOR('',#110,1.);
#110 = DIRECTION('',(0.,-0.980785273998,-0.195090354216));
#111 = ORIENTED_EDGE('',*,*,#112,.F.);
#112 = EDGE_CURVE('',#22,#105,#113,.T.);
#113 = CIRCLE('',#114,1.5);
#114 = AXIS2_PLACEMENT_3D('',#115,#116,#117);
#115 = CARTESIAN_POINT('',(10.,12.213007501928,17.413627490794));
#116 = DIRECTION('',(-1.,-0.,-0.));
#117 = DIRECTION('',(0.,0.,-1.));
#118 = PLANE('',#119);
#119 = AXIS2_PLACEMENT_3D('',#120,#121,#122);
#120 = CARTESIAN_POINT('',(10.,22.799092813687,8.824203425552));
#121 = DIRECTION('',(1.,0.,0.));
#122 = DIRECTION('',(0.,0.,1.));
#123 = ADVANCED_FACE('',(#124),#213,.T.);
#124 = FACE_BOUND('',#125,.T.);
#125 = EDGE_LOOP('',(#126,#136,#144,#152,#160,#168,#176,#184,#190,#191,
    #199,#207));
#126 = ORIENTED_EDGE('',*,*,#127,.T.);
#127 = EDGE_CURVE('',#128,#130,#132,.T.);
#128 = VERTEX_POINT('',#129);
#129 = CARTESIAN_POINT('',(-9.999999999996,10.713007501939,
    17.413627490787));
#130 = VERTEX_POINT('',#131);
#131 = CARTESIAN_POINT('',(-9.99999999999,10.713007501938,
    12.499999999999));
#132 = LINE('',#133,#134);
#133 = CARTESIAN_POINT('',(-9.999999999997,10.713007501949,
    18.644645635807));
#134 = VECTOR('',#135,1.);
#135 = DIRECTION('',(1.295E-12,-1.37788E-24,-1.));
#136 = ORIENTED_EDGE('',*,*,#137,.T.);
#137 = EDGE_CURVE('',#130,#138,#140,.T.);
#138 = VERTEX_POINT('',#139);
#139 = CARTESIAN_POINT('',(-8.799999999997,10.713007501937,
    12.500000000001));
#140 = LINE('',#141,#142);
#141 = CARTESIAN_POINT('',(-9.999999999975,10.713007501938,
    12.499999999999));
#142 = VECTOR('',#143,1.);
#143 = DIRECTION('',(1.,-1.06415E-12,1.29485E-12));
#144 = ORIENTED_EDGE('',*,*,#145,.F.);
#145 = EDGE_CURVE('',#146,#138,#148,.T.);
#146 = VERTEX_POINT('',#147);
#147 = CARTESIAN_POINT('',(-8.799999999979,10.713007501948,
    4.499999999976));
#148 = LINE('',#149,#150);
#149 = CARTESIAN_POINT('',(-8.799999999997,10.713007501937,
    9.683279518242));
#150 = VECTOR('',#151,1.);
#151 = DIRECTION('',(-9.89E-15,1.1807E-13,1.));
#152 = ORIENTED_EDGE('',*,*,#153,.T.);
#153 = EDGE_CURVE('',#146,#154,#156,.T.);
#154 = VERTEX_POINT('',#155);
#155 = CARTESIAN_POINT('',(-8.799999999998,10.713007501928,1.));
#156 = LINE('',#157,#158);
#157 = CARTESIAN_POINT('',(-8.799999999997,10.713007501928,
    18.644645635809));
#158 = VECTOR('',#159,1.);
#159 = DIRECTION('',(0.,0.,-1.));
#160 = ORIENTED_EDGE('',*,*,#161,.F.);
#161 = EDGE_CURVE('',#162,#154,#164,.T.);
#162 = VERTEX_POINT('',#163);
#163 = CARTESIAN_POINT('',(8.8,10.713007501928,1.));
#164 = LINE('',#165,#166);
#165 = CARTESIAN_POINT('',(2.31761E-12,10.713007501928,1.));
#166 = VECTOR('',#167,1.);
#167 = DIRECTION('',(-1.,0.,0.));
#168 = ORIENTED_EDGE('',*,*,#169,.T.);
#169 = EDGE_CURVE('',#162,#170,#172,.T.);
#170 = VERTEX_POINT('',#171);
#171 = CARTESIAN_POINT('',(8.8,10.713007501928,4.5));
#172 = LINE('',#173,#174);
#173 = CARTESIAN_POINT('',(8.8,10.713007501928,0.));
#174 = VECTOR('',#175,1.);
#175 = DIRECTION('',(0.,0.,1.));
#176 = ORIENTED_EDGE('',*,*,#177,.T.);
#177 = EDGE_CURVE('',#170,#178,#180,.T.);
#178 = VERTEX_POINT('',#179);
#179 = CARTESIAN_POINT('',(8.8,10.713007501927,12.499999999999));
#180 = LINE('',#181,#182);
#181 = CARTESIAN_POINT('',(8.8,10.713007501928,9.683279518245));
#182 = VECTOR('',#183,1.);
#183 = DIRECTION('',(0.,1.1807E-13,1.));
#184 = ORIENTED_EDGE('',*,*,#185,.F.);
#185 = EDGE_CURVE('',#24,#178,#186,.T.);
#186 = LINE('',#187,#188);
#187 = CARTESIAN_POINT('',(9.999999999996,10.713007501927,
    12.499999999999));
#188 = VECTOR('',#189,1.);
#189 = DIRECTION('',(-1.,-0.,-0.));
#190 = ORIENTED_EDGE('',*,*,#21,.F.);
#191 = ORIENTED_EDGE('',*,*,#192,.T.);
#192 = EDGE_CURVE('',#22,#193,#195,.T.);
#193 = VERTEX_POINT('',#194);
#194 = CARTESIAN_POINT('',(8.800000000001,10.713007501928,
    17.413627490794));
#195 = LINE('',#196,#197);
#196 = CARTESIAN_POINT('',(10.000000000001,10.713007501928,
    17.413627490794));
#197 = VECTOR('',#198,1.);
#198 = DIRECTION('',(-1.,-0.,-0.));
#199 = ORIENTED_EDGE('',*,*,#200,.T.);
#200 = EDGE_CURVE('',#193,#201,#203,.T.);
#201 = VERTEX_POINT('',#202);
#202 = CARTESIAN_POINT('',(-8.799999999996,10.713007501929,
    17.413627490769));
#203 = LINE('',#204,#205);
#204 = CARTESIAN_POINT('',(8.800000000001,10.713007501929,
    17.413627490794));
#205 = VECTOR('',#206,1.);
#206 = DIRECTION('',(-1.,-0.,-1.38334E-12));
#207 = ORIENTED_EDGE('',*,*,#208,.T.);
#208 = EDGE_CURVE('',#201,#128,#209,.T.);
#209 = LINE('',#210,#211);
#210 = CARTESIAN_POINT('',(-8.799999999998,10.713007501938,
    17.413627490788));
#211 = VECTOR('',#212,1.);
#212 = DIRECTION('',(-1.,1.06415E-12,-1.29485E-12));
#213 = PLANE('',#214);
#214 = AXIS2_PLACEMENT_3D('',#215,#216,#217);
#215 = CARTESIAN_POINT('',(6.34257E-12,10.713007501932,9.933892469558));
#216 = DIRECTION('',(-5.3312E-13,-1.,1.1807E-13));
#217 = DIRECTION('',(-1.,5.3312E-13,0.));
#218 = ADVANCED_FACE('',(#219),#238,.T.);
#219 = FACE_BOUND('',#220,.T.);
#220 = EDGE_LOOP('',(#221,#222,#230,#237));
#221 = ORIENTED_EDGE('',*,*,#112,.T.);
#222 = ORIENTED_EDGE('',*,*,#223,.T.);
#223 = EDGE_CURVE('',#105,#224,#226,.T.);
#224 = VERTEX_POINT('',#225);
#225 = CARTESIAN_POINT('',(8.800000000001,11.920371970604,
    18.884805401791));
#226 = LINE('',#227,#228);
#227 = CARTESIAN_POINT('',(10.000000000001,11.920371970604,
    18.884805401791));
#228 = VECTOR('',#229,1.);
#229 = DIRECTION('',(-1.,-0.,-0.));
#230 = ORIENTED_EDGE('',*,*,#231,.F.);
#231 = EDGE_CURVE('',#193,#224,#232,.T.);
#232 = CIRCLE('',#233,1.5);
#233 = AXIS2_PLACEMENT_3D('',#234,#235,#236);
#234 = CARTESIAN_POINT('',(8.800000000001,12.213007501928,
    17.413627490794));
#235 = DIRECTION('',(-1.,0.,0.));
#236 = DIRECTION('',(0.,-1.,1.1807E-13));
#237 = ORIENTED_EDGE('',*,*,#192,.F.);
#238 = CYLINDRICAL_SURFACE('',#239,1.5);
#239 = AXIS2_PLACEMENT_3D('',#240,#241,#242);
#240 = CARTESIAN_POINT('',(10.000000000001,12.213007501928,
    17.413627490794));
#241 = DIRECTION('',(-1.,-0.,-0.));
#242 = DIRECTION('',(0.,-1.,1.1807E-13));
#243 = ADVANCED_FACE('',(#244),#263,.F.);
#244 = FACE_BOUND('',#245,.T.);
#245 = EDGE_LOOP('',(#246,#247,#248,#257));
#246 = ORIENTED_EDGE('',*,*,#31,.T.);
#247 = ORIENTED_EDGE('',*,*,#185,.T.);
#248 = ORIENTED_EDGE('',*,*,#249,.F.);
#249 = EDGE_CURVE('',#250,#178,#252,.T.);
#250 = VERTEX_POINT('',#251);
#251 = CARTESIAN_POINT('',(8.8,2.713007501927,4.5));
#252 = CIRCLE('',#253,8.);
#253 = AXIS2_PLACEMENT_3D('',#254,#255,#256);
#254 = CARTESIAN_POINT('',(8.8,2.713007501927,12.5));
#255 = DIRECTION('',(1.,-0.,0.));
#256 = DIRECTION('',(0.,0.,-1.));
#257 = ORIENTED_EDGE('',*,*,#258,.F.);
#258 = EDGE_CURVE('',#32,#250,#259,.T.);
#259 = LINE('',#260,#261);
#260 = CARTESIAN_POINT('',(9.999999999996,2.713007501927,4.5));
#261 = VECTOR('',#262,1.);
#262 = DIRECTION('',(-1.,-0.,-0.));
#263 = CYLINDRICAL_SURFACE('',#264,8.);
#264 = AXIS2_PLACEMENT_3D('',#265,#266,#267);
#265 = CARTESIAN_POINT('',(9.999999999996,2.713007501927,12.5));
#266 = DIRECTION('',(-1.,-0.,-0.));
#267 = DIRECTION('',(0.,0.,-1.));
#268 = ADVANCED_FACE('',(#269),#312,.T.);
#269 = FACE_BOUND('',#270,.T.);
#270 = EDGE_LOOP('',(#271,#272,#281,#289,#297,#305,#311));
#271 = ORIENTED_EDGE('',*,*,#104,.F.);
#272 = ORIENTED_EDGE('',*,*,#273,.F.);
#273 = EDGE_CURVE('',#274,#97,#276,.T.);
#274 = VERTEX_POINT('',#275);
#275 = CARTESIAN_POINT('',(-10.,35.317769811643,23.538837995426));
#276 = CIRCLE('',#277,10.);
#277 = AXIS2_PLACEMENT_3D('',#278,#279,#280);
#278 = CARTESIAN_POINT('',(0.,35.317769811643,23.538837995426));
#279 = DIRECTION('',(0.,0.195090354216,-0.980785273998));
#280 = DIRECTION('',(1.,0.,0.));
#281 = ORIENTED_EDGE('',*,*,#282,.F.);
#282 = EDGE_CURVE('',#283,#274,#285,.T.);
#283 = VERTEX_POINT('',#284);
#284 = CARTESIAN_POINT('',(-10.,15.702064331678,19.637030911106));
#285 = LINE('',#286,#287);
#286 = CARTESIAN_POINT('',(-10.,32.268093834866,22.93221962306));
#287 = VECTOR('',#288,1.);
#288 = DIRECTION('',(0.,0.980785273998,0.195090354216));
#289 = ORIENTED_EDGE('',*,*,#290,.T.);
#290 = EDGE_CURVE('',#283,#291,#293,.T.);
#291 = VERTEX_POINT('',#292);
#292 = CARTESIAN_POINT('',(-9.999999999996,11.920371970615,
    18.884805401784));
#293 = LINE('',#294,#295);
#294 = CARTESIAN_POINT('',(-9.999999999993,15.702064331699,
    19.637030911093));
#295 = VECTOR('',#296,1.);
#296 = DIRECTION('',(-7.909135228207E-13,-0.980785273998,-0.195090354218
    ));
#297 = ORIENTED_EDGE('',*,*,#298,.F.);
#298 = EDGE_CURVE('',#299,#291,#301,.T.);
#299 = VERTEX_POINT('',#300);
#300 = CARTESIAN_POINT('',(-8.799999999998,11.920371970604,
    18.884805401767));
#301 = LINE('',#302,#303);
#302 = CARTESIAN_POINT('',(-8.799999999998,11.920371970614,
    18.884805401785));
#303 = VECTOR('',#304,1.);
#304 = DIRECTION('',(-1.,1.06415E-12,-1.29485E-12));
#305 = ORIENTED_EDGE('',*,*,#306,.F.);
#306 = EDGE_CURVE('',#224,#299,#307,.T.);
#307 = LINE('',#308,#309);
#308 = CARTESIAN_POINT('',(8.799999999999,11.920371970604,
    18.884805401791));
#309 = VECTOR('',#310,1.);
#310 = DIRECTION('',(-1.,-0.,-1.38334E-12));
#311 = ORIENTED_EDGE('',*,*,#223,.F.);
#312 = PLANE('',#313);
#313 = AXIS2_PLACEMENT_3D('',#314,#315,#316);
#314 = CARTESIAN_POINT('',(3.2054E-13,25.939320853342,21.673348190694));
#315 = DIRECTION('',(-4.1426E-13,-0.195090354216,0.980785273998));
#316 = DIRECTION('',(0.,0.980785273998,0.195090354216));
#317 = ADVANCED_FACE('',(#318),#424,.T.);
#318 = FACE_BOUND('',#319,.T.);
#319 = EDGE_LOOP('',(#320,#321,#322,#330,#339,#348,#357,#365,#373,#381,
    #390,#399,#408,#417));
#320 = ORIENTED_EDGE('',*,*,#40,.F.);
#321 = ORIENTED_EDGE('',*,*,#258,.T.);
#322 = ORIENTED_EDGE('',*,*,#323,.T.);
#323 = EDGE_CURVE('',#250,#324,#326,.T.);
#324 = VERTEX_POINT('',#325);
#325 = CARTESIAN_POINT('',(8.8,2.20026102177,4.5));
#326 = LINE('',#327,#328);
#327 = CARTESIAN_POINT('',(8.8,20.,4.5));
#328 = VECTOR('',#329,1.);
#329 = DIRECTION('',(0.,-1.,0.));
#330 = ORIENTED_EDGE('',*,*,#331,.F.);
#331 = EDGE_CURVE('',#332,#324,#334,.T.);
#332 = VERTEX_POINT('',#333);
#333 = CARTESIAN_POINT('',(7.503603883713,-1.727984015068,4.5));
#334 = CIRCLE('',#335,6.59973897823);
#335 = AXIS2_PLACEMENT_3D('',#336,#337,#338);
#336 = CARTESIAN_POINT('',(2.20026102177,2.20026102177,4.5));
#337 = DIRECTION('',(0.,0.,1.));
#338 = DIRECTION('',(1.,0.,0.));
#339 = ORIENTED_EDGE('',*,*,#340,.T.);
#340 = EDGE_CURVE('',#332,#341,#343,.T.);
#341 = VERTEX_POINT('',#342);
#342 = CARTESIAN_POINT('',(-7.503603883713,-1.727984015068,4.5));
#343 = CIRCLE('',#344,7.7);
#344 = AXIS2_PLACEMENT_3D('',#345,#346,#347);
#345 = CARTESIAN_POINT('',(0.,0.,4.5));
#346 = DIRECTION('',(0.,0.,1.));
#347 = DIRECTION('',(1.,0.,0.));
#348 = ORIENTED_EDGE('',*,*,#349,.F.);
#349 = EDGE_CURVE('',#350,#341,#352,.T.);
#350 = VERTEX_POINT('',#351);
#351 = CARTESIAN_POINT('',(-8.8,2.20026102177,4.5));
#352 = CIRCLE('',#353,6.59973897823);
#353 = AXIS2_PLACEMENT_3D('',#354,#355,#356);
#354 = CARTESIAN_POINT('',(-2.20026102177,2.20026102177,4.5));
#355 = DIRECTION('',(0.,0.,1.));
#356 = DIRECTION('',(1.,0.,0.));
#357 = ORIENTED_EDGE('',*,*,#358,.T.);
#358 = EDGE_CURVE('',#350,#359,#361,.T.);
#359 = VERTEX_POINT('',#360);
#360 = CARTESIAN_POINT('',(-8.8,2.713007501937,4.500000000002));
#361 = LINE('',#362,#363);
#362 = CARTESIAN_POINT('',(-8.8,2.20026102177,4.5));
#363 = VECTOR('',#364,1.);
#364 = DIRECTION('',(0.,1.,0.));
#365 = ORIENTED_EDGE('',*,*,#366,.F.);
#366 = EDGE_CURVE('',#367,#359,#369,.T.);
#367 = VERTEX_POINT('',#368);
#368 = CARTESIAN_POINT('',(-10.,2.713007501938,4.5));
#369 = LINE('',#370,#371);
#370 = CARTESIAN_POINT('',(-9.999999999973,2.713007501938,4.5));
#371 = VECTOR('',#372,1.);
#372 = DIRECTION('',(1.,-1.06415E-12,1.29485E-12));
#373 = ORIENTED_EDGE('',*,*,#374,.F.);
#374 = EDGE_CURVE('',#375,#367,#377,.T.);
#375 = VERTEX_POINT('',#376);
#376 = CARTESIAN_POINT('',(-10.,2.20026102177,4.5));
#377 = LINE('',#378,#379);
#378 = CARTESIAN_POINT('',(-10.,2.20026102177,4.5));
#379 = VECTOR('',#380,1.);
#380 = DIRECTION('',(0.,1.,0.));
#381 = ORIENTED_EDGE('',*,*,#382,.T.);
#382 = EDGE_CURVE('',#375,#383,#385,.T.);
#383 = VERTEX_POINT('',#384);
#384 = CARTESIAN_POINT('',(-6.290140845071,-4.441185444135,4.5));
#385 = CIRCLE('',#386,7.79973897823);
#386 = AXIS2_PLACEMENT_3D('',#387,#388,#389);
#387 = CARTESIAN_POINT('',(-2.20026102177,2.20026102177,4.5));
#388 = DIRECTION('',(0.,0.,1.));
#389 = DIRECTION('',(1.,0.,0.));
#390 = ORIENTED_EDGE('',*,*,#391,.T.);
#391 = EDGE_CURVE('',#383,#392,#394,.T.);
#392 = VERTEX_POINT('',#393);
#393 = CARTESIAN_POINT('',(-5.309859154929,-3.749052647646,4.5));
#394 = CIRCLE('',#395,0.6);
#395 = AXIS2_PLACEMENT_3D('',#396,#397,#398);
#396 = CARTESIAN_POINT('',(-5.8,-4.095119045891,4.5));
#397 = DIRECTION('',(0.,0.,1.));
#398 = DIRECTION('',(1.,0.,0.));
#399 = ORIENTED_EDGE('',*,*,#400,.F.);
#400 = EDGE_CURVE('',#401,#392,#403,.T.);
#401 = VERTEX_POINT('',#402);
#402 = CARTESIAN_POINT('',(5.309859154929,-3.749052647646,4.5));
#403 = CIRCLE('',#404,6.5);
#404 = AXIS2_PLACEMENT_3D('',#405,#406,#407);
#405 = CARTESIAN_POINT('',(0.,0.,4.5));
#406 = DIRECTION('',(0.,0.,1.));
#407 = DIRECTION('',(1.,0.,0.));
#408 = ORIENTED_EDGE('',*,*,#409,.T.);
#409 = EDGE_CURVE('',#401,#410,#412,.T.);
#410 = VERTEX_POINT('',#411);
#411 = CARTESIAN_POINT('',(6.290140845071,-4.441185444135,4.5));
#412 = CIRCLE('',#413,0.6);
#413 = AXIS2_PLACEMENT_3D('',#414,#415,#416);
#414 = CARTESIAN_POINT('',(5.8,-4.095119045891,4.5));
#415 = DIRECTION('',(0.,0.,1.));
#416 = DIRECTION('',(1.,0.,0.));
#417 = ORIENTED_EDGE('',*,*,#418,.T.);
#418 = EDGE_CURVE('',#410,#41,#419,.T.);
#419 = CIRCLE('',#420,7.79973897823);
#420 = AXIS2_PLACEMENT_3D('',#421,#422,#423);
#421 = CARTESIAN_POINT('',(2.20026102177,2.20026102177,4.5));
#422 = DIRECTION('',(0.,0.,1.));
#423 = DIRECTION('',(1.,0.,0.));
#424 = PLANE('',#425);
#425 = AXIS2_PLACEMENT_3D('',#426,#427,#428);
#426 = CARTESIAN_POINT('',(3.43E-15,6.183420666661,4.5));
#427 = DIRECTION('',(0.,0.,1.));
#428 = DIRECTION('',(1.,0.,0.));
#429 = ADVANCED_FACE('',(#430),#492,.T.);
#430 = FACE_BOUND('',#431,.F.);
#431 = EDGE_LOOP('',(#432,#442,#451,#460,#468,#475,#476,#477,#485));
#432 = ORIENTED_EDGE('',*,*,#433,.F.);
#433 = EDGE_CURVE('',#434,#436,#438,.T.);
#434 = VERTEX_POINT('',#435);
#435 = CARTESIAN_POINT('',(-8.671634941347,32.607237153174,
    11.637761825958));
#436 = VERTEX_POINT('',#437);
#437 = CARTESIAN_POINT('',(-8.671634941347,32.606534540083,
    11.641294099888));
#438 = LINE('',#439,#440);
#439 = CARTESIAN_POINT('',(-8.671634941347,32.607237153174,
    11.637761825958));
#440 = VECTOR('',#441,1.);
#441 = DIRECTION('',(0.,-0.195090354216,0.980785273998));
#442 = ORIENTED_EDGE('',*,*,#443,.T.);
#443 = EDGE_CURVE('',#434,#444,#446,.T.);
#444 = VERTEX_POINT('',#445);
#445 = CARTESIAN_POINT('',(10.,37.4917789707,12.609357769156));
#446 = CIRCLE('',#447,10.);
#447 = AXIS2_PLACEMENT_3D('',#448,#449,#450);
#448 = CARTESIAN_POINT('',(0.,37.4917789707,12.609357769156));
#449 = DIRECTION('',(0.,0.195090354216,-0.980785273998));
#450 = DIRECTION('',(1.,0.,0.));
#451 = ORIENTED_EDGE('',*,*,#452,.T.);
#452 = EDGE_CURVE('',#444,#453,#455,.T.);
#453 = VERTEX_POINT('',#454);
#454 = CARTESIAN_POINT('',(8.723213186822,32.696395720999,11.6554965708)
  );
#455 = CIRCLE('',#456,10.);
#456 = AXIS2_PLACEMENT_3D('',#457,#458,#459);
#457 = CARTESIAN_POINT('',(0.,37.4917789707,12.609357769156));
#458 = DIRECTION('',(0.,0.195090354216,-0.980785273998));
#459 = DIRECTION('',(1.,0.,0.));
#460 = ORIENTED_EDGE('',*,*,#461,.T.);
#461 = EDGE_CURVE('',#453,#462,#464,.T.);
#462 = VERTEX_POINT('',#463);
#463 = CARTESIAN_POINT('',(8.723213186822,32.695693107909,11.65902884473
    ));
#464 = LINE('',#465,#466);
#465 = CARTESIAN_POINT('',(8.723213186822,32.695693107909,11.65902884473
    ));
#466 = VECTOR('',#467,1.);
#467 = DIRECTION('',(0.,-0.195090354216,0.980785273998));
#468 = ORIENTED_EDGE('',*,*,#469,.T.);
#469 = EDGE_CURVE('',#462,#89,#470,.T.);
#470 = CIRCLE('',#471,10.);
#471 = AXIS2_PLACEMENT_3D('',#472,#473,#474);
#472 = CARTESIAN_POINT('',(0.,37.49107635761,12.612890043086));
#473 = DIRECTION('',(0.,-0.195090354216,0.980785273998));
#474 = DIRECTION('',(1.,0.,0.));
#475 = ORIENTED_EDGE('',*,*,#96,.F.);
#476 = ORIENTED_EDGE('',*,*,#273,.F.);
#477 = ORIENTED_EDGE('',*,*,#478,.T.);
#478 = EDGE_CURVE('',#274,#479,#481,.T.);
#479 = VERTEX_POINT('',#480);
#480 = CARTESIAN_POINT('',(-10.,37.49107635761,12.612890043086));
#481 = LINE('',#482,#483);
#482 = CARTESIAN_POINT('',(-10.,35.317769811643,23.538837995426));
#483 = VECTOR('',#484,1.);
#484 = DIRECTION('',(-0.,0.195090354216,-0.980785273998));
#485 = ORIENTED_EDGE('',*,*,#486,.T.);
#486 = EDGE_CURVE('',#479,#436,#487,.T.);
#487 = CIRCLE('',#488,10.);
#488 = AXIS2_PLACEMENT_3D('',#489,#490,#491);
#489 = CARTESIAN_POINT('',(0.,37.49107635761,12.612890043086));
#490 = DIRECTION('',(0.,-0.195090354216,0.980785273998));
#491 = DIRECTION('',(1.,0.,0.));
#492 = CYLINDRICAL_SURFACE('',#493,10.);
#493 = AXIS2_PLACEMENT_3D('',#494,#495,#496);
#494 = CARTESIAN_POINT('',(0.,37.4917789707,12.609357769156));
#495 = DIRECTION('',(0.,-0.195090354216,0.980785273998));
#496 = DIRECTION('',(1.,0.,0.));
#497 = ADVANCED_FACE('',(#498),#517,.T.);
#498 = FACE_BOUND('',#499,.F.);
#499 = EDGE_LOOP('',(#500,#501,#502,#511));
#500 = ORIENTED_EDGE('',*,*,#418,.T.);
#501 = ORIENTED_EDGE('',*,*,#48,.F.);
#502 = ORIENTED_EDGE('',*,*,#503,.F.);
#503 = EDGE_CURVE('',#504,#49,#506,.T.);
#504 = VERTEX_POINT('',#505);
#505 = CARTESIAN_POINT('',(6.290140845071,-4.441185444135,0.));
#506 = CIRCLE('',#507,7.79973897823);
#507 = AXIS2_PLACEMENT_3D('',#508,#509,#510);
#508 = CARTESIAN_POINT('',(2.20026102177,2.20026102177,0.));
#509 = DIRECTION('',(0.,0.,1.));
#510 = DIRECTION('',(1.,0.,0.));
#511 = ORIENTED_EDGE('',*,*,#512,.T.);
#512 = EDGE_CURVE('',#504,#410,#513,.T.);
#513 = LINE('',#514,#515);
#514 = CARTESIAN_POINT('',(6.290140845071,-4.441185444135,0.));
#515 = VECTOR('',#516,1.);
#516 = DIRECTION('',(0.,0.,1.));
#517 = CYLINDRICAL_SURFACE('',#518,7.79973897823);
#518 = AXIS2_PLACEMENT_3D('',#519,#520,#521);
#519 = CARTESIAN_POINT('',(2.20026102177,2.20026102177,0.));
#520 = DIRECTION('',(-0.,-0.,-1.));
#521 = DIRECTION('',(1.,0.,0.));
#522 = ADVANCED_FACE('',(#523),#534,.F.);
#523 = FACE_BOUND('',#524,.F.);
#524 = EDGE_LOOP('',(#525,#526,#527));
#525 = ORIENTED_EDGE('',*,*,#88,.F.);
#526 = ORIENTED_EDGE('',*,*,#469,.F.);
#527 = ORIENTED_EDGE('',*,*,#528,.T.);
#528 = EDGE_CURVE('',#462,#81,#529,.T.);
#529 = CIRCLE('',#530,1.2);
#530 = AXIS2_PLACEMENT_3D('',#531,#532,#533);
#531 = CARTESIAN_POINT('',(8.8,31.521162800926,11.425400200722));
#532 = DIRECTION('',(0.,0.195090354216,-0.980785273998));
#533 = DIRECTION('',(1.,0.,0.));
#534 = PLANE('',#535);
#535 = AXIS2_PLACEMENT_3D('',#536,#537,#538);
#536 = CARTESIAN_POINT('',(-0.103577914025,34.376206990996,
    11.993303896984));
#537 = DIRECTION('',(0.,-0.195090354216,0.980785273998));
#538 = DIRECTION('',(1.,0.,0.));
#539 = ADVANCED_FACE('',(#540),#620,.T.);
#540 = FACE_BOUND('',#541,.T.);
#541 = EDGE_LOOP('',(#542,#552,#560,#569,#577,#584,#585,#586,#595,#604,
    #613));
#542 = ORIENTED_EDGE('',*,*,#543,.T.);
#543 = EDGE_CURVE('',#544,#546,#548,.T.);
#544 = VERTEX_POINT('',#545);
#545 = CARTESIAN_POINT('',(-10.,2.20026102177,0.));
#546 = VERTEX_POINT('',#547);
#547 = CARTESIAN_POINT('',(-10.,20.,0.));
#548 = LINE('',#549,#550);
#549 = CARTESIAN_POINT('',(-10.,2.20026102177,0.));
#550 = VECTOR('',#551,1.);
#551 = DIRECTION('',(0.,1.,0.));
#552 = ORIENTED_EDGE('',*,*,#553,.T.);
#553 = EDGE_CURVE('',#546,#554,#556,.T.);
#554 = VERTEX_POINT('',#555);
#555 = CARTESIAN_POINT('',(-9.999999999916,39.999891120199,0.));
#556 = LINE('',#557,#558);
#557 = CARTESIAN_POINT('',(-9.999999999952,21.11681666124,0.));
#558 = VECTOR('',#559,1.);
#559 = DIRECTION('',(1.15817E-12,1.,0.));
#560 = ORIENTED_EDGE('',*,*,#561,.T.);
#561 = EDGE_CURVE('',#554,#562,#564,.T.);
#562 = VERTEX_POINT('',#563);
#563 = CARTESIAN_POINT('',(-9.509689336816,43.153393578552,0.));
#564 = ELLIPSE('',#565,10.195911648667,10.);
#565 = AXIS2_PLACEMENT_3D('',#566,#567,#568);
#566 = CARTESIAN_POINT('',(0.,39.999936606054,0.));
#567 = DIRECTION('',(-0.,-0.,-1.));
#568 = DIRECTION('',(0.,-1.,0.));
#569 = ORIENTED_EDGE('',*,*,#570,.F.);
#570 = EDGE_CURVE('',#571,#562,#573,.T.);
#571 = VERTEX_POINT('',#572);
#572 = CARTESIAN_POINT('',(9.509689336816,43.153393578552,0.));
#573 = LINE('',#574,#575);
#574 = CARTESIAN_POINT('',(10.,43.153393578552,0.));
#575 = VECTOR('',#576,1.);
#576 = DIRECTION('',(-1.,-0.,-0.));
#577 = ORIENTED_EDGE('',*,*,#578,.T.);
#578 = EDGE_CURVE('',#571,#57,#579,.T.);
#579 = ELLIPSE('',#580,10.195911648667,10.);
#580 = AXIS2_PLACEMENT_3D('',#581,#582,#583);
#581 = CARTESIAN_POINT('',(0.,39.999936606054,0.));
#582 = DIRECTION('',(-0.,-0.,-1.));
#583 = DIRECTION('',(0.,-1.,0.));
#584 = ORIENTED_EDGE('',*,*,#56,.F.);
#585 = ORIENTED_EDGE('',*,*,#503,.F.);
#586 = ORIENTED_EDGE('',*,*,#587,.F.);
#587 = EDGE_CURVE('',#588,#504,#590,.T.);
#588 = VERTEX_POINT('',#589);
#589 = CARTESIAN_POINT('',(5.309859154929,-3.749052647646,0.));
#590 = CIRCLE('',#591,0.6);
#591 = AXIS2_PLACEMENT_3D('',#592,#593,#594);
#592 = CARTESIAN_POINT('',(5.8,-4.095119045891,0.));
#593 = DIRECTION('',(0.,0.,1.));
#594 = DIRECTION('',(1.,0.,0.));
#595 = ORIENTED_EDGE('',*,*,#596,.T.);
#596 = EDGE_CURVE('',#588,#597,#599,.T.);
#597 = VERTEX_POINT('',#598);
#598 = CARTESIAN_POINT('',(-5.309859154929,-3.749052647646,0.));
#599 = CIRCLE('',#600,6.5);
#600 = AXIS2_PLACEMENT_3D('',#601,#602,#603);
#601 = CARTESIAN_POINT('',(0.,0.,0.));
#602 = DIRECTION('',(0.,0.,1.));
#603 = DIRECTION('',(1.,0.,0.));
#604 = ORIENTED_EDGE('',*,*,#605,.F.);
#605 = EDGE_CURVE('',#606,#597,#608,.T.);
#606 = VERTEX_POINT('',#607);
#607 = CARTESIAN_POINT('',(-6.290140845071,-4.441185444135,0.));
#608 = CIRCLE('',#609,0.6);
#609 = AXIS2_PLACEMENT_3D('',#610,#611,#612);
#610 = CARTESIAN_POINT('',(-5.8,-4.095119045891,0.));
#611 = DIRECTION('',(0.,0.,1.));
#612 = DIRECTION('',(1.,0.,0.));
#613 = ORIENTED_EDGE('',*,*,#614,.F.);
#614 = EDGE_CURVE('',#544,#606,#615,.T.);
#615 = CIRCLE('',#616,7.79973897823);
#616 = AXIS2_PLACEMENT_3D('',#617,#618,#619);
#617 = CARTESIAN_POINT('',(-2.20026102177,2.20026102177,0.));
#618 = DIRECTION('',(0.,0.,1.));
#619 = DIRECTION('',(1.,0.,0.));
#620 = PLANE('',#621);
#621 = AXIS2_PLACEMENT_3D('',#622,#623,#624);
#622 = CARTESIAN_POINT('',(1.251012477E-08,18.413134497401,0.));
#623 = DIRECTION('',(-0.,-0.,-1.));
#624 = DIRECTION('',(-1.,0.,0.));
#625 = ADVANCED_FACE('',(#626),#671,.T.);
#626 = FACE_BOUND('',#627,.F.);
#627 = EDGE_LOOP('',(#628,#629,#630,#655,#663,#670));
#628 = ORIENTED_EDGE('',*,*,#528,.F.);
#629 = ORIENTED_EDGE('',*,*,#461,.F.);
#630 = ORIENTED_EDGE('',*,*,#631,.T.);
#631 = EDGE_CURVE('',#453,#632,#634,.T.);
#632 = VERTEX_POINT('',#633);
#633 = CARTESIAN_POINT('',(7.81308411215,32.273238551853,11.143556076873
    ));
#634 = B_SPLINE_CURVE_WITH_KNOTS('',7,(#635,#636,#637,#638,#639,#640,
    #641,#642,#643,#644,#645,#646,#647,#648,#649,#650,#651,#652,#653,
    #654),.UNSPECIFIED.,.F.,.F.,(8,6,6,8),(0.,0.622216090941,
    0.771037587122,1.),.UNSPECIFIED.);
#635 = CARTESIAN_POINT('',(8.723213186822,32.696395720999,11.6554965708)
  );
#636 = CARTESIAN_POINT('',(8.646034736097,32.702167029117,
    11.601115980495));
#637 = CARTESIAN_POINT('',(8.567222569196,32.70184651331,11.546961606044
    ));
#638 = CARTESIAN_POINT('',(8.486471294353,32.69485352318,11.49302468223)
  );
#639 = CARTESIAN_POINT('',(8.403771725867,32.680233328153,
    11.439607751989));
#640 = CARTESIAN_POINT('',(8.319460344736,32.656643836412,
    11.387388641274));
#641 = CARTESIAN_POINT('',(8.23422845716,32.622584163387,11.337386922262
    ));
#642 = CARTESIAN_POINT('',(8.128815680928,32.564594010819,
    11.280107357104));
#643 = CARTESIAN_POINT('',(8.108498134261,32.552682818358,
    11.269278165501));
#644 = CARTESIAN_POINT('',(8.088232830502,32.540029678988,
    11.258700930021));
#645 = CARTESIAN_POINT('',(8.06804932823,32.52661258631,11.248404869778)
  );
#646 = CARTESIAN_POINT('',(8.047982917877,32.512413139708,
    11.238422272701));
#647 = CARTESIAN_POINT('',(8.028074381835,32.497418457128,
    11.228787701742));
#648 = CARTESIAN_POINT('',(7.978054113849,32.457321854821,
    11.205305272176));
#649 = CARTESIAN_POINT('',(7.948205221247,32.431112801332,
    11.191974925266));
#650 = CARTESIAN_POINT('',(7.919017380154,32.402993974364,
    11.179690888139));
#651 = CARTESIAN_POINT('',(7.890699625966,32.373007452087,
    11.168595056645));
#652 = CARTESIAN_POINT('',(7.863468114888,32.341253336918,
    11.158815608161));
#653 = CARTESIAN_POINT('',(7.837533616793,32.307906853532,
    11.150452032017));
#654 = CARTESIAN_POINT('',(7.81308411215,32.273238551853,11.143556076873
    ));
#655 = ORIENTED_EDGE('',*,*,#656,.F.);
#656 = EDGE_CURVE('',#657,#632,#659,.T.);
#657 = VERTEX_POINT('',#658);
#658 = CARTESIAN_POINT('',(7.81308411215,33.724096000767,3.849604378015)
  );
#659 = LINE('',#660,#661);
#660 = CARTESIAN_POINT('',(7.81308411215,33.724096000767,3.849604378015)
  );
#661 = VECTOR('',#662,1.);
#662 = DIRECTION('',(0.,-0.195090354216,0.980785273998));
#663 = ORIENTED_EDGE('',*,*,#664,.F.);
#664 = EDGE_CURVE('',#73,#657,#665,.T.);
#665 = CIRCLE('',#666,1.2);
#666 = AXIS2_PLACEMENT_3D('',#667,#668,#669);
#667 = CARTESIAN_POINT('',(8.8,33.054572985064,3.716427947096));
#668 = DIRECTION('',(0.,-0.195090354216,0.980785273998));
#669 = DIRECTION('',(1.,0.,0.));
#670 = ORIENTED_EDGE('',*,*,#80,.T.);
#671 = CYLINDRICAL_SURFACE('',#672,1.2);
#672 = AXIS2_PLACEMENT_3D('',#673,#674,#675);
#673 = CARTESIAN_POINT('',(8.8,33.054572985064,3.716427947096));
#674 = DIRECTION('',(-0.,0.195090354216,-0.980785273998));
#675 = DIRECTION('',(1.,0.,0.));
#676 = ADVANCED_FACE('',(#677),#713,.T.);
#677 = FACE_BOUND('',#678,.T.);
#678 = EDGE_LOOP('',(#679,#688,#689,#697,#704,#705,#706));
#679 = ORIENTED_EDGE('',*,*,#680,.F.);
#680 = EDGE_CURVE('',#562,#681,#683,.T.);
#681 = VERTEX_POINT('',#682);
#682 = CARTESIAN_POINT('',(-2.1305112E-08,49.027429635947,5.874036057621
    ));
#683 = ELLIPSE('',#684,12.026897475024,10.);
#684 = AXIS2_PLACEMENT_3D('',#685,#686,#687);
#685 = CARTESIAN_POINT('',(0.,40.523128874886,-2.630264703768));
#686 = DIRECTION('',(0.,0.7071067812,-0.707106781173));
#687 = DIRECTION('',(0.,0.707106781173,0.7071067812));
#688 = ORIENTED_EDGE('',*,*,#561,.F.);
#689 = ORIENTED_EDGE('',*,*,#690,.F.);
#690 = EDGE_CURVE('',#691,#554,#693,.T.);
#691 = VERTEX_POINT('',#692);
#692 = CARTESIAN_POINT('',(-9.9999999999,39.024442787096,4.903909086116)
  );
#693 = LINE('',#694,#695);
#694 = CARTESIAN_POINT('',(-9.9999999999,39.024442787096,4.903909086116)
  );
#695 = VECTOR('',#696,1.);
#696 = DIRECTION('',(0.,0.195090354216,-0.980785273998));
#697 = ORIENTED_EDGE('',*,*,#698,.F.);
#698 = EDGE_CURVE('',#65,#691,#699,.T.);
#699 = CIRCLE('',#700,10.);
#700 = AXIS2_PLACEMENT_3D('',#701,#702,#703);
#701 = CARTESIAN_POINT('',(0.,39.024486541748,4.903917789459));
#702 = DIRECTION('',(0.,-0.195090354216,0.980785273998));
#703 = DIRECTION('',(1.,0.,0.));
#704 = ORIENTED_EDGE('',*,*,#64,.T.);
#705 = ORIENTED_EDGE('',*,*,#578,.F.);
#706 = ORIENTED_EDGE('',*,*,#707,.F.);
#707 = EDGE_CURVE('',#681,#571,#708,.T.);
#708 = ELLIPSE('',#709,12.026897475024,10.);
#709 = AXIS2_PLACEMENT_3D('',#710,#711,#712);
#710 = CARTESIAN_POINT('',(0.,40.523128874886,-2.630264703768));
#711 = DIRECTION('',(0.,0.7071067812,-0.707106781173));
#712 = DIRECTION('',(0.,0.707106781173,0.7071067812));
#713 = CYLINDRICAL_SURFACE('',#714,10.);
#714 = AXIS2_PLACEMENT_3D('',#715,#716,#717);
#715 = CARTESIAN_POINT('',(0.,39.219576895964,3.923132515461));
#716 = DIRECTION('',(0.,-0.195090354216,0.980785273998));
#717 = DIRECTION('',(1.,0.,0.));
#718 = ADVANCED_FACE('',(#719,#730),#759,.T.);
#719 = FACE_BOUND('',#720,.T.);
#720 = EDGE_LOOP('',(#721));
#721 = ORIENTED_EDGE('',*,*,#722,.T.);
#722 = EDGE_CURVE('',#723,#723,#725,.T.);
#723 = VERTEX_POINT('',#724);
#724 = CARTESIAN_POINT('',(6.5,39.024486541748,4.903917789459));
#725 = CIRCLE('',#726,6.5);
#726 = AXIS2_PLACEMENT_3D('',#727,#728,#729);
#727 = CARTESIAN_POINT('',(0.,39.024486541748,4.903917789459));
#728 = DIRECTION('',(0.,0.195090354216,-0.980785273998));
#729 = DIRECTION('',(1.,0.,0.));
#730 = FACE_BOUND('',#731,.T.);
#731 = EDGE_LOOP('',(#732,#733,#734,#742,#751,#758));
#732 = ORIENTED_EDGE('',*,*,#72,.T.);
#733 = ORIENTED_EDGE('',*,*,#698,.T.);
#734 = ORIENTED_EDGE('',*,*,#735,.T.);
#735 = EDGE_CURVE('',#691,#736,#738,.T.);
#736 = VERTEX_POINT('',#737);
#737 = CARTESIAN_POINT('',(-10.,32.925134588194,3.690681044727));
#738 = LINE('',#739,#740);
#739 = CARTESIAN_POINT('',(-9.9999999999,39.024442787096,4.903909086116)
  );
#740 = VECTOR('',#741,1.);
#741 = DIRECTION('',(0.,-0.980785273998,-0.195090354216));
#742 = ORIENTED_EDGE('',*,*,#743,.F.);
#743 = EDGE_CURVE('',#744,#736,#746,.T.);
#744 = VERTEX_POINT('',#745);
#745 = CARTESIAN_POINT('',(-7.745966692415,33.630167534758,
    3.830920841271));
#746 = CIRCLE('',#747,1.241641991079);
#747 = AXIS2_PLACEMENT_3D('',#748,#749,#750);
#748 = CARTESIAN_POINT('',(-8.758358008921,32.925134588194,
    3.690681044727));
#749 = DIRECTION('',(0.,-0.195090354216,0.980785273998));
#750 = DIRECTION('',(1.,0.,0.));
#751 = ORIENTED_EDGE('',*,*,#752,.T.);
#752 = EDGE_CURVE('',#744,#657,#753,.T.);
#753 = CIRCLE('',#754,9.5);
#754 = AXIS2_PLACEMENT_3D('',#755,#756,#757);
#755 = CARTESIAN_POINT('',(0.,39.024486541748,4.903917789459));
#756 = DIRECTION('',(0.,-0.195090354216,0.980785273998));
#757 = DIRECTION('',(1.,0.,0.));
#758 = ORIENTED_EDGE('',*,*,#664,.F.);
#759 = PLANE('',#760);
#760 = AXIS2_PLACEMENT_3D('',#761,#762,#763);
#761 = CARTESIAN_POINT('',(6.6413011479E-07,32.193916093314,
    3.545232617882));
#762 = DIRECTION('',(0.,-0.195090354216,0.980785273998));
#763 = DIRECTION('',(1.,0.,0.));
#764 = ADVANCED_FACE('',(#765),#810,.T.);
#765 = FACE_BOUND('',#766,.T.);
#766 = EDGE_LOOP('',(#767,#768,#775,#776,#777,#778,#786,#792,#793,#794,
    #795,#796,#802,#803));
#767 = ORIENTED_EDGE('',*,*,#127,.F.);
#768 = ORIENTED_EDGE('',*,*,#769,.T.);
#769 = EDGE_CURVE('',#128,#291,#770,.T.);
#770 = CIRCLE('',#771,1.5);
#771 = AXIS2_PLACEMENT_3D('',#772,#773,#774);
#772 = CARTESIAN_POINT('',(-10.00000000001,12.213007501939,
    17.413627490786));
#773 = DIRECTION('',(-1.,1.06415E-12,-1.29485E-12));
#774 = DIRECTION('',(1.29485E-12,0.,-1.));
#775 = ORIENTED_EDGE('',*,*,#290,.F.);
#776 = ORIENTED_EDGE('',*,*,#282,.T.);
#777 = ORIENTED_EDGE('',*,*,#478,.T.);
#778 = ORIENTED_EDGE('',*,*,#779,.F.);
#779 = EDGE_CURVE('',#780,#479,#782,.T.);
#780 = VERTEX_POINT('',#781);
#781 = CARTESIAN_POINT('',(-10.,31.391724404056,11.399653298353));
#782 = LINE('',#783,#784);
#783 = CARTESIAN_POINT('',(-10.,31.391724404056,11.399653298353));
#784 = VECTOR('',#785,1.);
#785 = DIRECTION('',(0.,0.980785273998,0.195090354216));
#786 = ORIENTED_EDGE('',*,*,#787,.F.);
#787 = EDGE_CURVE('',#736,#780,#788,.T.);
#788 = LINE('',#789,#790);
#789 = CARTESIAN_POINT('',(-10.,31.391724404056,11.399653298353));
#790 = VECTOR('',#791,1.);
#791 = DIRECTION('',(0.,-0.195090354216,0.980785273998));
#792 = ORIENTED_EDGE('',*,*,#735,.F.);
#793 = ORIENTED_EDGE('',*,*,#690,.T.);
#794 = ORIENTED_EDGE('',*,*,#553,.F.);
#795 = ORIENTED_EDGE('',*,*,#543,.F.);
#796 = ORIENTED_EDGE('',*,*,#797,.T.);
#797 = EDGE_CURVE('',#544,#375,#798,.T.);
#798 = LINE('',#799,#800);
#799 = CARTESIAN_POINT('',(-10.,2.20026102177,0.));
#800 = VECTOR('',#801,1.);
#801 = DIRECTION('',(0.,0.,1.));
#802 = ORIENTED_EDGE('',*,*,#374,.T.);
#803 = ORIENTED_EDGE('',*,*,#804,.T.);
#804 = EDGE_CURVE('',#367,#130,#805,.T.);
#805 = CIRCLE('',#806,8.);
#806 = AXIS2_PLACEMENT_3D('',#807,#808,#809);
#807 = CARTESIAN_POINT('',(-10.00000000001,2.713007501938,12.5));
#808 = DIRECTION('',(1.,-1.06415E-12,1.29485E-12));
#809 = DIRECTION('',(-1.29485E-12,0.,1.));
#810 = PLANE('',#811);
#811 = AXIS2_PLACEMENT_3D('',#812,#813,#814);
#812 = CARTESIAN_POINT('',(-9.999999999981,22.810700855023,
    8.819965955443));
#813 = DIRECTION('',(-1.,1.35022E-12,-1.99868E-12));
#814 = DIRECTION('',(1.99868E-12,0.,-1.));
#815 = ADVANCED_FACE('',(#816),#828,.T.);
#816 = FACE_BOUND('',#817,.T.);
#817 = EDGE_LOOP('',(#818,#825,#826,#827));
#818 = ORIENTED_EDGE('',*,*,#819,.T.);
#819 = EDGE_CURVE('',#201,#299,#820,.T.);
#820 = CIRCLE('',#821,1.5);
#821 = AXIS2_PLACEMENT_3D('',#822,#823,#824);
#822 = CARTESIAN_POINT('',(-8.799999999996,12.213007501929,
    17.413627490769));
#823 = DIRECTION('',(-1.,0.,-1.38334E-12));
#824 = DIRECTION('',(-1.633309538E-25,-1.,1.1807E-13));
#825 = ORIENTED_EDGE('',*,*,#298,.T.);
#826 = ORIENTED_EDGE('',*,*,#769,.F.);
#827 = ORIENTED_EDGE('',*,*,#208,.F.);
#828 = CYLINDRICAL_SURFACE('',#829,1.5);
#829 = AXIS2_PLACEMENT_3D('',#830,#831,#832);
#830 = CARTESIAN_POINT('',(-8.799999999996,12.213007501938,
    17.413627490788));
#831 = DIRECTION('',(-1.,1.06415E-12,-1.29485E-12));
#832 = DIRECTION('',(-1.06415E-12,-1.,1.1807E-13));
#833 = ADVANCED_FACE('',(#834),#846,.F.);
#834 = FACE_BOUND('',#835,.F.);
#835 = EDGE_LOOP('',(#836,#837,#838,#845));
#836 = ORIENTED_EDGE('',*,*,#804,.T.);
#837 = ORIENTED_EDGE('',*,*,#137,.T.);
#838 = ORIENTED_EDGE('',*,*,#839,.F.);
#839 = EDGE_CURVE('',#359,#138,#840,.T.);
#840 = CIRCLE('',#841,8.);
#841 = AXIS2_PLACEMENT_3D('',#842,#843,#844);
#842 = CARTESIAN_POINT('',(-8.799999999996,2.713007501937,
    12.500000000002));
#843 = DIRECTION('',(1.,-1.06415E-12,1.29485E-12));
#844 = DIRECTION('',(-1.29485E-12,0.,1.));
#845 = ORIENTED_EDGE('',*,*,#366,.F.);
#846 = CYLINDRICAL_SURFACE('',#847,8.);
#847 = AXIS2_PLACEMENT_3D('',#848,#849,#850);
#848 = CARTESIAN_POINT('',(-9.999999999983,2.713007501938,12.5));
#849 = DIRECTION('',(1.,-1.06415E-12,1.29485E-12));
#850 = DIRECTION('',(1.29485E-12,0.,-1.));
#851 = ADVANCED_FACE('',(#852),#858,.T.);
#852 = FACE_BOUND('',#853,.T.);
#853 = EDGE_LOOP('',(#854,#855,#856,#857));
#854 = ORIENTED_EDGE('',*,*,#231,.T.);
#855 = ORIENTED_EDGE('',*,*,#306,.T.);
#856 = ORIENTED_EDGE('',*,*,#819,.F.);
#857 = ORIENTED_EDGE('',*,*,#200,.F.);
#858 = CYLINDRICAL_SURFACE('',#859,1.5);
#859 = AXIS2_PLACEMENT_3D('',#860,#861,#862);
#860 = CARTESIAN_POINT('',(8.800000000001,12.213007501929,
    17.413627490794));
#861 = DIRECTION('',(-1.,-0.,-1.38334E-12));
#862 = DIRECTION('',(-1.633309538E-25,-1.,1.1807E-13));
#863 = ADVANCED_FACE('',(#864),#884,.T.);
#864 = FACE_BOUND('',#865,.T.);
#865 = EDGE_LOOP('',(#866,#867,#875,#881,#882,#883));
#866 = ORIENTED_EDGE('',*,*,#358,.F.);
#867 = ORIENTED_EDGE('',*,*,#868,.F.);
#868 = EDGE_CURVE('',#869,#350,#871,.T.);
#869 = VERTEX_POINT('',#870);
#870 = CARTESIAN_POINT('',(-8.8,2.20026102177,1.));
#871 = LINE('',#872,#873);
#872 = CARTESIAN_POINT('',(-8.8,2.20026102177,0.));
#873 = VECTOR('',#874,1.);
#874 = DIRECTION('',(0.,0.,1.));
#875 = ORIENTED_EDGE('',*,*,#876,.F.);
#876 = EDGE_CURVE('',#154,#869,#877,.T.);
#877 = LINE('',#878,#879);
#878 = CARTESIAN_POINT('',(-8.8,9.554094404681,1.));
#879 = VECTOR('',#880,1.);
#880 = DIRECTION('',(0.,-1.,0.));
#881 = ORIENTED_EDGE('',*,*,#153,.F.);
#882 = ORIENTED_EDGE('',*,*,#145,.T.);
#883 = ORIENTED_EDGE('',*,*,#839,.F.);
#884 = PLANE('',#885);
#885 = AXIS2_PLACEMENT_3D('',#886,#887,#888);
#886 = CARTESIAN_POINT('',(-8.799999999998,18.246352438185,
    9.432666566925));
#887 = DIRECTION('',(1.,1.1835E-13,9.89E-15));
#888 = DIRECTION('',(-1.1835E-13,1.,0.));
#889 = ADVANCED_FACE('',(#890),#927,.T.);
#890 = FACE_BOUND('',#891,.T.);
#891 = EDGE_LOOP('',(#892,#893,#894,#903,#912,#921));
#892 = ORIENTED_EDGE('',*,*,#161,.T.);
#893 = ORIENTED_EDGE('',*,*,#876,.T.);
#894 = ORIENTED_EDGE('',*,*,#895,.F.);
#895 = EDGE_CURVE('',#896,#869,#898,.T.);
#896 = VERTEX_POINT('',#897);
#897 = CARTESIAN_POINT('',(-7.503603883713,-1.727984015068,1.));
#898 = CIRCLE('',#899,6.59973897823);
#899 = AXIS2_PLACEMENT_3D('',#900,#901,#902);
#900 = CARTESIAN_POINT('',(-2.20026102177,2.20026102177,1.));
#901 = DIRECTION('',(0.,0.,-1.));
#902 = DIRECTION('',(1.,0.,0.));
#903 = ORIENTED_EDGE('',*,*,#904,.T.);
#904 = EDGE_CURVE('',#896,#905,#907,.T.);
#905 = VERTEX_POINT('',#906);
#906 = CARTESIAN_POINT('',(7.503603883713,-1.727984015068,1.));
#907 = CIRCLE('',#908,7.7);
#908 = AXIS2_PLACEMENT_3D('',#909,#910,#911);
#909 = CARTESIAN_POINT('',(0.,0.,1.));
#910 = DIRECTION('',(0.,0.,-1.));
#911 = DIRECTION('',(1.,0.,0.));
#912 = ORIENTED_EDGE('',*,*,#913,.F.);
#913 = EDGE_CURVE('',#914,#905,#916,.T.);
#914 = VERTEX_POINT('',#915);
#915 = CARTESIAN_POINT('',(8.8,2.20026102177,1.));
#916 = CIRCLE('',#917,6.59973897823);
#917 = AXIS2_PLACEMENT_3D('',#918,#919,#920);
#918 = CARTESIAN_POINT('',(2.20026102177,2.20026102177,1.));
#919 = DIRECTION('',(0.,0.,-1.));
#920 = DIRECTION('',(1.,0.,0.));
#921 = ORIENTED_EDGE('',*,*,#922,.T.);
#922 = EDGE_CURVE('',#914,#162,#923,.T.);
#923 = LINE('',#924,#925);
#924 = CARTESIAN_POINT('',(8.8,9.554094404681,1.));
#925 = VECTOR('',#926,1.);
#926 = DIRECTION('',(0.,1.,0.));
#927 = PLANE('',#928);
#928 = AXIS2_PLACEMENT_3D('',#929,#930,#931);
#929 = CARTESIAN_POINT('',(2.591E-14,8.008058298478,1.));
#930 = DIRECTION('',(0.,0.,1.));
#931 = DIRECTION('',(1.,0.,0.));
#932 = ADVANCED_FACE('',(#933),#946,.T.);
#933 = FACE_BOUND('',#934,.T.);
#934 = EDGE_LOOP('',(#935,#936,#937,#938,#939,#940));
#935 = ORIENTED_EDGE('',*,*,#323,.F.);
#936 = ORIENTED_EDGE('',*,*,#249,.T.);
#937 = ORIENTED_EDGE('',*,*,#177,.F.);
#938 = ORIENTED_EDGE('',*,*,#169,.F.);
#939 = ORIENTED_EDGE('',*,*,#922,.F.);
#940 = ORIENTED_EDGE('',*,*,#941,.T.);
#941 = EDGE_CURVE('',#914,#324,#942,.T.);
#942 = LINE('',#943,#944);
#943 = CARTESIAN_POINT('',(8.8,2.20026102177,0.));
#944 = VECTOR('',#945,1.);
#945 = DIRECTION('',(0.,0.,1.));
#946 = PLANE('',#947);
#947 = AXIS2_PLACEMENT_3D('',#948,#949,#950);
#948 = CARTESIAN_POINT('',(8.8,18.246352438183,9.432666566931));
#949 = DIRECTION('',(-1.,-0.,-0.));
#950 = DIRECTION('',(0.,0.,-1.));
#951 = ADVANCED_FACE('',(#952),#963,.T.);
#952 = FACE_BOUND('',#953,.F.);
#953 = EDGE_LOOP('',(#954,#955,#956,#957));
#954 = ORIENTED_EDGE('',*,*,#409,.T.);
#955 = ORIENTED_EDGE('',*,*,#512,.F.);
#956 = ORIENTED_EDGE('',*,*,#587,.F.);
#957 = ORIENTED_EDGE('',*,*,#958,.T.);
#958 = EDGE_CURVE('',#588,#401,#959,.T.);
#959 = LINE('',#960,#961);
#960 = CARTESIAN_POINT('',(5.309859154929,-3.749052647646,0.));
#961 = VECTOR('',#962,1.);
#962 = DIRECTION('',(0.,0.,1.));
#963 = CYLINDRICAL_SURFACE('',#964,0.6);
#964 = AXIS2_PLACEMENT_3D('',#965,#966,#967);
#965 = CARTESIAN_POINT('',(5.8,-4.095119045891,0.));
#966 = DIRECTION('',(-0.,-0.,-1.));
#967 = DIRECTION('',(1.,0.,0.));
#968 = ADVANCED_FACE('',(#969),#980,.F.);
#969 = FACE_BOUND('',#970,.T.);
#970 = EDGE_LOOP('',(#971,#972,#978,#979));
#971 = ORIENTED_EDGE('',*,*,#913,.T.);
#972 = ORIENTED_EDGE('',*,*,#973,.T.);
#973 = EDGE_CURVE('',#905,#332,#974,.T.);
#974 = LINE('',#975,#976);
#975 = CARTESIAN_POINT('',(7.503603883713,-1.727984015068,0.));
#976 = VECTOR('',#977,1.);
#977 = DIRECTION('',(0.,0.,1.));
#978 = ORIENTED_EDGE('',*,*,#331,.T.);
#979 = ORIENTED_EDGE('',*,*,#941,.F.);
#980 = CYLINDRICAL_SURFACE('',#981,6.59973897823);
#981 = AXIS2_PLACEMENT_3D('',#982,#983,#984);
#982 = CARTESIAN_POINT('',(2.20026102177,2.20026102177,0.));
#983 = DIRECTION('',(-0.,-0.,-1.));
#984 = DIRECTION('',(1.,0.,0.));
#985 = ADVANCED_FACE('',(#986),#997,.F.);
#986 = FACE_BOUND('',#987,.T.);
#987 = EDGE_LOOP('',(#988,#989,#990,#996));
#988 = ORIENTED_EDGE('',*,*,#958,.T.);
#989 = ORIENTED_EDGE('',*,*,#400,.T.);
#990 = ORIENTED_EDGE('',*,*,#991,.F.);
#991 = EDGE_CURVE('',#597,#392,#992,.T.);
#992 = LINE('',#993,#994);
#993 = CARTESIAN_POINT('',(-5.309859154929,-3.749052647646,0.));
#994 = VECTOR('',#995,1.);
#995 = DIRECTION('',(0.,0.,1.));
#996 = ORIENTED_EDGE('',*,*,#596,.F.);
#997 = CYLINDRICAL_SURFACE('',#998,6.5);
#998 = AXIS2_PLACEMENT_3D('',#999,#1000,#1001);
#999 = CARTESIAN_POINT('',(0.,0.,0.));
#1000 = DIRECTION('',(-0.,-0.,-1.));
#1001 = DIRECTION('',(1.,0.,0.));
#1002 = ADVANCED_FACE('',(#1003),#1014,.T.);
#1003 = FACE_BOUND('',#1004,.F.);
#1004 = EDGE_LOOP('',(#1005,#1006,#1007,#1008));
#1005 = ORIENTED_EDGE('',*,*,#904,.T.);
#1006 = ORIENTED_EDGE('',*,*,#973,.T.);
#1007 = ORIENTED_EDGE('',*,*,#340,.T.);
#1008 = ORIENTED_EDGE('',*,*,#1009,.F.);
#1009 = EDGE_CURVE('',#896,#341,#1010,.T.);
#1010 = LINE('',#1011,#1012);
#1011 = CARTESIAN_POINT('',(-7.503603883713,-1.727984015068,0.));
#1012 = VECTOR('',#1013,1.);
#1013 = DIRECTION('',(0.,0.,1.));
#1014 = CYLINDRICAL_SURFACE('',#1015,7.7);
#1015 = AXIS2_PLACEMENT_3D('',#1016,#1017,#1018);
#1016 = CARTESIAN_POINT('',(0.,0.,0.));
#1017 = DIRECTION('',(-0.,-0.,-1.));
#1018 = DIRECTION('',(1.,0.,0.));
#1019 = ADVANCED_FACE('',(#1020),#1031,.T.);
#1020 = FACE_BOUND('',#1021,.F.);
#1021 = EDGE_LOOP('',(#1022,#1023,#1024,#1025));
#1022 = ORIENTED_EDGE('',*,*,#391,.T.);
#1023 = ORIENTED_EDGE('',*,*,#991,.F.);
#1024 = ORIENTED_EDGE('',*,*,#605,.F.);
#1025 = ORIENTED_EDGE('',*,*,#1026,.T.);
#1026 = EDGE_CURVE('',#606,#383,#1027,.T.);
#1027 = LINE('',#1028,#1029);
#1028 = CARTESIAN_POINT('',(-6.290140845071,-4.441185444135,0.));
#1029 = VECTOR('',#1030,1.);
#1030 = DIRECTION('',(0.,0.,1.));
#1031 = CYLINDRICAL_SURFACE('',#1032,0.6);
#1032 = AXIS2_PLACEMENT_3D('',#1033,#1034,#1035);
#1033 = CARTESIAN_POINT('',(-5.8,-4.095119045891,0.));
#1034 = DIRECTION('',(-0.,-0.,-1.));
#1035 = DIRECTION('',(1.,0.,0.));
#1036 = ADVANCED_FACE('',(#1037),#1043,.F.);
#1037 = FACE_BOUND('',#1038,.T.);
#1038 = EDGE_LOOP('',(#1039,#1040,#1041,#1042));
#1039 = ORIENTED_EDGE('',*,*,#895,.T.);
#1040 = ORIENTED_EDGE('',*,*,#868,.T.);
#1041 = ORIENTED_EDGE('',*,*,#349,.T.);
#1042 = ORIENTED_EDGE('',*,*,#1009,.F.);
#1043 = CYLINDRICAL_SURFACE('',#1044,6.59973897823);
#1044 = AXIS2_PLACEMENT_3D('',#1045,#1046,#1047);
#1045 = CARTESIAN_POINT('',(-2.20026102177,2.20026102177,0.));
#1046 = DIRECTION('',(-0.,-0.,-1.));
#1047 = DIRECTION('',(1.,0.,0.));
#1048 = ADVANCED_FACE('',(#1049),#1055,.T.);
#1049 = FACE_BOUND('',#1050,.F.);
#1050 = EDGE_LOOP('',(#1051,#1052,#1053,#1054));
#1051 = ORIENTED_EDGE('',*,*,#382,.T.);
#1052 = ORIENTED_EDGE('',*,*,#1026,.F.);
#1053 = ORIENTED_EDGE('',*,*,#614,.F.);
#1054 = ORIENTED_EDGE('',*,*,#797,.T.);
#1055 = CYLINDRICAL_SURFACE('',#1056,7.79973897823);
#1056 = AXIS2_PLACEMENT_3D('',#1057,#1058,#1059);
#1057 = CARTESIAN_POINT('',(-2.20026102177,2.20026102177,0.));
#1058 = DIRECTION('',(-0.,-0.,-1.));
#1059 = DIRECTION('',(1.,0.,0.));
#1060 = ADVANCED_FACE('',(#1061),#1104,.T.);
#1061 = FACE_BOUND('',#1062,.F.);
#1062 = EDGE_LOOP('',(#1063,#1070,#1071,#1072,#1080,#1103));
#1063 = ORIENTED_EDGE('',*,*,#1064,.F.);
#1064 = EDGE_CURVE('',#780,#436,#1065,.T.);
#1065 = CIRCLE('',#1066,1.241641991079);
#1066 = AXIS2_PLACEMENT_3D('',#1067,#1068,#1069);
#1067 = CARTESIAN_POINT('',(-8.758358008921,31.391724404056,
    11.399653298353));
#1068 = DIRECTION('',(0.,0.195090354216,-0.980785273998));
#1069 = DIRECTION('',(1.,0.,0.));
#1070 = ORIENTED_EDGE('',*,*,#787,.F.);
#1071 = ORIENTED_EDGE('',*,*,#743,.F.);
#1072 = ORIENTED_EDGE('',*,*,#1073,.T.);
#1073 = EDGE_CURVE('',#744,#1074,#1076,.T.);
#1074 = VERTEX_POINT('',#1075);
#1075 = CARTESIAN_POINT('',(-7.745966692415,32.179310085844,
    11.124872540129));
#1076 = LINE('',#1077,#1078);
#1077 = CARTESIAN_POINT('',(-7.745966692415,33.630167534758,
    3.830920841271));
#1078 = VECTOR('',#1079,1.);
#1079 = DIRECTION('',(0.,-0.195090354216,0.980785273998));
#1080 = ORIENTED_EDGE('',*,*,#1081,.T.);
#1081 = EDGE_CURVE('',#1074,#434,#1082,.T.);
#1082 = B_SPLINE_CURVE_WITH_KNOTS('',7,(#1083,#1084,#1085,#1086,#1087,
    #1088,#1089,#1090,#1091,#1092,#1093,#1094,#1095,#1096,#1097,#1098,
    #1099,#1100,#1101,#1102),.UNSPECIFIED.,.F.,.F.,(8,6,6,8),(0.,
    0.230602169914,0.380584839073,1.),.UNSPECIFIED.);
#1083 = CARTESIAN_POINT('',(-7.745966692415,32.179310085844,
    11.124872540129));
#1084 = CARTESIAN_POINT('',(-7.771375742465,32.214407514581,
    11.131853853966));
#1085 = CARTESIAN_POINT('',(-7.798268856003,32.248153784546,
    11.140317197204));
#1086 = CARTESIAN_POINT('',(-7.826450731884,32.280275132851,
    11.150210218864));
#1087 = CARTESIAN_POINT('',(-7.855704657426,32.310595617818,
    11.161432139469));
#1088 = CARTESIAN_POINT('',(-7.885809770079,32.339015947772,
    11.173853135851));
#1089 = CARTESIAN_POINT('',(-7.916553440265,32.365495725536,
    11.187329557186));
#1090 = CARTESIAN_POINT('',(-7.968021584538,32.40600202045,
    11.211071184997));
#1091 = CARTESIAN_POINT('',(-7.988498212474,32.42115124534,
    11.220815158541));
#1092 = CARTESIAN_POINT('',(-8.009122101853,32.435492950354,
    11.23091039154));
#1093 = CARTESIAN_POINT('',(-8.029852171819,32.449040801645,
    11.241321903962));
#1094 = CARTESIAN_POINT('',(-8.05065303159,32.461814015545,
    11.252017041876));
#1095 = CARTESIAN_POINT('',(-8.071495194039,32.473835409649,
    11.26296628222));
#1096 = CARTESIAN_POINT('',(-8.178505637986,32.531772857908,
    11.320307178692));
#1097 = CARTESIAN_POINT('',(-8.264631717298,32.565833969281,
    11.370190270619));
#1098 = CARTESIAN_POINT('',(-8.349714541962,32.589551963256,
    11.4222736842));
#1099 = CARTESIAN_POINT('',(-8.433101960647,32.604413607544,
    11.475559724449));
#1100 = CARTESIAN_POINT('',(-8.514486173422,32.611744226569,
    11.52938446268));
#1101 = CARTESIAN_POINT('',(-8.593892197368,32.612490662509,
    11.583449369014));
#1102 = CARTESIAN_POINT('',(-8.671634941347,32.607237153174,
    11.637761825958));
#1103 = ORIENTED_EDGE('',*,*,#433,.T.);
#1104 = CYLINDRICAL_SURFACE('',#1105,1.241641991079);
#1105 = AXIS2_PLACEMENT_3D('',#1106,#1107,#1108);
#1106 = CARTESIAN_POINT('',(-8.758358008921,32.925134588194,
    3.690681044727));
#1107 = DIRECTION('',(-0.,0.195090354216,-0.980785273998));
#1108 = DIRECTION('',(1.,0.,0.));
#1109 = ADVANCED_FACE('',(#1110),#1115,.F.);
#1110 = FACE_BOUND('',#1111,.F.);
#1111 = EDGE_LOOP('',(#1112,#1113,#1114));
#1112 = ORIENTED_EDGE('',*,*,#779,.F.);
#1113 = ORIENTED_EDGE('',*,*,#1064,.T.);
#1114 = ORIENTED_EDGE('',*,*,#486,.F.);
#1115 = PLANE('',#1116);
#1116 = AXIS2_PLACEMENT_3D('',#1117,#1118,#1119);
#1117 = CARTESIAN_POINT('',(-0.103577914025,34.376206990996,
    11.993303896984));
#1118 = DIRECTION('',(0.,-0.195090354216,0.980785273998));
#1119 = DIRECTION('',(1.,0.,0.));
#1120 = ADVANCED_FACE('',(#1121),#1150,.T.);
#1121 = FACE_BOUND('',#1122,.F.);
#1122 = EDGE_LOOP('',(#1123,#1131,#1138,#1139,#1140,#1141,#1148,#1149));
#1123 = ORIENTED_EDGE('',*,*,#1124,.F.);
#1124 = EDGE_CURVE('',#1125,#444,#1127,.T.);
#1125 = VERTEX_POINT('',#1126);
#1126 = CARTESIAN_POINT('',(6.,38.146579947776,9.317451522451));
#1127 = LINE('',#1128,#1129);
#1128 = CARTESIAN_POINT('',(6.,38.146579947776,9.317451522451));
#1129 = VECTOR('',#1130,1.);
#1130 = DIRECTION('',(0.766044443119,-0.125401662459,0.630436621889));
#1131 = ORIENTED_EDGE('',*,*,#1132,.T.);
#1132 = EDGE_CURVE('',#1125,#1125,#1133,.T.);
#1133 = CIRCLE('',#1134,6.);
#1134 = AXIS2_PLACEMENT_3D('',#1135,#1136,#1137);
#1135 = CARTESIAN_POINT('',(0.,38.146579947776,9.317451522451));
#1136 = DIRECTION('',(0.,0.195090354216,-0.980785273998));
#1137 = DIRECTION('',(1.,0.,0.));
#1138 = ORIENTED_EDGE('',*,*,#1124,.T.);
#1139 = ORIENTED_EDGE('',*,*,#443,.F.);
#1140 = ORIENTED_EDGE('',*,*,#1081,.F.);
#1141 = ORIENTED_EDGE('',*,*,#1142,.F.);
#1142 = EDGE_CURVE('',#632,#1074,#1143,.T.);
#1143 = CIRCLE('',#1144,9.5);
#1144 = AXIS2_PLACEMENT_3D('',#1145,#1146,#1147);
#1145 = CARTESIAN_POINT('',(0.,37.573629092835,12.197869488318));
#1146 = DIRECTION('',(0.,0.195090354216,-0.980785273998));
#1147 = DIRECTION('',(0.,0.980785273998,0.195090354216));
#1148 = ORIENTED_EDGE('',*,*,#631,.F.);
#1149 = ORIENTED_EDGE('',*,*,#452,.F.);
#1150 = CONICAL_SURFACE('',#1151,6.,0.872664625997);
#1151 = AXIS2_PLACEMENT_3D('',#1152,#1153,#1154);
#1152 = CARTESIAN_POINT('',(0.,38.146579947776,9.317451522451));
#1153 = DIRECTION('',(0.,-0.195090354216,0.980785273998));
#1154 = DIRECTION('',(1.,0.,0.));
#1155 = ADVANCED_FACE('',(#1156),#1161,.T.);
#1156 = FACE_BOUND('',#1157,.T.);
#1157 = EDGE_LOOP('',(#1158,#1159,#1160));
#1158 = ORIENTED_EDGE('',*,*,#707,.T.);
#1159 = ORIENTED_EDGE('',*,*,#570,.T.);
#1160 = ORIENTED_EDGE('',*,*,#680,.T.);
#1161 = PLANE('',#1162);
#1162 = AXIS2_PLACEMENT_3D('',#1163,#1164,#1165);
#1163 = CARTESIAN_POINT('',(10.,43.153393578552,0.));
#1164 = DIRECTION('',(0.,0.7071067812,-0.707106781173));
#1165 = DIRECTION('',(0.,0.707106781173,0.7071067812));
#1166 = ADVANCED_FACE('',(#1167),#1173,.F.);
#1167 = FACE_BOUND('',#1168,.T.);
#1168 = EDGE_LOOP('',(#1169,#1170,#1171,#1172));
#1169 = ORIENTED_EDGE('',*,*,#752,.F.);
#1170 = ORIENTED_EDGE('',*,*,#1073,.T.);
#1171 = ORIENTED_EDGE('',*,*,#1142,.F.);
#1172 = ORIENTED_EDGE('',*,*,#656,.F.);
#1173 = CYLINDRICAL_SURFACE('',#1174,9.5);
#1174 = AXIS2_PLACEMENT_3D('',#1175,#1176,#1177);
#1175 = CARTESIAN_POINT('',(0.,39.024486541748,4.903917789459));
#1176 = DIRECTION('',(-0.,0.195090354216,-0.980785273998));
#1177 = DIRECTION('',(1.,0.,0.));
#1178 = ADVANCED_FACE('',(#1179),#1198,.T.);
#1179 = FACE_BOUND('',#1180,.T.);
#1180 = EDGE_LOOP('',(#1181,#1189,#1196,#1197));
#1181 = ORIENTED_EDGE('',*,*,#1182,.F.);
#1182 = EDGE_CURVE('',#1183,#723,#1185,.T.);
#1183 = VERTEX_POINT('',#1184);
#1184 = CARTESIAN_POINT('',(6.,38.92694136464,5.394310426458));
#1185 = LINE('',#1186,#1187);
#1186 = CARTESIAN_POINT('',(6.,38.92694136464,5.394310426458));
#1187 = VECTOR('',#1188,1.);
#1188 = DIRECTION('',(0.707106781187,0.13794971241,-0.693519918132));
#1189 = ORIENTED_EDGE('',*,*,#1190,.T.);
#1190 = EDGE_CURVE('',#1183,#1183,#1191,.T.);
#1191 = CIRCLE('',#1192,6.);
#1192 = AXIS2_PLACEMENT_3D('',#1193,#1194,#1195);
#1193 = CARTESIAN_POINT('',(0.,38.92694136464,5.394310426458));
#1194 = DIRECTION('',(0.,0.195090354216,-0.980785273998));
#1195 = DIRECTION('',(1.,0.,0.));
#1196 = ORIENTED_EDGE('',*,*,#1182,.T.);
#1197 = ORIENTED_EDGE('',*,*,#722,.F.);
#1198 = CONICAL_SURFACE('',#1199,6.,0.785398163397);
#1199 = AXIS2_PLACEMENT_3D('',#1200,#1201,#1202);
#1200 = CARTESIAN_POINT('',(0.,38.92694136464,5.394310426458));
#1201 = DIRECTION('',(-0.,0.195090354216,-0.980785273998));
#1202 = DIRECTION('',(1.,0.,0.));
#1203 = ADVANCED_FACE('',(#1204),#1215,.T.);
#1204 = FACE_BOUND('',#1205,.F.);
#1205 = EDGE_LOOP('',(#1206,#1212,#1213,#1214));
#1206 = ORIENTED_EDGE('',*,*,#1207,.F.);
#1207 = EDGE_CURVE('',#1183,#1125,#1208,.T.);
#1208 = LINE('',#1209,#1210);
#1209 = CARTESIAN_POINT('',(6.,39.024486541748,4.903917789459));
#1210 = VECTOR('',#1211,1.);
#1211 = DIRECTION('',(0.,-0.195090354216,0.980785273998));
#1212 = ORIENTED_EDGE('',*,*,#1190,.T.);
#1213 = ORIENTED_EDGE('',*,*,#1207,.T.);
#1214 = ORIENTED_EDGE('',*,*,#1132,.F.);
#1215 = CYLINDRICAL_SURFACE('',#1216,6.);
#1216 = AXIS2_PLACEMENT_3D('',#1217,#1218,#1219);
#1217 = CARTESIAN_POINT('',(0.,39.024486541748,4.903917789459));
#1218 = DIRECTION('',(0.,-0.195090354216,0.980785273998));
#1219 = DIRECTION('',(1.,0.,0.));
#1220 = ORIENTED_CLOSED_SHELL('',*,#1221,.F.);
#1221 = CLOSED_SHELL('',(#1222,#1278,#1309,#1333,#1358,#1383,#1407,#1424
    ));
#1222 = ADVANCED_FACE('',(#1223),#1273,.F.);
#1223 = FACE_BOUND('',#1224,.F.);
#1224 = EDGE_LOOP('',(#1225,#1235,#1243,#1251,#1259,#1267));
#1225 = ORIENTED_EDGE('',*,*,#1226,.F.);
#1226 = EDGE_CURVE('',#1227,#1229,#1231,.T.);
#1227 = VERTEX_POINT('',#1228);
#1228 = CARTESIAN_POINT('',(-8.8,19.409200907211,1.));
#1229 = VERTEX_POINT('',#1230);
#1230 = CARTESIAN_POINT('',(-8.799999999998,12.513007501928,1.));
#1231 = LINE('',#1232,#1233);
#1232 = CARTESIAN_POINT('',(-8.8,9.554094404681,1.));
#1233 = VECTOR('',#1234,1.);
#1234 = DIRECTION('',(0.,-1.,0.));
#1235 = ORIENTED_EDGE('',*,*,#1236,.F.);
#1236 = EDGE_CURVE('',#1237,#1227,#1239,.T.);
#1237 = VERTEX_POINT('',#1238);
#1238 = CARTESIAN_POINT('',(-8.8,19.408781061783,1.002110705139));
#1239 = LINE('',#1240,#1241);
#1240 = CARTESIAN_POINT('',(-8.8,18.514099851268,5.499976115872));
#1241 = VECTOR('',#1242,1.);
#1242 = DIRECTION('',(0.,0.195090354216,-0.980785273998));
#1243 = ORIENTED_EDGE('',*,*,#1244,.F.);
#1244 = EDGE_CURVE('',#1245,#1237,#1247,.T.);
#1245 = VERTEX_POINT('',#1246);
#1246 = CARTESIAN_POINT('',(-8.8,33.054572985064,3.716427947096));
#1247 = LINE('',#1248,#1249);
#1248 = CARTESIAN_POINT('',(-8.8,33.054572985064,3.716427947096));
#1249 = VECTOR('',#1250,1.);
#1250 = DIRECTION('',(0.,-0.980785273998,-0.195090354216));
#1251 = ORIENTED_EDGE('',*,*,#1252,.T.);
#1252 = EDGE_CURVE('',#1245,#1253,#1255,.T.);
#1253 = VERTEX_POINT('',#1254);
#1254 = CARTESIAN_POINT('',(-8.8,29.581964680019,21.174405824262));
#1255 = LINE('',#1256,#1257);
#1256 = CARTESIAN_POINT('',(-8.8,33.054572985064,3.716427947096));
#1257 = VECTOR('',#1258,1.);
#1258 = DIRECTION('',(0.,-0.195090354216,0.980785273998));
#1259 = ORIENTED_EDGE('',*,*,#1260,.T.);
#1260 = EDGE_CURVE('',#1253,#1261,#1263,.T.);
#1261 = VERTEX_POINT('',#1262);
#1262 = CARTESIAN_POINT('',(-8.799999999997,12.513007501928,
    17.779178560703));
#1263 = LINE('',#1264,#1265);
#1264 = CARTESIAN_POINT('',(-8.8,29.581964680019,21.174405824262));
#1265 = VECTOR('',#1266,1.);
#1266 = DIRECTION('',(1.743299299285E-13,-0.980785273998,-0.195090354216
    ));
#1267 = ORIENTED_EDGE('',*,*,#1268,.T.);
#1268 = EDGE_CURVE('',#1261,#1229,#1269,.T.);
#1269 = LINE('',#1270,#1271);
#1270 = CARTESIAN_POINT('',(-8.799999999997,12.513007501928,
    18.644645635809));
#1271 = VECTOR('',#1272,1.);
#1272 = DIRECTION('',(0.,0.,-1.));
#1273 = PLANE('',#1274);
#1274 = AXIS2_PLACEMENT_3D('',#1275,#1276,#1277);
#1275 = CARTESIAN_POINT('',(-8.799999999998,18.246352438185,
    9.432666566925));
#1276 = DIRECTION('',(1.,1.1835E-13,9.89E-15));
#1277 = DIRECTION('',(-1.1835E-13,1.,0.));
#1278 = ADVANCED_FACE('',(#1279),#1304,.F.);
#1279 = FACE_BOUND('',#1280,.F.);
#1280 = EDGE_LOOP('',(#1281,#1289,#1290,#1298));
#1281 = ORIENTED_EDGE('',*,*,#1282,.F.);
#1282 = EDGE_CURVE('',#1227,#1283,#1285,.T.);
#1283 = VERTEX_POINT('',#1284);
#1284 = CARTESIAN_POINT('',(8.8,19.409200907211,1.));
#1285 = LINE('',#1286,#1287);
#1286 = CARTESIAN_POINT('',(7.96538E-12,19.409200907211,1.));
#1287 = VECTOR('',#1288,1.);
#1288 = DIRECTION('',(1.,0.,0.));
#1289 = ORIENTED_EDGE('',*,*,#1226,.T.);
#1290 = ORIENTED_EDGE('',*,*,#1291,.F.);
#1291 = EDGE_CURVE('',#1292,#1229,#1294,.T.);
#1292 = VERTEX_POINT('',#1293);
#1293 = CARTESIAN_POINT('',(8.8,12.513007501928,1.));
#1294 = LINE('',#1295,#1296);
#1295 = CARTESIAN_POINT('',(2.31761E-12,12.513007501928,1.));
#1296 = VECTOR('',#1297,1.);
#1297 = DIRECTION('',(-1.,0.,0.));
#1298 = ORIENTED_EDGE('',*,*,#1299,.T.);
#1299 = EDGE_CURVE('',#1292,#1283,#1300,.T.);
#1300 = LINE('',#1301,#1302);
#1301 = CARTESIAN_POINT('',(8.8,9.554094404681,1.));
#1302 = VECTOR('',#1303,1.);
#1303 = DIRECTION('',(0.,1.,0.));
#1304 = PLANE('',#1305);
#1305 = AXIS2_PLACEMENT_3D('',#1306,#1307,#1308);
#1306 = CARTESIAN_POINT('',(2.591E-14,8.008058298478,1.));
#1307 = DIRECTION('',(0.,0.,1.));
#1308 = DIRECTION('',(1.,0.,0.));
#1309 = ADVANCED_FACE('',(#1310),#1328,.F.);
#1310 = FACE_BOUND('',#1311,.F.);
#1311 = EDGE_LOOP('',(#1312,#1313,#1321,#1327));
#1312 = ORIENTED_EDGE('',*,*,#1268,.F.);
#1313 = ORIENTED_EDGE('',*,*,#1314,.T.);
#1314 = EDGE_CURVE('',#1261,#1315,#1317,.T.);
#1315 = VERTEX_POINT('',#1316);
#1316 = CARTESIAN_POINT('',(8.8,12.513007501928,17.779178560708));
#1317 = LINE('',#1318,#1319);
#1318 = CARTESIAN_POINT('',(1.66841E-12,12.513007501928,17.779178560705)
  );
#1319 = VECTOR('',#1320,1.);
#1320 = DIRECTION('',(1.,0.,2.4176E-13));
#1321 = ORIENTED_EDGE('',*,*,#1322,.F.);
#1322 = EDGE_CURVE('',#1292,#1315,#1323,.T.);
#1323 = LINE('',#1324,#1325);
#1324 = CARTESIAN_POINT('',(8.8,12.513007501928,0.));
#1325 = VECTOR('',#1326,1.);
#1326 = DIRECTION('',(0.,0.,1.));
#1327 = ORIENTED_EDGE('',*,*,#1291,.T.);
#1328 = PLANE('',#1329);
#1329 = AXIS2_PLACEMENT_3D('',#1330,#1331,#1332);
#1330 = CARTESIAN_POINT('',(4.60931E-12,12.513007501928,9.322322817911)
  );
#1331 = DIRECTION('',(0.,1.,0.));
#1332 = DIRECTION('',(0.,0.,1.));
#1333 = ADVANCED_FACE('',(#1334),#1353,.T.);
#1334 = FACE_BOUND('',#1335,.T.);
#1335 = EDGE_LOOP('',(#1336,#1337,#1338,#1346));
#1336 = ORIENTED_EDGE('',*,*,#1260,.T.);
#1337 = ORIENTED_EDGE('',*,*,#1314,.T.);
#1338 = ORIENTED_EDGE('',*,*,#1339,.T.);
#1339 = EDGE_CURVE('',#1315,#1340,#1342,.T.);
#1340 = VERTEX_POINT('',#1341);
#1341 = CARTESIAN_POINT('',(8.8,29.581964680018,21.174405824266));
#1342 = LINE('',#1343,#1344);
#1343 = CARTESIAN_POINT('',(8.8,10.947115926988,17.467703307033));
#1344 = VECTOR('',#1345,1.);
#1345 = DIRECTION('',(-2.499299284608E-16,0.980785273998,0.195090354216)
  );
#1346 = ORIENTED_EDGE('',*,*,#1347,.F.);
#1347 = EDGE_CURVE('',#1253,#1340,#1348,.T.);
#1348 = CIRCLE('',#1349,10.7);
#1349 = AXIS2_PLACEMENT_3D('',#1350,#1351,#1352);
#1350 = CARTESIAN_POINT('',(1.577640904144E-13,35.551878236703,
    22.361895666628));
#1351 = DIRECTION('',(-2.374971251355E-13,-0.195090354216,0.980785273998
    ));
#1352 = DIRECTION('',(1.,-4.6E-14,2.33E-13));
#1353 = PLANE('',#1354);
#1354 = AXIS2_PLACEMENT_3D('',#1355,#1356,#1357);
#1355 = CARTESIAN_POINT('',(4.1792E-13,19.886313270354,19.245820518168)
  );
#1356 = DIRECTION('',(-2.3712E-13,-0.195090354216,0.980785273998));
#1357 = DIRECTION('',(6.310887241768E-30,0.980785273998,0.195090354216)
  );
#1358 = ADVANCED_FACE('',(#1359),#1378,.F.);
#1359 = FACE_BOUND('',#1360,.T.);
#1360 = EDGE_LOOP('',(#1361,#1370,#1371,#1372));
#1361 = ORIENTED_EDGE('',*,*,#1362,.F.);
#1362 = EDGE_CURVE('',#1245,#1363,#1365,.T.);
#1363 = VERTEX_POINT('',#1364);
#1364 = CARTESIAN_POINT('',(8.8,33.054572985064,3.716427947096));
#1365 = CIRCLE('',#1366,10.7);
#1366 = AXIS2_PLACEMENT_3D('',#1367,#1368,#1369);
#1367 = CARTESIAN_POINT('',(0.,39.024486541748,4.903917789459));
#1368 = DIRECTION('',(0.,-0.195090354216,0.980785273998));
#1369 = DIRECTION('',(1.,0.,0.));
#1370 = ORIENTED_EDGE('',*,*,#1252,.T.);
#1371 = ORIENTED_EDGE('',*,*,#1347,.T.);
#1372 = ORIENTED_EDGE('',*,*,#1373,.F.);
#1373 = EDGE_CURVE('',#1363,#1340,#1374,.T.);
#1374 = LINE('',#1375,#1376);
#1375 = CARTESIAN_POINT('',(8.8,31.521162800926,11.425400200722));
#1376 = VECTOR('',#1377,1.);
#1377 = DIRECTION('',(0.,-0.195090354216,0.980785273998));
#1378 = CYLINDRICAL_SURFACE('',#1379,10.7);
#1379 = AXIS2_PLACEMENT_3D('',#1380,#1381,#1382);
#1380 = CARTESIAN_POINT('',(0.,37.49107635761,12.612890043086));
#1381 = DIRECTION('',(-0.,0.195090354216,-0.980785273998));
#1382 = DIRECTION('',(1.,0.,0.));
#1383 = ADVANCED_FACE('',(#1384),#1402,.F.);
#1384 = FACE_BOUND('',#1385,.F.);
#1385 = EDGE_LOOP('',(#1386,#1394,#1400,#1401));
#1386 = ORIENTED_EDGE('',*,*,#1387,.T.);
#1387 = EDGE_CURVE('',#1237,#1388,#1390,.T.);
#1388 = VERTEX_POINT('',#1389);
#1389 = CARTESIAN_POINT('',(8.8,19.408781061783,1.002110705139));
#1390 = LINE('',#1391,#1392);
#1391 = CARTESIAN_POINT('',(-9.9999999999,19.408781061783,1.002110705139
    ));
#1392 = VECTOR('',#1393,1.);
#1393 = DIRECTION('',(1.,0.,0.));
#1394 = ORIENTED_EDGE('',*,*,#1395,.T.);
#1395 = EDGE_CURVE('',#1388,#1363,#1396,.T.);
#1396 = LINE('',#1397,#1398);
#1397 = CARTESIAN_POINT('',(8.8,19.408781061783,1.002110705139));
#1398 = VECTOR('',#1399,1.);
#1399 = DIRECTION('',(0.,0.980785273998,0.195090354216));
#1400 = ORIENTED_EDGE('',*,*,#1362,.F.);
#1401 = ORIENTED_EDGE('',*,*,#1244,.T.);
#1402 = PLANE('',#1403);
#1403 = AXIS2_PLACEMENT_3D('',#1404,#1405,#1406);
#1404 = CARTESIAN_POINT('',(6.6413011479E-07,32.193916093314,
    3.545232617882));
#1405 = DIRECTION('',(0.,-0.195090354216,0.980785273998));
#1406 = DIRECTION('',(1.,0.,0.));
#1407 = ADVANCED_FACE('',(#1408),#1419,.F.);
#1408 = FACE_BOUND('',#1409,.F.);
#1409 = EDGE_LOOP('',(#1410,#1411,#1412,#1413));
#1410 = ORIENTED_EDGE('',*,*,#1387,.F.);
#1411 = ORIENTED_EDGE('',*,*,#1236,.T.);
#1412 = ORIENTED_EDGE('',*,*,#1282,.T.);
#1413 = ORIENTED_EDGE('',*,*,#1414,.T.);
#1414 = EDGE_CURVE('',#1283,#1388,#1415,.T.);
#1415 = LINE('',#1416,#1417);
#1416 = CARTESIAN_POINT('',(8.8,18.514099851268,5.499976115872));
#1417 = VECTOR('',#1418,1.);
#1418 = DIRECTION('',(0.,-0.195090354216,0.980785273998));
#1419 = PLANE('',#1420);
#1420 = AXIS2_PLACEMENT_3D('',#1421,#1422,#1423);
#1421 = CARTESIAN_POINT('',(1.590484E-11,18.174421244343,7.207655498086)
  );
#1422 = DIRECTION('',(-0.,-0.980785273998,-0.195090354216));
#1423 = DIRECTION('',(0.,0.195090354216,-0.980785273998));
#1424 = ADVANCED_FACE('',(#1425),#1433,.F.);
#1425 = FACE_BOUND('',#1426,.F.);
#1426 = EDGE_LOOP('',(#1427,#1428,#1429,#1430,#1431,#1432));
#1427 = ORIENTED_EDGE('',*,*,#1299,.F.);
#1428 = ORIENTED_EDGE('',*,*,#1322,.T.);
#1429 = ORIENTED_EDGE('',*,*,#1339,.T.);
#1430 = ORIENTED_EDGE('',*,*,#1373,.F.);
#1431 = ORIENTED_EDGE('',*,*,#1395,.F.);
#1432 = ORIENTED_EDGE('',*,*,#1414,.F.);
#1433 = PLANE('',#1434);
#1434 = AXIS2_PLACEMENT_3D('',#1435,#1436,#1437);
#1435 = CARTESIAN_POINT('',(8.8,18.246352438183,9.432666566931));
#1436 = DIRECTION('',(-1.,-0.,-0.));
#1437 = DIRECTION('',(0.,0.,-1.));
#1438 = ORIENTED_CLOSED_SHELL('',*,#1439,.F.);
#1439 = CLOSED_SHELL('',(#1440,#1473,#1498,#1523,#1532));
#1440 = ADVANCED_FACE('',(#1441),#1468,.T.);
#1441 = FACE_BOUND('',#1442,.T.);
#1442 = EDGE_LOOP('',(#1443,#1452,#1460,#1467));
#1443 = ORIENTED_EDGE('',*,*,#1444,.T.);
#1444 = EDGE_CURVE('',#1445,#1445,#1447,.T.);
#1445 = VERTEX_POINT('',#1446);
#1446 = CARTESIAN_POINT('',(8.8,37.382612419257,13.158174990281));
#1447 = CIRCLE('',#1448,8.8);
#1448 = AXIS2_PLACEMENT_3D('',#1449,#1450,#1451);
#1449 = CARTESIAN_POINT('',(0.,37.382612419257,13.158174990281));
#1450 = DIRECTION('',(0.,0.195090354216,-0.980785273998));
#1451 = DIRECTION('',(1.,0.,0.));
#1452 = ORIENTED_EDGE('',*,*,#1453,.T.);
#1453 = EDGE_CURVE('',#1445,#1454,#1456,.T.);
#1454 = VERTEX_POINT('',#1455);
#1455 = CARTESIAN_POINT('',(4.8,38.037413396332,9.866268743577));
#1456 = LINE('',#1457,#1458);
#1457 = CARTESIAN_POINT('',(8.8,37.382612419257,13.158174990281));
#1458 = VECTOR('',#1459,1.);
#1459 = DIRECTION('',(-0.766044443119,0.125401662459,-0.630436621889));
#1460 = ORIENTED_EDGE('',*,*,#1461,.F.);
#1461 = EDGE_CURVE('',#1454,#1454,#1462,.T.);
#1462 = CIRCLE('',#1463,4.8);
#1463 = AXIS2_PLACEMENT_3D('',#1464,#1465,#1466);
#1464 = CARTESIAN_POINT('',(0.,38.037413396332,9.866268743577));
#1465 = DIRECTION('',(0.,0.195090354216,-0.980785273998));
#1466 = DIRECTION('',(1.,0.,0.));
#1467 = ORIENTED_EDGE('',*,*,#1453,.F.);
#1468 = CONICAL_SURFACE('',#1469,8.8,0.872664625997);
#1469 = AXIS2_PLACEMENT_3D('',#1470,#1471,#1472);
#1470 = CARTESIAN_POINT('',(0.,37.382612419257,13.158174990281));
#1471 = DIRECTION('',(0.,-0.195090354216,0.980785273998));
#1472 = DIRECTION('',(1.,0.,0.));
#1473 = ADVANCED_FACE('',(#1474),#1493,.T.);
#1474 = FACE_BOUND('',#1475,.F.);
#1475 = EDGE_LOOP('',(#1476,#1477,#1485,#1492));
#1476 = ORIENTED_EDGE('',*,*,#1444,.T.);
#1477 = ORIENTED_EDGE('',*,*,#1478,.T.);
#1478 = EDGE_CURVE('',#1445,#1479,#1481,.T.);
#1479 = VERTEX_POINT('',#1480);
#1480 = CARTESIAN_POINT('',(8.8,35.551878236703,22.361895666628));
#1481 = LINE('',#1482,#1483);
#1482 = CARTESIAN_POINT('',(8.8,37.382612419257,13.158174990281));
#1483 = VECTOR('',#1484,1.);
#1484 = DIRECTION('',(0.,-0.195090354216,0.980785273998));
#1485 = ORIENTED_EDGE('',*,*,#1486,.F.);
#1486 = EDGE_CURVE('',#1479,#1479,#1487,.T.);
#1487 = CIRCLE('',#1488,8.8);
#1488 = AXIS2_PLACEMENT_3D('',#1489,#1490,#1491);
#1489 = CARTESIAN_POINT('',(0.,35.551878236703,22.361895666628));
#1490 = DIRECTION('',(0.,0.195090354216,-0.980785273998));
#1491 = DIRECTION('',(1.,0.,0.));
#1492 = ORIENTED_EDGE('',*,*,#1478,.F.);
#1493 = CYLINDRICAL_SURFACE('',#1494,8.8);
#1494 = AXIS2_PLACEMENT_3D('',#1495,#1496,#1497);
#1495 = CARTESIAN_POINT('',(0.,37.382612419257,13.158174990281));
#1496 = DIRECTION('',(0.,-0.195090354216,0.980785273998));
#1497 = DIRECTION('',(1.,0.,0.));
#1498 = ADVANCED_FACE('',(#1499),#1518,.T.);
#1499 = FACE_BOUND('',#1500,.T.);
#1500 = EDGE_LOOP('',(#1501,#1509,#1510,#1511));
#1501 = ORIENTED_EDGE('',*,*,#1502,.F.);
#1502 = EDGE_CURVE('',#1454,#1503,#1505,.T.);
#1503 = VERTEX_POINT('',#1504);
#1504 = CARTESIAN_POINT('',(4.8,39.024486541748,4.903917789459));
#1505 = LINE('',#1506,#1507);
#1506 = CARTESIAN_POINT('',(4.8,38.037413396332,9.866268743577));
#1507 = VECTOR('',#1508,1.);
#1508 = DIRECTION('',(0.,0.195090354216,-0.980785273998));
#1509 = ORIENTED_EDGE('',*,*,#1461,.T.);
#1510 = ORIENTED_EDGE('',*,*,#1502,.T.);
#1511 = ORIENTED_EDGE('',*,*,#1512,.F.);
#1512 = EDGE_CURVE('',#1503,#1503,#1513,.T.);
#1513 = CIRCLE('',#1514,4.8);
#1514 = AXIS2_PLACEMENT_3D('',#1515,#1516,#1517);
#1515 = CARTESIAN_POINT('',(0.,39.024486541748,4.903917789459));
#1516 = DIRECTION('',(0.,0.195090354216,-0.980785273998));
#1517 = DIRECTION('',(1.,0.,0.));
#1518 = CYLINDRICAL_SURFACE('',#1519,4.8);
#1519 = AXIS2_PLACEMENT_3D('',#1520,#1521,#1522);
#1520 = CARTESIAN_POINT('',(0.,38.037413396332,9.866268743577));
#1521 = DIRECTION('',(-0.,0.195090354216,-0.980785273998));
#1522 = DIRECTION('',(1.,0.,0.));
#1523 = ADVANCED_FACE('',(#1524),#1527,.F.);
#1524 = FACE_BOUND('',#1525,.T.);
#1525 = EDGE_LOOP('',(#1526));
#1526 = ORIENTED_EDGE('',*,*,#1486,.F.);
#1527 = PLANE('',#1528);
#1528 = AXIS2_PLACEMENT_3D('',#1529,#1530,#1531);
#1529 = CARTESIAN_POINT('',(0.,35.551878236703,22.361895666628));
#1530 = DIRECTION('',(-0.,0.195090354216,-0.980785273998));
#1531 = DIRECTION('',(1.,0.,0.));
#1532 = ADVANCED_FACE('',(#1533),#1536,.F.);
#1533 = FACE_BOUND('',#1534,.F.);
#1534 = EDGE_LOOP('',(#1535));
#1535 = ORIENTED_EDGE('',*,*,#1512,.F.);
#1536 = PLANE('',#1537);
#1537 = AXIS2_PLACEMENT_3D('',#1538,#1539,#1540);
#1538 = CARTESIAN_POINT('',(6.6413011479E-07,32.193916093314,
    3.545232617882));
#1539 = DIRECTION('',(0.,-0.195090354216,0.980785273998));
#1540 = DIRECTION('',(1.,0.,0.));
#1541 = ( GEOMETRIC_REPRESENTATION_CONTEXT(3) 
GLOBAL_UNCERTAINTY_ASSIGNED_CONTEXT((#1545)) 
GLOBAL_UNIT_ASSIGNED_CONTEXT((#1542,#1543,#1544)) REPRESENTATION_CONTEXT
('Context #1','3D Context with UNIT and UNCERTAINTY') );
#1542 = ( LENGTH_UNIT() NAMED_UNIT(*) SI_UNIT(.MILLI.,.METRE.) );
#1543 = ( NAMED_UNIT(*) PLANE_ANGLE_UNIT() SI_UNIT($,.RADIAN.) );
#1544 = ( NAMED_UNIT(*) SI_UNIT($,.STERADIAN.) SOLID_ANGLE_UNIT() );
#1545 = UNCERTAINTY_MEASURE_WITH_UNIT(LENGTH_MEASURE(2.E-04),#1542,
  'distance_accuracy_value','confusion accuracy');
#1546 = PRODUCT_RELATED_PRODUCT_CATEGORY('part',$,(#7));
ENDSEC;
END-ISO-10303-21;
